<svg width="109" height="48" viewBox="0 0 109 48" fill="none" xmlns="http://www.w3.org/2000/svg">
<path d="M27.8099 29.8667C27.0395 29.8667 26.3678 30.017 25.805 30.3083C25.2507 30.5939 24.6147 31.1171 23.8988 31.8837V30.3956H19.9258V47.5617H24.0886L24.0858 38.6339C24.0858 35.3617 24.9633 33.7214 27.0865 33.7214C27.4538 33.7214 27.8296 33.8031 28.2073 33.9506C28.8902 32.7715 29.6794 31.663 30.5634 30.6418C29.6118 30.1382 28.693 29.8667 27.8099 29.8667Z" fill="#0D1721" fill-opacity="0.25"/>
<path d="M102.406 38.4777L108.032 30.3926H103.286L100.027 35.073L96.7587 30.3926H91.9373L97.6221 38.5256L91.337 47.5614H96.0842L99.9971 41.934L103.933 47.5614H108.757" fill="#0D1721" fill-opacity="0.25"/>
<mask id="mask0_37_6090" style="mask-type:luminance" maskUnits="userSpaceOnUse" x="0" y="29" width="18" height="19">
<path d="M0.529434 29.8223H17.8458V47.9992H0.529434V29.8223Z" fill="white"/>
</mask>
<g mask="url(#mask0_37_6090)">
<path d="M12.5293 42.6371C11.6744 43.5823 10.5959 44.0482 9.29659 44.051C8.03769 44.0501 6.97609 43.57 6.11741 42.609C5.25685 41.6498 4.82564 40.4256 4.82564 38.9413C4.82564 37.4616 5.25122 36.2544 6.0958 35.3102C6.94321 34.3651 8.00481 33.8991 9.28531 33.8991C10.5959 33.8991 11.6791 34.3632 12.535 35.2876C13.3908 36.2177 13.668 37.2756 13.6651 38.7712C13.6651 40.3016 13.388 41.6958 12.5293 42.6371ZM13.6323 32.2701C12.8938 31.4978 12.0906 30.9153 11.2216 30.5311C10.3544 30.1403 9.41966 29.9477 8.43227 29.9458C6.27994 29.9458 4.45267 30.7932 2.94481 32.4852C1.43884 34.1791 0.688197 36.3502 0.685379 39.0004C0.685379 41.5567 1.46138 43.6978 3.01621 45.4142C4.57104 47.1363 6.41428 47.9987 8.54501 47.9987C9.4967 48.0006 10.3798 47.824 11.1915 47.4726C12.006 47.1194 12.8177 46.5453 13.6266 45.7421V47.5609H17.7894V30.3949H13.6323" fill="#0D1721" fill-opacity="0.25"/>
</g>
<mask id="mask1_37_6090" style="mask-type:luminance" maskUnits="userSpaceOnUse" x="28" y="29" width="18" height="19">
<path d="M28.6685 29.8223H45.9849V47.9992H28.6685V29.8223Z" fill="white"/>
</mask>
<g mask="url(#mask1_37_6090)">
<path d="M40.5594 42.6371C39.7036 43.5823 38.6232 44.0482 37.3286 44.051C36.0669 44.0501 35.0062 43.57 34.1447 42.609C33.2842 41.6498 32.8529 40.4256 32.8558 38.9413C32.8586 37.4616 33.2785 36.2544 34.1259 35.3102C34.9733 34.3651 36.0349 33.8991 37.3145 33.8991C38.6232 33.8991 39.7064 34.3632 40.5651 35.2876C41.4209 36.2177 41.6943 37.2756 41.6915 38.7712C41.6915 40.3016 41.4181 41.6958 40.5594 42.6371ZM41.6614 32.2701C40.9239 31.4978 40.1179 30.9153 39.2536 30.5311C38.3817 30.1403 37.4526 29.9477 36.4596 29.9458C34.3119 29.9458 32.48 30.7932 30.9749 32.4852C29.469 34.1791 28.7174 36.3502 28.7146 39.0004C28.7127 41.5567 29.4877 43.6978 31.0463 45.4142C32.6012 47.1363 34.4435 47.9987 36.577 47.9987C37.5259 48.0006 38.4099 47.824 39.2179 47.4726C40.0333 47.1194 40.845 46.5453 41.653 45.7421V47.5609H45.8167V30.3949H41.6614" fill="#0D1721" fill-opacity="0.25"/>
</g>
<path d="M70.865 30.8147H70.8659C69.9715 30.2463 68.9372 29.9626 67.7581 29.9626C66.6176 29.9616 65.572 30.2265 64.6099 30.7583C63.6498 31.2863 62.8419 32.0585 62.1776 33.0797C61.6732 32.0585 61.0042 31.2835 60.1728 30.7545C59.3367 30.2228 58.4038 29.9579 57.3675 29.9541C56.3416 29.9541 55.3956 30.1551 54.5266 30.5601C53.6566 30.9612 52.8675 31.5691 52.1572 32.3864V30.3957H47.9916L47.985 47.5617H52.1488L52.1516 39.9454C52.1535 38.2994 52.2935 37.0922 52.5734 36.3256C52.8562 35.5599 53.278 34.9662 53.8436 34.5387C54.411 34.1169 55.0386 33.9027 55.7329 33.9027C56.352 33.9036 56.8847 34.0718 57.3234 34.4081C57.7621 34.7454 58.0881 35.2574 58.308 35.9442C58.5269 36.6319 58.6368 37.7395 58.6368 39.2756L58.6293 47.5617H62.7968V39.8411C62.8033 38.2036 62.9396 37.0161 63.2148 36.2777C63.491 35.5374 63.9138 34.9596 64.4784 34.5387C65.0402 34.1197 65.6847 33.9112 66.4015 33.9112C67.3391 33.9112 68.0381 34.2559 68.5097 34.9399C68.9813 35.6304 69.2143 36.9457 69.2143 38.8829L69.2087 47.5617H73.3715L73.3771 37.5084C73.3771 35.4463 73.1826 33.9563 72.7928 33.0431C72.4038 32.1262 71.7622 31.383 70.865 30.8147Z" fill="#0D1721" fill-opacity="0.25"/>
<mask id="mask2_37_6090" style="mask-type:luminance" maskUnits="userSpaceOnUse" x="75" y="29" width="18" height="19">
<path d="M75.086 29.8223H92.6429V47.9992H75.086V29.8223Z" fill="white"/>
</mask>
<g mask="url(#mask2_37_6090)">
<path d="M80.8891 34.6118C81.7638 33.9476 82.7803 33.6169 83.9386 33.6197C85.0106 33.6197 85.9482 33.9138 86.7514 34.5047C87.5641 35.0985 88.1043 35.8651 88.3777 36.8093L79.3634 36.8036C79.8303 35.758 80.3405 35.0252 80.8891 34.6118ZM87.9089 42.5025C86.7956 43.6449 85.4634 44.2161 83.9133 44.2161C82.614 44.2142 81.5524 43.8459 80.7134 43.1159C79.8764 42.386 79.3634 41.4023 79.1689 40.1632L92.5245 40.1716L92.5405 39.3543C92.5405 36.5265 91.7269 34.253 90.0922 32.5253C88.4603 30.8023 86.3371 29.9398 83.7273 29.937C81.2696 29.937 79.2234 30.7994 77.5972 32.5337C75.9663 34.2614 75.1518 36.4363 75.1518 39.0546C75.1489 41.6137 75.9663 43.7379 77.5953 45.4374C79.2234 47.1397 81.341 47.988 83.9358 47.988C85.6081 47.9899 87.0502 47.6827 88.2706 47.0664C89.4862 46.4529 90.5309 45.4994 91.4028 44.2161" fill="#0D1721" fill-opacity="0.25"/>
</g>
<path d="M100.8 18.5198H105.48V-0.000976562H100.8V18.5198Z" fill="#0D1721" fill-opacity="0.25"/>
<path d="M93.4452 22.8562C94.473 22.3292 95.3561 21.5776 95.9357 20.4568C96.7794 18.8362 96.9513 17.5839 96.9513 15.7773V4.13818H92.2586L92.2455 14.2882C92.2455 15.844 92.2981 17.8864 91.0589 19.0204C90.6108 19.4159 90.0706 19.693 89.5032 19.8772L92.2849 23.3438C92.6805 23.1992 93.076 23.0413 93.4452 22.8562Z" fill="#0D1721" fill-opacity="0.25"/>
<path d="M83.6906 18.5198H88.3702V-0.000976562H83.6906V18.5198Z" fill="#0D1721" fill-opacity="0.25"/>
<path d="M73.4476 14.4463C72.5776 14.4463 71.8533 14.1307 71.2595 13.5238C70.6667 12.9037 70.3633 12.1136 70.3633 11.1507C70.3633 10.2018 70.6536 9.41075 71.2332 8.80479C71.8138 8.19883 72.5513 7.89538 73.4344 7.88222C74.3185 7.88222 75.0428 8.18473 75.6234 8.80479C76.203 9.41075 76.4933 10.2018 76.4933 11.1507C76.5065 12.1005 76.2162 12.9037 75.6234 13.5238C75.0296 14.1307 74.3053 14.4463 73.4476 14.4463ZM78.6025 16.2914C79.8942 14.9339 80.5396 13.2335 80.5396 11.1901C80.5396 9.08193 79.9205 7.35424 78.6682 6.00985C76.2162 3.34739 71.1412 3.38685 68.5576 5.95724C67.0282 7.48671 66.2897 9.06784 66.2897 11.1901V11.5856C66.2897 11.8496 66.3029 12.0732 66.2897 12.2977C66.2634 13.0362 66.1845 13.3791 65.6443 13.9193C65.1699 14.3937 64.5367 14.3937 63.8781 14.3937H63.4431C62.995 12.931 62.2303 11.3226 61.1226 10.2675C59.3827 8.60656 57.1815 7.76291 54.4261 7.76291H45.4362C45.7397 6.80089 46.3193 5.82572 47.1893 5.16621C48.0856 4.48133 49.088 4.23049 50.1947 4.19103H58.1699V0.434082H50.1947C47.4796 0.52615 45.239 1.3961 43.4981 3.07024C41.653 4.83645 40.7304 7.60508 40.7304 10.5052L40.7436 11.3883H54.4392C55.5468 11.4278 56.522 11.7444 57.3788 12.3109C58.2892 12.9178 58.7101 13.9982 58.7101 14.3937H36.4333C36.6963 13.4054 36.8419 12.0338 36.8419 10.2807V4.17788H32.1493V8.77848C32.1493 9.77996 32.1352 11.9943 31.8984 12.9704C31.6607 13.9324 31.2399 14.42 30.1191 14.42H27.7986C28.0757 13.4317 28.2072 12.0478 28.2072 10.2807V4.17788H23.5146V8.77848C23.5146 9.77996 23.5014 11.9943 23.2637 12.9704C23.027 13.9324 22.6183 14.42 21.4844 14.42H19.534V4.17788H14.8414V14.3148C14.8414 15.8696 14.894 17.913 13.6417 19.0469C12.0596 20.4843 9.2919 20.4439 7.56515 19.3898C5.58756 18.1638 5.08588 15.7118 5.34987 13.5501C5.46825 12.6538 5.70593 11.8628 6.07515 11.1901L1.43509 9.68789C1.07903 10.5578 0.815037 11.533 0.657205 12.6012C-0.344273 19.4293 4.6246 25.2427 12.8375 23.8852C12.9295 23.8721 13.0216 23.8448 13.1137 23.8317C15.329 23.3835 17.4381 22.553 18.5053 20.4843C18.8745 19.759 19.1254 19.1916 19.27 18.533H21.4844C22.2228 18.533 22.8156 18.4804 23.3568 18.348C24.0548 18.177 24.7406 17.9261 25.3738 17.5438C25.5448 17.4385 25.7026 17.3333 25.8482 17.2149V18.533H30.1059C30.8443 18.533 31.4372 18.4804 31.9774 18.348C32.6895 18.177 33.3743 17.9261 33.9812 17.5438L34.1785 17.4122V18.533H62.902C64.0096 18.533 65.1041 18.533 66.1713 18.1901C66.6721 18.0323 67.1738 17.7815 67.6219 17.5043C68.0043 17.2676 68.3331 17.0036 68.6234 16.7011C70.5343 18.3743 73.4476 18.8355 75.8601 18.006C76.9152 17.6368 77.8509 17.0966 78.6025 16.2914Z" fill="#0D1721" fill-opacity="0.25"/>
</svg>
