<svg width="176" height="26" viewBox="0 0 176 26" fill="none" xmlns="http://www.w3.org/2000/svg">
<path d="M65.2787 25.503H81.3735L87.4919 17.2412H71.397L65.2787 25.503ZM0.0808716 20.4758V22.2294H22.489L23.775 20.4758H0.0808716ZM47.4691 17.2022C45.0919 17.2022 45.8323 16.228 46.222 15.6824C47.0015 14.6302 48.2875 12.8375 49.0669 11.8243C49.8463 10.8111 49.8463 10.2265 48.2875 10.2265H34.297L23.0345 25.503H50.4698C59.55 25.503 64.5772 19.3456 66.136 17.2022H47.4691ZM134.451 15.3317L145.207 0.717678H128.177L117.421 15.3317H134.451ZM26.1912 17.2022H0.0808716V18.9559H24.9051L26.1912 17.2022ZM56.6272 9.91474C55.8478 10.9669 54.5617 12.7596 53.8213 13.8118C53.4316 14.3574 52.6912 15.3317 55.0684 15.3317H67.5779C67.5779 15.3317 69.5654 12.6037 71.2801 10.3044C73.5794 7.1868 71.475 0.717678 63.2912 0.717678H30.9845L25.4118 8.31694H55.9257C57.4066 8.31694 57.3676 8.9015 56.6272 9.91474ZM0.0808716 25.503H20.1118L21.3978 23.7493H0.0808716V25.503ZM88.5831 25.503H104.678L110.796 17.2412H94.7015C94.6625 17.2022 88.5831 25.503 88.5831 25.503ZM149.416 25.5419H175.449V23.7883H150.702L149.416 25.5419ZM155.535 17.2022L154.249 18.9559H175.449V17.2022H155.535ZM151.832 22.2294H175.449V20.4758H153.118L151.832 22.2294ZM106.821 0.678711L100.664 9.05739H93.4934L99.6507 0.678711H83.5559L72.8 15.2927H112.16L122.916 0.678711H106.821ZM116.018 17.2022C116.018 17.2022 114.849 18.8 114.265 19.5794C112.238 22.3074 114.031 25.503 120.617 25.503H146.454L152.573 17.2022H116.018Z" fill="#0D1721" fill-opacity="0.25"/>
</svg>
