<svg width="151" height="33" viewBox="0 0 151 33" fill="none" xmlns="http://www.w3.org/2000/svg">
<path fill-rule="evenodd" clip-rule="evenodd" d="M36.6197 0.737305C43.2963 0.737305 49.8712 0.737305 56.6058 0.737305C55.1035 3.45508 53.663 6.04949 52.2261 8.65116C52.1681 8.63665 52.1136 8.6185 52.0628 8.60762C52.0628 8.23025 52.0556 7.84925 52.0628 7.47188C52.0882 6.6482 51.7435 5.98781 51.0722 5.57053C48.6048 4.0284 44.9944 4.64162 43.9494 8.00165C43.5575 9.26801 43.8006 10.4618 44.4647 11.5867C45.604 13.5025 47.1062 15.1136 48.7246 16.6303C49.7369 17.5774 50.811 18.4627 51.8633 19.3626C52.0447 19.5223 52.2733 19.6239 52.5019 19.7763C53.2675 19.1594 53.3074 18.2632 53.5578 17.4722C53.8082 16.663 53.9678 15.8248 54.1964 14.8669C56.2102 15.4474 58.1769 16.0135 60.2125 16.6013C60.2053 18.2305 59.6973 19.7073 59.0986 21.137C58.4962 22.5739 57.7488 23.9527 57.023 25.4332C58.674 27.4724 60.3649 29.5661 62.1683 31.794C61.7692 31.823 61.5079 31.863 61.2467 31.863C59.2147 31.863 57.1863 31.8339 55.1507 31.8702C54.4468 31.8811 53.9243 31.6852 53.4925 31.1373C53.184 30.7526 52.8212 30.4115 52.5744 30.143C50.7094 30.6583 48.9931 31.257 47.2223 31.5799C43.2527 32.302 39.3811 32.0154 35.6328 30.3027C31.9462 28.6227 30.4367 24.185 32.1639 20.56C33.1508 18.4881 34.6059 16.8118 36.3113 15.3349C37.0915 14.6637 37.926 14.0541 38.7787 13.3792C38.5356 13.0562 38.2998 12.755 38.0675 12.4394C36.8193 10.7557 35.9303 8.90516 35.7344 6.78972C35.6509 5.95153 35.6872 5.08067 35.8178 4.24611C36.0138 3.0632 36.3476 1.90207 36.6197 0.737305ZM42.9878 18.1761C42.0081 18.9707 41.0865 19.5912 40.3172 20.3641C38.3651 22.2981 38.6372 24.4752 40.9486 25.9738C41.1844 26.1262 41.4457 26.2532 41.707 26.3512C44.2469 27.3055 46.4676 26.3802 48.8225 25.1937C46.8486 22.8134 44.9763 20.5637 42.9878 18.1761Z" fill="#0D1721" fill-opacity="0.3"/>
<path fill-rule="evenodd" clip-rule="evenodd" d="M70.3725 9.25402C65.7751 9.25402 61.3374 9.25402 56.6638 9.25402C58.2713 6.31127 59.7735 3.56083 61.2612 0.84668C73.3588 0.84668 85.3838 0.84668 97.4088 0.84668C97.4378 0.908365 97.4705 0.977307 97.5067 1.03899C96.9661 1.57602 96.4581 2.15659 95.8666 2.62467C95.6272 2.81335 95.1954 2.80246 94.8543 2.80246C92.4667 2.80972 90.0864 2.79158 87.6988 2.79158C86.5594 2.78795 86.5594 2.79158 85.6777 3.87288C86.6683 4.08334 87.6045 3.95635 88.5297 3.98537C89.455 4.01803 90.3803 4.02891 91.3056 4.03254C92.2635 4.04343 93.2214 4.03254 94.2193 4.03254C93.5698 5.31342 93.109 5.6037 91.8426 5.60008C89.4913 5.59282 87.1364 5.6291 84.7851 5.56741C83.8634 5.54201 83.2103 5.81779 82.6987 6.75395C85.616 6.95715 88.4789 6.75758 91.5813 6.90998C90.7032 7.79172 89.9666 8.52468 89.2228 9.26853C85.8809 9.26853 82.5717 9.26853 79.1572 9.26853C77.2595 16.7941 75.369 24.2943 73.4713 31.8417C70.5721 31.8417 67.7418 31.8417 64.7628 31.8417C66.4827 24.2798 68.5546 16.8703 70.3725 9.25402Z" fill="#0D1721" fill-opacity="0.3"/>
<path fill-rule="evenodd" clip-rule="evenodd" d="M17.2506 25.6149C19.1628 17.262 21.0678 8.9889 22.9655 0.71582C25.9881 0.71582 28.8982 0.71582 31.9099 0.71582C29.5259 11.0717 27.1529 21.3477 24.7726 31.6855C16.7498 31.6855 8.79244 31.6855 0.718933 31.6855C1.79661 29.6208 2.82349 27.6396 3.87939 25.6149C8.2917 25.6149 12.6931 25.6149 17.2506 25.6149Z" fill="#0D1721" fill-opacity="0.3"/>
<path fill-rule="evenodd" clip-rule="evenodd" d="M119.543 26.3403C120.436 27.0551 120.559 27.9732 120.664 28.8912C120.777 29.9181 120.875 30.9449 120.98 32.0226C120.185 32.0226 119.387 32.0226 118.451 32.0226C118.356 31.3078 118.258 30.6111 118.175 29.9217C118.15 29.7076 118.15 29.4899 118.139 29.2758C118.037 27.4506 117.235 27.0225 115.595 27.2692C115.294 28.7968 114.975 30.3789 114.659 31.99C113.85 31.99 113.08 31.99 112.177 31.99C112.95 27.9804 113.708 24.058 114.474 20.0629C116.317 19.7182 118.11 19.5477 119.895 20.0339C121.056 20.3496 121.999 20.9846 122.192 22.2836C122.395 23.6624 121.97 24.82 120.78 25.6219C120.428 25.8613 120.044 26.05 119.543 26.3403ZM116.009 25.1755C116.825 25.4041 117.583 25.4114 118.251 25.0594C118.697 24.8236 119.136 24.439 119.39 24.0072C119.942 23.0783 119.499 22.1348 118.465 21.8445C117.881 21.6849 117.286 21.6341 116.64 21.9316C116.433 22.9948 116.226 24.0652 116.009 25.1755Z" fill="#0D1721" fill-opacity="0.3"/>
<path fill-rule="evenodd" clip-rule="evenodd" d="M93.4827 31.9068C92.5465 31.9068 91.6321 31.9068 90.5073 31.9068C92.0421 29.8022 93.4972 27.8174 94.9958 25.7673C94.3209 23.8188 93.6351 21.8593 92.9275 19.8237C93.8564 19.8237 94.6692 19.8237 95.5691 19.8237C96.0045 21.2026 96.429 22.5778 96.9262 24.1453C97.8696 22.5959 98.7114 21.2171 99.5569 19.8346C100.529 19.8346 101.447 19.8346 102.576 19.8346C101.055 21.8739 99.6258 23.797 98.1635 25.7673C98.9001 27.7775 99.6367 29.7696 100.391 31.8306C99.4988 32.0918 98.6679 31.9431 97.7535 31.9177C97.2781 30.5062 96.8064 29.1055 96.2549 27.4691C95.1917 29.0076 94.495 30.5533 93.4827 31.9068Z" fill="#0D1721" fill-opacity="0.3"/>
<path fill-rule="evenodd" clip-rule="evenodd" d="M86.5993 21.917C86.4106 22.8277 86.2401 23.6188 86.0478 24.544C87.4919 24.7509 88.8671 24.5295 90.3621 24.7073C90.246 25.3931 90.1299 26.0281 89.9956 26.7683C88.5369 26.7683 87.1363 26.7683 85.6595 26.7683C85.4563 27.7952 85.2713 28.7205 85.0608 29.7873C86.7227 29.7873 88.2721 29.7873 89.9485 29.7873C89.7924 30.5711 89.6691 31.2133 89.5421 31.8955C87.0601 31.8955 84.6544 31.8955 82.0999 31.8955C82.8837 27.8424 83.6529 23.8583 84.4258 19.8306C86.8207 19.8306 89.1139 19.8306 91.574 19.8306C91.4543 20.52 91.3418 21.1586 91.2039 21.9206C89.6437 21.917 88.1378 21.917 86.5993 21.917Z" fill="#0D1721" fill-opacity="0.3"/>
<path fill-rule="evenodd" clip-rule="evenodd" d="M125.084 19.958C127.515 19.958 129.848 19.958 132.272 19.958C132.116 20.6946 131.985 21.3369 131.829 22.0662C130.283 22.0662 128.803 22.0662 127.232 22.0662C127.061 22.9697 126.905 23.7898 126.727 24.7404C128.193 24.7695 129.558 24.8021 131.034 24.8384C130.907 25.546 130.802 26.1265 130.675 26.8196C129.246 26.8196 127.838 26.8196 126.336 26.8196C126.14 27.8428 125.962 28.7609 125.751 29.8204C127.362 30.0526 128.883 29.824 130.516 29.9909C130.483 30.3647 130.461 30.7021 130.41 31.0323C130.363 31.348 130.283 31.6528 130.204 32.0302C127.762 32.0302 125.327 32.0302 122.761 32.0302C123.549 27.9807 124.311 24.0147 125.084 19.958Z" fill="#0D1721" fill-opacity="0.3"/>
<path fill-rule="evenodd" clip-rule="evenodd" d="M105.221 27.6436C105.058 28.4201 104.913 29.1096 104.775 29.799C104.64 30.463 104.517 31.1234 104.383 31.8382C103.606 32.0886 102.812 32.0015 101.901 31.889C102.656 27.923 103.396 24.0332 104.154 20.06C106.063 19.6717 107.957 19.4903 109.826 20.1616C111.212 20.6551 111.937 21.8343 111.887 23.3148C111.821 25.2053 110.461 26.8925 108.512 27.3642C107.79 27.542 107.035 27.5711 106.295 27.64C105.954 27.669 105.606 27.6436 105.221 27.6436ZM105.638 25.423C107.336 25.891 108.777 25.2488 109.223 23.9534C109.568 22.9483 109.111 22.0847 108.084 21.8343C107.493 21.6892 106.905 21.6457 106.273 21.9904C106.063 23.0971 105.86 24.2292 105.638 25.423Z" fill="#0D1721" fill-opacity="0.3"/>
<path fill-rule="evenodd" clip-rule="evenodd" d="M140.995 20.3608C140.741 21.0176 140.505 21.6345 140.244 22.2949C139.681 22.1715 139.177 22.0009 138.662 21.9647C138.107 21.9356 137.508 21.9247 136.985 22.0917C135.948 22.4182 135.773 23.4415 136.597 24.1599C136.913 24.4393 137.297 24.6425 137.653 24.8748C137.983 25.0816 138.328 25.2703 138.662 25.4735C141.057 26.9829 140.469 30.1507 138.691 31.3336C137.925 31.8416 137.101 32.121 136.209 32.2262C134.692 32.4112 133.255 32.1645 131.833 31.4678C132.13 30.7349 132.392 30.089 132.631 29.4939C133.571 29.7152 134.413 29.9874 135.276 30.0817C135.77 30.1398 136.347 29.9983 136.8 29.7805C137.678 29.356 137.813 28.4525 137.138 27.7558C136.844 27.4546 136.459 27.2406 136.107 27.0083C135.661 26.7144 135.186 26.4641 134.754 26.1484C132.413 24.4321 133.386 21.6054 135.033 20.5822C135.966 20.0016 136.985 19.7404 138.074 19.7404C139.068 19.7367 140.051 19.8057 140.995 20.3608Z" fill="#0D1721" fill-opacity="0.3"/>
<path fill-rule="evenodd" clip-rule="evenodd" d="M141.136 31.4961C141.43 30.7486 141.673 30.1281 141.935 29.4605C142.559 29.6564 143.143 29.9213 143.753 30.0011C144.406 30.0918 145.128 30.1499 145.741 29.9648C147.018 29.5838 147.2 28.3465 146.162 27.5156C145.861 27.2761 145.498 27.1019 145.168 26.8915C144.75 26.6193 144.329 26.3581 143.93 26.0678C142.073 24.7107 142.497 22.109 143.869 20.9443C144.906 20.0698 146.115 19.7577 147.436 19.7505C148.39 19.7505 149.34 19.8194 150.266 20.3855C150.023 21.0314 149.794 21.6518 149.551 22.2977C148.898 22.1707 148.317 22.0111 147.729 21.9603C147.279 21.9204 146.801 21.9494 146.365 22.0728C145.255 22.3776 145.015 23.4044 145.864 24.1701C146.151 24.4313 146.499 24.6236 146.826 24.8341C147.16 25.0409 147.515 25.2078 147.846 25.4292C148.949 26.1658 149.642 27.1273 149.533 28.5388C149.417 30.0193 148.695 31.1006 147.356 31.7102C145.313 32.6427 143.284 32.4576 141.136 31.4961Z" fill="#0D1721" fill-opacity="0.3"/>
</svg>
