<svg width="99" height="99" viewBox="0 0 99 99" fill="none" xmlns="http://www.w3.org/2000/svg">
<g clip-path="url(#clip0_78_4294)">
<mask id="mask0_78_4294" style="mask-type:luminance" maskUnits="userSpaceOnUse" x="19" y="0" width="61" height="61">
<path d="M19.0972 30.3367C19.0972 47.0969 32.6738 60.6734 49.434 60.6734C66.1941 60.6734 79.7707 47.0969 79.7707 30.3367C79.7501 13.5766 66.1736 0 49.434 0C32.6738 0 19.0972 13.5766 19.0972 30.3367Z" fill="white"/>
</mask>
<g mask="url(#mask0_78_4294)">
<path d="M106.02 15.158L64.5921 86.9433L-7.17267 45.4947L34.2553 -26.27L106.02 15.158Z" fill="url(#paint0_linear_78_4294)" fill-opacity="0.5"/>
</g>
<mask id="mask1_78_4294" style="mask-type:luminance" maskUnits="userSpaceOnUse" x="20" y="1" width="59" height="59">
<path d="M20.3091 30.3368C20.3091 46.4192 33.3516 59.4617 49.4339 59.4617C65.5163 59.4617 78.5588 46.4192 78.5588 30.3368C78.5588 14.2544 65.5163 1.21191 49.4339 1.21191C33.3516 1.21191 20.3091 14.2544 20.3091 30.3368Z" fill="white"/>
</mask>
<g mask="url(#mask1_78_4294)">
<path d="M20.3091 1.21191H78.5588V59.4617H20.3091V1.21191Z" fill="url(#paint1_radial_78_4294)" fill-opacity="0.5"/>
</g>
<g opacity="0.2">
<mask id="mask2_78_4294" style="mask-type:luminance" maskUnits="userSpaceOnUse" x="36" y="23" width="23" height="10">
<path d="M36.0217 23.4766H58.6561V32.3701H36.0217V23.4766Z" fill="white"/>
</mask>
<g mask="url(#mask2_78_4294)">
<mask id="mask3_78_4294" style="mask-type:luminance" maskUnits="userSpaceOnUse" x="36" y="23" width="23" height="10">
<path d="M36.0217 23.4766H58.6561V32.3701H36.0217V23.4766Z" fill="white"/>
</mask>
<g mask="url(#mask3_78_4294)">
<path d="M58.4918 31.2202C58.4918 31.2202 57.1978 32.0007 54.6509 30.2754L53.9731 31.097C53.9731 31.097 57.6086 33.3153 58.6561 31.4051C58.6561 31.3846 58.6766 31.1792 58.4918 31.2202ZM55.5341 29.002C55.5341 29.002 55.7189 28.9609 55.6984 29.1663C55.6984 29.2895 55.9038 29.3101 56.027 29.3101C56.253 29.3101 56.4173 29.1252 56.3967 28.8993C56.3762 28.6733 56.1913 28.509 56.0065 28.5296C56.0065 28.5296 55.3903 28.1599 53.8909 29.8441L45.9833 25.2433C45.9833 25.2433 38.7739 21.3202 36.0216 25.1611C36.0216 25.1611 39.4723 23.4153 45.6957 26.7632L53.1721 30.6657C53.1721 30.6657 52.5559 31.6721 52.1862 31.8364C52.1862 31.8364 51.9397 31.9391 52.0218 31.7132C52.0629 31.5899 51.8165 31.5283 51.6727 31.5283C51.4673 31.5283 51.303 31.7132 51.3235 31.9391C51.3235 32.1445 51.5084 32.3294 51.7138 32.3088C51.7138 32.3088 52.6586 32.6375 54.0552 30.4603C54.0552 30.5014 55.0617 29.1868 55.5341 29.002Z" fill="#0D1721" fill-opacity="0.5"/>
</g>
</g>
</g>
<path d="M58.307 31.138C58.307 31.138 56.9924 31.8568 54.5277 30.0288L53.8088 30.8093C53.8088 30.8093 57.3416 33.1919 58.4713 31.3228C58.4713 31.3228 58.5124 31.1174 58.307 31.138ZM55.4725 28.7965C55.4725 28.7965 55.6574 28.7759 55.6368 28.9813C55.6163 29.1046 55.8217 29.1456 55.9655 29.1456C56.1709 29.1456 56.3352 28.9813 56.3352 28.7554C56.3352 28.5295 56.1709 28.3651 55.9655 28.3651C55.9655 28.3651 55.3493 27.9544 53.7883 29.577L46.086 24.6064C46.086 24.6064 39.0615 20.3753 36.1244 24.0724C36.1244 24.0724 39.6777 22.4909 45.7163 26.1263L53.0283 30.378C53.0283 30.378 52.3505 31.3434 52.0014 31.4871C52.0014 31.4871 51.7549 31.5693 51.8165 31.3639C51.8781 31.2407 51.6317 31.179 51.4879 31.179C51.2619 31.179 51.0976 31.3639 51.0976 31.5693C51.0976 31.7952 51.2619 31.9595 51.4879 31.9595C51.4879 31.9595 52.4122 32.3293 53.9115 30.2342C53.9321 30.2342 54.9796 28.9608 55.4725 28.7965Z" fill="white"/>
<g opacity="0.2">
<mask id="mask4_78_4294" style="mask-type:luminance" maskUnits="userSpaceOnUse" x="40" y="23" width="24" height="10">
<path d="M40.5198 23.6611H63.2159V32.4315H40.5198V23.6611Z" fill="white"/>
</mask>
<g mask="url(#mask4_78_4294)">
<mask id="mask5_78_4294" style="mask-type:luminance" maskUnits="userSpaceOnUse" x="40" y="23" width="24" height="10">
<path d="M40.5198 23.6611H63.2159V32.4315H40.5198V23.6611Z" fill="white"/>
</mask>
<g mask="url(#mask5_78_4294)">
<path d="M53.2542 25.3662L45.3054 29.9054C43.8266 28.2006 43.2104 28.5703 43.2104 28.5703C43.005 28.5703 42.7996 28.7346 42.7996 28.94C42.7996 29.166 42.9434 29.3508 43.1693 29.3714C43.2926 29.3714 43.498 29.3303 43.4774 29.2071C43.4569 29.0017 43.6623 29.0427 43.6623 29.0427C44.1347 29.2276 45.1206 30.5627 45.1206 30.5627C46.5173 32.7604 47.4415 32.4112 47.4415 32.4112C47.6469 32.4112 47.8523 32.2469 47.8523 32.0415C47.8729 31.8361 47.7086 31.6307 47.4826 31.6307C47.3388 31.6307 47.0924 31.6718 47.1334 31.795C47.2156 32.021 46.9486 31.9183 46.9486 31.9183C46.5994 31.7334 45.9832 30.7475 45.9832 30.7475L53.5007 26.9272C59.7446 23.6203 63.1953 25.4073 63.1953 25.4073C60.4841 21.5048 53.2542 25.3662 53.2542 25.3662ZM40.6841 31.2199C40.4992 31.1994 40.5198 31.3842 40.5198 31.3842C41.5262 33.2944 45.2027 31.1378 45.2027 31.1378L44.5249 30.3162C41.9575 32.021 40.6841 31.2199 40.6841 31.2199Z" fill="#0D1721" fill-opacity="0.5"/>
</g>
</g>
</g>
<path d="M52.6792 24.6473L44.9974 29.5973C43.4364 27.9953 42.8408 28.3855 42.8408 28.3855C42.6149 28.3855 42.4506 28.5704 42.4506 28.7758C42.4506 29.0017 42.6354 29.166 42.8408 29.166C42.964 29.166 43.1694 29.1249 43.1489 29.0017C43.1078 28.7963 43.3132 28.8374 43.3132 28.8374C43.8062 29.0017 44.8537 30.2751 44.8537 30.2751C46.353 32.3907 47.2773 32.0005 47.2773 32.0005C47.5032 32.0005 47.6676 31.8156 47.6676 31.6102C47.6676 31.3843 47.5032 31.22 47.2773 31.22C47.1541 31.22 46.9076 31.2816 46.9487 31.4048C47.0308 31.6102 46.7844 31.5281 46.7844 31.5281C46.4147 31.3637 45.7574 30.3984 45.7574 30.3984L53.0489 26.1467C59.108 22.5112 62.6408 24.0928 62.6408 24.0928C59.6831 20.3957 52.6792 24.6473 52.6792 24.6473ZM40.4582 31.1994C40.2528 31.1583 40.2939 31.3637 40.2939 31.3637C41.4236 33.2123 44.9564 30.8503 44.9564 30.8503L44.2375 30.0698C41.7727 31.9183 40.4582 31.1994 40.4582 31.1994Z" fill="white"/>
<g opacity="0.2">
<mask id="mask6_78_4294" style="mask-type:luminance" maskUnits="userSpaceOnUse" x="40" y="4" width="20" height="21">
<path d="M40.5198 4.0459H59.6831V24.2978H40.5198V4.0459Z" fill="white"/>
</mask>
<g mask="url(#mask6_78_4294)">
<mask id="mask7_78_4294" style="mask-type:luminance" maskUnits="userSpaceOnUse" x="40" y="4" width="20" height="21">
<path d="M40.5198 4.0459H59.6831V24.2978H40.5198V4.0459Z" fill="white"/>
</mask>
<g mask="url(#mask7_78_4294)">
<path d="M50.3787 4.12848C50.3787 4.12848 51.036 4.66251 51.1387 5.91541C51.1387 5.91541 52.6175 4.53927 54.1374 5.73056C54.1374 5.73056 53.1515 5.58678 52.638 6.4289C52.638 6.4289 57.3416 6.10027 59.6831 10.2698C59.6831 10.2698 56.9513 8.09259 53.8088 8.42122C53.8088 8.42122 58.5328 10.126 59.2106 15.4252C59.2106 15.4252 56.6227 11.153 53.5623 10.3519C53.5623 10.3519 56.7459 13.7615 55.9243 18.0131C55.9243 18.0131 54.5893 13.4123 52.4326 11.687C52.4326 11.687 53.7061 15.7743 52.2478 18.7936C52.2478 18.7936 52.3299 15.5073 50.8922 12.3032L50.3992 15.0144L50.81 15.0349L50.3582 17.8283L50.6868 17.8488L50.2349 20.7243L50.4814 20.7449L50.0706 23.5382L51.1592 24.3393L49.7625 24.2982H49.5777L48.181 24.2571L49.3312 23.5382L49.1052 20.7449H49.3517L49.0847 17.8488H49.3928L49.1258 15.0349H49.5366L49.2285 12.3032C47.5648 15.4457 47.4621 18.7115 47.4621 18.7115C46.2092 15.5895 47.7291 11.6048 47.7291 11.6048C45.4698 13.1864 43.8472 17.705 43.8472 17.705C43.3131 13.4123 46.7021 10.1876 46.7021 10.1876C43.6007 10.8038 40.7457 14.8911 40.7457 14.8911C41.7521 9.65358 46.5789 8.23636 46.5789 8.23636C43.4774 7.70234 40.6019 9.7152 40.6019 9.7152C43.2104 5.71002 47.8934 6.3262 47.8934 6.3262C47.4416 5.46354 46.4351 5.52516 46.4351 5.52516C48.0372 4.43657 49.4339 5.89487 49.4339 5.89487C49.5982 4.66251 50.2965 4.16956 50.2965 4.16956L50.3787 4.0874V4.12848Z" fill="#0D1721" fill-opacity="0.5"/>
</g>
</g>
</g>
<path d="M49.5572 2.83411C49.5572 2.83411 50.235 3.38868 50.3582 4.7032C50.3582 4.7032 51.7959 3.18328 53.3569 4.39511C53.3569 4.39511 52.3505 4.29241 51.8781 5.19614C51.8781 5.19614 56.5611 4.7032 59.0464 9.03702C59.0464 9.03702 56.253 6.81876 53.1105 7.29116C53.1105 7.29116 57.8756 8.95486 58.7177 14.5621C58.7177 14.5621 55.986 10.1051 52.9051 9.36565C52.9051 9.36565 56.1914 12.8984 55.5136 17.4376C55.5136 17.4376 54.0347 12.5903 51.8165 10.8239C51.8165 10.8239 53.2132 15.1167 51.8576 18.3825C51.8576 18.3825 51.8576 14.8907 50.276 11.5223L49.8858 14.3978H50.276L49.9269 17.376H50.2555L49.9063 20.4569H50.1323L49.8036 23.4351L50.9333 24.2362H49.5161H49.3312H47.9345L49.0642 23.4351L48.7561 20.4569H49.0026L48.6329 17.376H48.9615L48.6123 14.3978H49.0026L48.6123 11.5223C47.0513 14.9113 47.0513 18.3825 47.0513 18.3825C45.6957 15.0961 47.0924 10.8034 47.0924 10.8034C44.8947 12.5698 43.4159 17.4171 43.4159 17.4171C42.7381 12.8779 46.0244 9.34511 46.0244 9.34511C42.9435 10.0845 40.2117 14.5416 40.2117 14.5416C41.0744 8.91378 45.8395 7.27063 45.8395 7.27063C42.697 6.81876 39.9036 9.03702 39.9036 9.03702C42.3889 4.68266 47.0719 5.19614 47.0719 5.19614C46.5995 4.29241 45.5725 4.39511 45.5725 4.39511C47.154 3.18328 48.5918 4.7032 48.5918 4.7032C48.715 3.38868 49.3928 2.83411 49.3928 2.83411L49.475 2.75195L49.5572 2.83411Z" fill="white"/>
<mask id="mask8_78_4294" style="mask-type:luminance" maskUnits="userSpaceOnUse" x="21" y="8" width="57" height="45">
<path d="M30.5582 9.34565C28.7713 10.8039 22.7943 16.4523 21.3771 28.0776C21.2744 28.9813 21.2128 29.9056 21.2128 30.8299C21.2128 41.6542 28.6891 50.4039 31.6673 52.0471C35.5287 54.2037 39.0821 50.2396 39.3696 49.911C40.3966 49.0278 48.674 41.7158 48.674 37.4641C48.674 36.9301 48.5507 36.4166 48.2837 36.0058C47.2157 34.26 45.552 33.9724 43.6213 33.6232C40.9512 33.1714 37.6443 32.5757 33.9267 27.9749C31.5646 25.0583 30.3733 21.4228 30.3733 17.1917C30.3733 14.7064 30.7841 12.5909 31.1538 11.2353L32.0781 8.15436L30.5582 9.34565ZM67.1595 10.0029C67.4265 10.8039 68.2891 13.6795 68.2891 17.2328C68.2891 21.4639 67.0978 25.0788 64.7358 27.9954C61.0182 32.5963 57.6908 33.1919 55.0412 33.6438C53.1105 33.993 51.4673 34.2805 50.3993 36.0264C50.1323 36.4371 50.009 36.9301 50.009 37.4641C50.009 41.839 58.1632 48.9867 59.2929 49.9521C60.7101 51.5747 63.8937 53.834 66.9951 52.0882C69.9734 50.445 77.4497 41.6952 77.4497 30.871C77.4497 29.9467 77.3881 29.0224 77.2854 28.1187C75.8887 16.4934 69.8912 10.845 68.0837 9.38673L66.5022 8.11328L67.1595 10.0029Z" fill="white"/>
</mask>
<g mask="url(#mask8_78_4294)">
<path d="M21.2128 8.07178H77.4703V54.2239H21.2128V8.07178Z" fill="url(#paint2_radial_78_4294)" fill-opacity="0.4"/>
</g>
<mask id="mask9_78_4294" style="mask-type:luminance" maskUnits="userSpaceOnUse" x="21" y="9" width="56" height="44">
<path d="M21.9727 28.1596C21.87 29.0839 21.8084 29.9671 21.8084 30.8503C21.8084 41.2432 28.915 49.8492 31.9549 51.554C35.5287 53.5463 38.9177 49.5617 38.9383 49.5206C39.0615 49.4179 48.0578 41.6745 48.0578 37.4845C48.0578 37.0532 47.9756 36.6835 47.7702 36.3343C46.846 34.8144 45.3877 34.5679 43.5186 34.2393C40.7458 33.7463 37.3157 33.1507 33.4543 28.365C30.5582 24.7911 29.7572 20.6422 29.7572 17.1916C29.7572 14.6241 30.1885 12.4264 30.5377 11.0913C30.5377 11.0913 30.7636 10.2903 30.9074 9.79736C29.2231 11.2146 23.3694 16.7191 21.9727 28.1596ZM68.9053 17.2326C68.9053 20.7038 68.1043 24.8117 65.2082 28.365C61.3468 33.1507 57.9167 33.7463 55.1644 34.2393C53.2953 34.5679 51.837 34.8144 50.9128 36.3343C48.674 39.9903 59.6215 49.3974 59.7242 49.5001C59.7653 49.5411 63.1543 53.5258 66.7281 51.5335C69.7885 49.8287 76.8746 41.2227 76.8746 30.8297C76.8746 29.9465 76.813 29.0633 76.7103 28.1391C75.3136 16.6986 69.4599 11.194 67.7346 9.79736C68.0426 10.7216 68.9053 13.6177 68.9053 17.2326Z" fill="white"/>
</mask>
<g mask="url(#mask9_78_4294)">
<path d="M21.8083 9.81787H76.8745V53.5463H21.8083V9.81787Z" fill="url(#paint3_radial_78_4294)" fill-opacity="0.03"/>
</g>
<path d="M38.8767 36.3135H59.7447V49.8284H38.8767V36.3135Z" fill="white"/>
<mask id="mask10_78_4294" style="mask-type:luminance" maskUnits="userSpaceOnUse" x="21" y="20" width="56" height="32">
<path d="M30.3117 45.125C32.5095 45.8234 35.3028 46.152 38.6713 45.5564V47.1174C38.3221 47.3844 37.3568 48.0827 36.0217 48.5962C35.8163 48.6168 35.6314 48.6168 35.4466 48.6168C32.1397 48.6373 30.6198 45.8028 30.3117 45.125ZM68.3918 45.125C68.0632 45.8234 66.3995 48.9454 62.6819 48.5962C61.2646 48.0416 60.2788 47.3022 59.9707 47.0763V45.5769C61.203 45.8028 62.3532 45.885 63.4213 45.885C65.3314 45.885 66.9746 45.5769 68.3918 45.125ZM53.624 43.9338C56.7049 44.9197 58.9848 46.645 59.6215 47.179V49.6643H39.041V47.2201C39.5956 46.7477 41.896 44.9813 45.0385 43.9543C45.285 44.7553 46.0655 46.0699 48.5507 46.0699C49.0437 46.0904 50.1323 46.1109 50.4609 46.0699C52.4943 45.9466 53.3159 44.6937 53.624 43.9338ZM33.2283 45.4742C29.6545 44.1597 29.3053 40.7912 29.2642 39.9286C31.6263 40.9555 34.7072 41.6539 38.6713 41.5717V45.4331C37.6443 45.618 36.679 45.7002 35.7547 45.7002C34.8715 45.7002 34.0088 45.618 33.2283 45.4742ZM69.4599 39.9286C69.4393 40.8118 69.0696 44.1597 65.5163 45.4742C63.8731 45.7618 62.0246 45.7823 59.9912 45.4126V41.5717C60.2171 41.5717 60.4431 41.5717 60.6485 41.5717C64.325 41.5923 67.2211 40.8939 69.4599 39.9286ZM53.624 43.9338C53.7472 43.6051 53.8088 43.3792 53.8088 43.3792C54.0964 41.5101 57.1978 39.7026 59.6215 38.5524V46.8093C55.8833 44.2624 53.9526 43.9748 53.624 43.9338ZM39.041 38.5319C41.5057 39.6821 44.6277 41.4896 44.9358 43.3792C44.9358 43.3792 44.9563 43.6051 45.0385 43.9338C44.5661 43.9954 42.6148 44.3856 39.041 46.8709V38.5319ZM48.4891 45.9261C43.4159 44.9813 48.7972 42.3317 39.0205 38.0389V36.4985H59.6009V38.08C50.0501 42.3111 55.1234 44.9402 50.3993 45.9055C50.3993 45.9055 50.3787 45.9055 50.3582 45.9055C50.2555 45.9261 50.1528 45.9466 50.0296 45.9672C49.8447 45.9877 49.5982 46.0082 49.3107 46.0082C49.0848 46.0082 48.7972 45.9877 48.4891 45.9261ZM33.3105 40.668C28.4837 38.84 28.7097 34.3624 28.8534 33.2943C30.6404 34.7526 32.9819 36.1493 36.0833 37.2995C36.0833 37.2995 37.2335 37.7103 38.6918 38.3676V41.4074C36.6584 41.3458 34.892 41.0788 33.3105 40.668ZM59.9707 38.3881C61.47 37.7103 62.6408 37.2995 62.6408 37.2995C65.7217 36.1493 68.0837 34.7526 69.8707 33.2943C69.9939 34.3419 70.2198 38.84 65.3931 40.668C63.8115 41.0788 62.0041 41.3458 59.9707 41.4074V38.3881ZM67.2005 34.4446C71.4727 29.9053 68.0837 22.4906 68.0837 22.4906L67.94 23.0452C67.94 23.0452 71.2468 30.3161 66.6665 34.7937C65.3314 35.6358 63.8115 36.3958 62.0246 37.0736C61.2646 37.3406 60.5868 37.6282 59.9707 37.8952V36.1493H38.6713V37.8952C38.0551 37.6282 37.3978 37.3612 36.679 37.0941C34.892 36.4163 33.3516 35.6564 32.037 34.8143C27.4568 30.3367 30.7636 23.0657 30.7636 23.0657L30.6198 22.5111C30.6198 22.5111 27.2514 29.9259 31.503 34.4651C22.7738 28.6319 23.9651 20.0259 23.9651 20.0259L23.431 21.402C23.431 21.402 22.2603 27.6049 28.4426 32.9657C28.2989 34.157 28.0319 38.9016 33.0846 40.6064C23.5748 38.0184 21.7468 30.1929 21.7468 30.1929L21.7879 32.5344C21.7879 32.5344 23.164 37.0325 28.7713 39.7026C28.8124 40.668 29.2437 44.057 32.7354 45.3921C26.6352 44.1392 23.3489 39.4151 23.3489 39.4151C23.3489 39.4151 23.5953 40.2367 23.9034 41.0377C23.9034 41.0377 25.752 43.4408 29.5107 44.858C30.1063 45.885 32.3862 49.3767 35.7341 48.7194C33.6186 49.4999 30.6814 49.8286 27.8059 47.5898L28.4837 48.4935C28.4837 48.4935 29.7777 49.6848 31.9549 49.9107C32.6943 50.6912 34.7483 52.4782 37.2746 51.0404C34.7072 51.9441 33.3926 50.6296 32.8997 49.9518C34.5018 49.9107 36.453 49.2945 38.6713 47.5282V50.034H59.9707V47.4871C62.1889 49.3151 64.1812 49.9313 65.8039 49.9724C65.3109 50.6502 63.9964 51.9647 61.4495 51.0609C63.9553 52.4987 66.0298 50.7118 66.7692 49.9313C68.9464 49.7053 70.2404 48.5141 70.2404 48.5141L70.9182 47.6103C68.0426 49.8491 65.126 49.5205 62.99 48.74C66.3584 49.4178 68.6383 45.9261 69.2134 44.8786C72.9721 43.4614 74.8412 41.0582 74.8412 41.0582C75.1287 40.2572 75.3958 39.4356 75.3958 39.4356C75.3958 39.4356 72.1095 44.1392 66.0092 45.4126C69.5009 44.0775 69.9117 40.6885 69.9734 39.7232C75.5806 37.0531 76.9568 32.5549 76.9568 32.5549L76.9978 30.2134C76.9978 30.2134 75.1698 38.0389 65.6601 40.6269C70.6922 38.9221 70.4458 34.1775 70.302 32.9863C76.4844 27.6255 75.3136 21.4226 75.3136 21.4226L74.7796 20.0464C74.759 20.0259 75.9298 28.6319 67.2005 34.4446Z" fill="white"/>
</mask>
<g mask="url(#mask10_78_4294)">
<path d="M21.7468 20.0259H76.9773V52.4782H21.7468V20.0259Z" fill="url(#paint4_radial_78_4294)" fill-opacity="0.7"/>
</g>
<path d="M4.57584 80.2067C2.33704 80.2067 0.550113 78.3787 0.550113 76.1399C0.550113 75.7291 0.529574 75.154 0.488495 74.2503H2.48082C2.50136 75.1745 2.50136 75.7702 2.50136 76.1399C2.5219 77.5777 3.71318 78.2555 4.53476 78.2555C5.47957 78.2555 6.65032 77.5777 6.5887 76.1194V76.0167H3.61049C3.34347 73.326 4.26775 71.7034 6.1163 71.6007C7.73891 71.498 8.31401 72.8741 8.33455 72.9152L6.85571 73.6752C6.7941 73.4287 6.50654 73.2028 6.21899 73.2438C5.68497 73.3465 5.62335 73.7368 5.54119 74.2297H8.56049L8.60157 76.1194C8.66318 78.3787 6.81464 80.2067 4.57584 80.2067ZM2.58352 81.3364H4.30883V83.0001H2.58352V81.3364ZM5.00717 81.3364H6.73248V83.0001H5.00717V81.3364Z" fill="#0D1721" fill-opacity="0.3"/>
<path d="M10.3269 77.0845L11.2922 75.2976H15.1126C14.9482 74.0241 13.8391 73.3669 13.1613 73.3669V71.6621C15.7904 71.6621 17.2692 73.5312 17.2692 77.0229V77.0845H10.3269Z" fill="#0D1721" fill-opacity="0.3"/>
<path d="M24.4374 77.0845C23.924 78.7482 22.5478 79.9806 20.5966 80.1449C20.0215 79.5082 19.8777 79.2822 19.241 78.625C20.2885 78.5634 21.6852 77.9677 22.3013 77.1051H21.5825C20.042 77.1051 19.0767 75.7289 19.0767 74.4555C19.0767 72.2783 20.8225 71.6621 21.9111 71.6621C22.2192 71.6621 24.4991 71.8059 24.6428 73.942C24.6428 74.0036 24.6428 74.2912 24.6634 75.3181H26.3476V77.1051H24.4374V77.0845ZM22.6505 74.1268C22.6505 73.6134 22.5684 73.0793 21.8906 73.0793C21.2744 73.0793 20.9457 73.675 20.9457 74.2295C20.9457 74.7636 21.2333 75.277 21.8289 75.277H22.6505V74.1268Z" fill="#0D1721" fill-opacity="0.3"/>
<path d="M33.2283 77.0842C32.5505 77.0842 32.0165 76.735 31.729 76.5091C30.969 76.8582 30.1474 77.0842 29.3259 77.0842H26.0806V75.2972H29.3053C29.7983 75.2972 30.1064 75.2767 30.5377 75.1535C29.7983 74.3524 28.9561 73.7157 27.58 73.6335V72.2163C30.3323 70.3472 33.8445 70.9018 35.7547 72.6682C35.2207 73.6335 34.4813 74.5373 33.5775 75.2972H36.8227V77.0842H33.2283ZM30.4966 72.9147C31.1333 73.2228 31.729 73.7362 32.1603 74.2292C32.5505 73.9211 32.8997 73.5719 33.1873 73.1817C32.6327 72.9147 31.5647 72.6477 30.4966 72.9147Z" fill="#0D1721" fill-opacity="0.3"/>
<path d="M49.1464 77.0846C48.4891 77.0846 48.0373 76.7149 47.7702 76.4068C47.38 76.9408 46.7227 77.1873 45.9628 77.2078C45.3671 77.2078 44.6277 77.0846 44.0526 76.3863C43.6213 76.9408 42.9846 77.1873 42.2246 77.2078C41.7727 77.2078 41.2593 77.1257 40.7868 76.8381V77.0846H36.5352V75.2977H38.7945L38.7534 72.0524H40.7663C40.7663 73.2437 40.7458 73.4081 40.7663 74.1475C40.7868 75.0512 41.3003 75.3798 41.8549 75.3798C42.2657 75.3798 42.4916 75.2155 42.4916 74.702C42.4916 73.8394 42.4711 72.874 42.4505 72.0114H44.4429C44.4634 72.833 44.4839 74.1269 44.4839 74.1269C44.4839 75.0307 45.018 75.3593 45.5725 75.3593C45.9628 75.3593 46.2093 75.195 46.2093 74.6815C46.2093 73.3259 46.2093 73.2027 46.1682 71.6006L48.181 71.6211C48.181 72.833 48.181 73.2232 48.2016 73.9832V74.0037C48.2427 74.9074 48.8794 75.2771 49.2285 75.2771H50.4609V77.0641H49.1464V77.0846Z" fill="#0D1721" fill-opacity="0.3"/>
<path d="M52.5354 77.0846H50.276V75.2977H51.9808C52.4121 75.2977 52.7202 75.0923 52.7202 74.6199C52.7202 73.6134 52.6791 68.7867 52.6586 67.8008H54.6715C54.692 69.4439 54.7125 73.6751 54.7125 75.0717C54.7125 76.3041 53.9526 77.0846 52.5354 77.0846Z" fill="#0D1721" fill-opacity="0.3"/>
<path d="M56.6433 77.0846L56.5611 67.8213H58.5535L58.6356 77.0846H56.6433Z" fill="#0D1721" fill-opacity="0.3"/>
<path d="M63.4829 77.0845L64.4483 75.2976H68.2686C68.1043 74.0241 66.9951 73.3669 66.3173 73.3669V71.6621C68.474 71.6621 69.8501 72.915 70.2815 75.2976H71.863V77.0845H63.4829Z" fill="#0D1721" fill-opacity="0.3"/>
<path d="M73.8553 77.0845H71.5959V75.2976H73.3007C73.732 75.2976 74.0196 75.0922 74.0196 74.6198C74.0196 73.6134 73.9991 72.6275 73.9991 71.6621H75.9914C76.0119 73.2847 76.0325 73.6955 76.0325 75.0922C76.0325 76.304 75.2725 77.0845 73.8553 77.0845ZM71.6781 78.2142H73.4034V79.8779H71.6781V78.2142ZM74.1223 78.2142H75.8271V79.8779H74.1223V78.2142Z" fill="#0D1721" fill-opacity="0.3"/>
<path d="M82.0916 77.0841C81.7013 77.0841 81.3522 76.9608 81.1262 76.776C80.736 78.6656 79.2777 79.9596 77.1416 80.1239C76.5459 79.4872 76.4432 79.2818 75.8065 78.604C77.2854 78.4807 79.2161 77.4948 79.1955 75.8517L79.1544 71.6411H81.1673L81.1878 74.0648C81.2084 74.9274 81.8656 75.2971 82.2148 75.2971H83.591V77.0841H82.0916Z" fill="#0D1721" fill-opacity="0.3"/>
<path d="M88.7875 77.0841C88.007 77.0841 87.5346 76.5911 87.3086 76.2419C86.8978 76.7965 86.22 77.0841 85.5422 77.0841C84.7412 77.1046 84.1045 77.0841 83.3034 77.0841V75.2971H84.9671C85.3574 75.2971 85.8709 75.0712 85.8709 74.5783L85.8503 71.6411H87.8426C87.8632 72.4216 87.8632 73.2637 87.8632 74.0237C87.8837 74.9274 88.541 75.2971 88.8696 75.2971H90.2252V77.0841H88.7875ZM86.0352 78.2137H87.7605V79.8774H86.0352V78.2137Z" fill="#0D1721" fill-opacity="0.3"/>
<path d="M92.2586 77.0846H89.9993V75.2977H91.7041C92.1354 75.2977 92.423 75.0923 92.423 74.6199C92.423 73.6134 92.3819 68.7867 92.3613 67.8008H94.3742C94.3947 69.4439 94.4153 73.6751 94.4153 75.0717C94.4358 76.3041 93.6759 77.0846 92.2586 77.0846Z" fill="#0D1721" fill-opacity="0.3"/>
<path d="M96.3665 77.0846L96.2844 67.8213H98.2972L98.3588 77.0846H96.3665Z" fill="#0D1721" fill-opacity="0.3"/>
<path d="M2.56299 96.3504C3.26133 96.679 4.34992 97.0076 5.47958 97.0076C6.69141 97.0076 7.32813 96.5352 7.32813 95.8369C7.32813 95.1796 6.77357 94.7894 5.37689 94.3375C3.44618 93.7008 2.17274 92.7149 2.17274 91.1333C2.17274 89.3053 3.83643 87.9292 6.56817 87.9292C7.90323 87.9292 8.84805 88.1757 9.52585 88.4632L8.95075 90.4145C8.49888 90.2091 7.65676 89.901 6.52709 89.901C5.39743 89.901 4.84286 90.3939 4.84286 90.928C4.84286 91.6058 5.47958 91.9138 6.9995 92.4684C9.05344 93.1668 9.99826 94.1526 9.99826 95.6726C9.99826 97.48 8.51942 98.9999 5.31527 98.9999C3.98021 98.9999 2.68622 98.6713 2.02896 98.3221L2.56299 96.3504Z" fill="#0D1721" fill-opacity="0.3"/>
<path d="M20.5966 96.9464C20.5966 97.6858 20.6377 98.3841 20.7404 98.8155H18.3783L18.214 98.035H18.1524C17.5978 98.6511 16.7352 99.0003 15.7288 99.0003C14.0445 99.0003 13.0175 97.8501 13.0175 96.6177C13.0175 94.5843 14.9893 93.6395 17.9675 93.6395V93.5368C17.9675 93.126 17.7211 92.5304 16.4271 92.5304C15.5644 92.5304 14.6402 92.7974 14.1061 93.1055L13.6337 91.565C14.2088 91.2569 15.3796 90.8667 16.92 90.8667C19.7339 90.8667 20.6171 92.3866 20.6171 94.2352V96.9464H20.5966ZM18.0497 95.1389C16.6736 95.1389 15.6055 95.447 15.6055 96.3713C15.6055 96.9875 16.0574 97.2955 16.6325 97.2955C17.2692 97.2955 17.8238 96.8847 17.9881 96.3918C18.0292 96.2686 18.0497 96.1248 18.0497 95.981V95.1389Z" fill="#0D1721" fill-opacity="0.3"/>
<path d="M32.3451 96.3299C32.3451 97.3569 32.3862 98.1785 32.4067 98.8357H30.1269L30.0036 97.7471H29.9625C29.6339 98.2196 28.8329 99.0206 27.3335 99.0206C25.6082 99.0206 24.3553 98.0347 24.3553 95.6316V91.0513H26.9843V95.2413C26.9843 96.371 27.3746 97.0488 28.3194 97.0488C29.0383 97.0488 29.4696 96.5969 29.6339 96.2067C29.6955 96.0629 29.7366 95.8986 29.7366 95.6727V91.0308H32.3657V96.3299H32.3451Z" fill="#0D1721" fill-opacity="0.3"/>
<path d="M44.3402 87.5181V96.5143C44.3402 97.3975 44.3607 98.3218 44.4018 98.8353H42.0808L41.9781 97.7056H41.9371C41.4236 98.5683 40.3761 99.0201 39.308 99.0201C37.3157 99.0201 35.6931 97.4386 35.6931 95.015C35.6725 92.4064 37.4595 90.8865 39.4723 90.8865C40.5198 90.8865 41.3209 91.2357 41.6906 91.7697H41.7317V87.5386H44.3402V87.5181ZM41.7317 94.3577C41.7317 94.2139 41.7317 94.0496 41.6906 93.9058C41.5263 93.2486 40.9717 92.7145 40.1501 92.7145C38.9383 92.7145 38.3427 93.7004 38.3427 94.9328C38.3427 96.2268 39.0615 97.0689 40.1296 97.0689C40.8896 97.0689 41.5057 96.5965 41.67 95.8981C41.7111 95.7338 41.7317 95.549 41.7317 95.3436V94.3577Z" fill="#0D1721" fill-opacity="0.3"/>
<path d="M49.475 90.0245C48.5918 90.0245 48.0372 89.4494 48.0372 88.7305C48.0372 88.0116 48.6329 87.4365 49.5161 87.4365C50.4198 87.4365 50.9538 87.9911 50.9744 88.7305C50.9744 89.4494 50.3993 90.0245 49.475 90.0245ZM48.181 91.0309H50.8101V98.8154H48.181V91.0309Z" fill="#0D1721" fill-opacity="0.3"/>
<path d="M59.9091 88.2377C60.7101 88.1144 61.8603 88.0117 63.4624 88.0117C65.085 88.0117 66.2557 88.2993 67.0362 88.8949C67.7757 89.4289 68.2686 90.3121 68.2686 91.3596C68.2686 92.4277 67.8989 93.3314 67.2211 93.9065C66.3174 94.6665 64.9823 95.0362 63.4213 95.0362C63.0721 95.0362 62.7846 95.0157 62.5176 94.9746V98.8155H59.9091V88.2377ZM62.5176 93.1055C62.7435 93.1466 63.0105 93.1671 63.4008 93.1671C64.7974 93.1671 65.6601 92.5099 65.6601 91.4213C65.6601 90.4354 64.9412 89.8397 63.6062 89.8397C63.0721 89.8397 62.7024 89.8603 62.5176 89.9219V93.1055Z" fill="#0D1721" fill-opacity="0.3"/>
<path d="M75.0055 98.9999C72.5408 98.9999 70.6512 97.5005 70.6512 94.9741C70.6512 92.4478 72.4381 90.8457 75.1699 90.8457C77.7373 90.8457 79.4626 92.4889 79.4626 94.8509C79.4626 97.6853 77.2649 98.9999 75.0055 98.9999ZM75.0672 97.254C76.0941 97.254 76.7309 96.3092 76.7309 94.9125C76.7309 93.7623 76.2379 92.5916 75.0672 92.5916C73.8348 92.5916 73.3418 93.7623 73.3418 94.9331C73.3418 96.2681 73.9375 97.254 75.0672 97.254Z" fill="#0D1721" fill-opacity="0.3"/>
<path d="M82.7899 96.7204C83.2829 96.9874 84.2688 97.2955 85.0493 97.2955C85.8503 97.2955 86.1789 97.0491 86.1789 96.6588C86.1789 96.248 85.9119 96.0426 84.9671 95.7551C83.2007 95.2211 82.5435 94.3379 82.5435 93.4341C82.5435 91.9758 83.8991 90.8667 85.9736 90.8667C86.9594 90.8667 87.8221 91.0926 88.3356 91.3186L87.8837 92.9823C87.4935 92.7974 86.7541 92.5509 86.0557 92.5509C85.419 92.5509 85.0493 92.7769 85.0493 93.1671C85.0493 93.5368 85.3779 93.7422 86.4049 94.0709C88.007 94.5638 88.6642 95.3238 88.6848 96.474C88.6848 97.9323 87.4729 99.0003 85.0493 99.0003C83.9402 99.0003 82.9748 98.7538 82.3381 98.4457L82.7899 96.7204Z" fill="#0D1721" fill-opacity="0.3"/>
<path d="M94.9493 88.915V91.0306H96.8184V92.8175H94.9493V95.652C94.9493 96.5968 95.2163 97.0281 95.9763 97.0281C96.346 97.0281 96.5103 97.0076 96.7568 96.9665L96.7773 98.7945C96.4487 98.9177 95.8119 98.9999 95.0931 98.9999C94.251 98.9999 93.5321 98.7329 93.1007 98.3221C92.6283 97.8702 92.3819 97.1103 92.3819 96.0217V92.8175H91.2727V91.0306H92.3819V89.5723L94.9493 88.915Z" fill="#0D1721" fill-opacity="0.3"/>
</g>
<defs>
<linearGradient id="paint0_linear_78_4294" x1="64.5887" y1="4.05918" x2="34.2483" y2="56.6103" gradientUnits="userSpaceOnUse">
<stop stop-color="#0D1721" stop-opacity="0.2"/>
<stop offset="0.198" stop-color="#0D1721" stop-opacity="0.3"/>
<stop offset="0.589" stop-color="#0D1721" stop-opacity="0.4"/>
<stop offset="1" stop-color="#0D1721" stop-opacity="0.5"/>
</linearGradient>
<radialGradient id="paint1_radial_78_4294" cx="0" cy="0" r="1" gradientUnits="userSpaceOnUse" gradientTransform="translate(49.1664 35.3816) scale(34.7315)">
<stop stop-color="#0D1721" stop-opacity="0.2"/>
<stop offset="0.198" stop-color="#0D1721" stop-opacity="0.3"/>
<stop offset="0.589" stop-color="#0D1721" stop-opacity="0.4"/>
<stop offset="1" stop-color="#0D1721" stop-opacity="0.5"/>
</radialGradient>
<radialGradient id="paint2_radial_78_4294" cx="0" cy="0" r="1" gradientUnits="userSpaceOnUse" gradientTransform="translate(49.3421 30.3811) scale(25.3888 25.3888)">
<stop stop-color="#0D1721" stop-opacity="0.2"/>
<stop offset="0.274" stop-color="#0D1721" stop-opacity="0.3"/>
<stop offset="0.861" stop-color="#0D1721" stop-opacity="0.4"/>
<stop offset="1" stop-color="#0D1721" stop-opacity="0.5"/>
</radialGradient>
<radialGradient id="paint3_radial_78_4294" cx="0" cy="0" r="1" gradientUnits="userSpaceOnUse" gradientTransform="translate(49.3422 30.9616) scale(24.5478 24.5479)">
<stop stop-color="#0D1721" stop-opacity="0.2"/>
<stop offset="0.162" stop-color="#0D1721" stop-opacity="0.3"/>
<stop offset="0.39" stop-color="#0D1721" stop-opacity="0.4"/>
<stop offset="0.658" stop-color="#0D1721" stop-opacity="0.5"/>
<stop offset="0.953" stop-color="#0D1721" stop-opacity="0.6"/>
<stop offset="1" stop-color="#0D1721" stop-opacity="0.7"/>
</radialGradient>
<radialGradient id="paint4_radial_78_4294" cx="0" cy="0" r="1" gradientUnits="userSpaceOnUse" gradientTransform="translate(49.3556 35.7958) scale(22.4942 22.4942)">
<stop stop-color="#0D1721" stop-opacity="0.3"/>
<stop offset="0.274" stop-color="#0D1721" stop-opacity="0.4"/>
<stop offset="0.861" stop-color="#0D1721" stop-opacity="0.5"/>
<stop offset="1" stop-color="#0D1721" stop-opacity="0.5"/>
</radialGradient>
<clipPath id="clip0_78_4294">
<rect width="97.8703" height="99" fill="white" transform="translate(0.488403)"/>
</clipPath>
</defs>
</svg>
