<svg width="24" height="24" viewBox="0 0 24 24" fill="none" xmlns="http://www.w3.org/2000/svg">
<path d="M7 7.13193V6.61204C7 4.46614 7 3.3932 7.6896 2.79511C8.37919 2.19703 9.44136 2.34877 11.5657 2.65224L15.8485 3.26408C18.3047 3.61495 19.5327 3.79039 20.2664 4.63628C21 5.48217 21 6.72271 21 9.20377V14.7962C21 17.2773 21 18.5178 20.2664 19.3637C19.5327 20.2096 18.3047 20.385 15.8485 20.7359L11.5657 21.3478C9.44136 21.6512 8.37919 21.803 7.6896 21.2049C7 20.6068 7 19.5339 7 17.388V17.066" stroke="white" stroke-width="1.7"/>
<path d="M16 12L16.6637 11.469L17.0885 12L16.6637 12.531L16 12ZM4 12.85C3.53056 12.85 3.15 12.4694 3.15 12C3.15 11.5306 3.53056 11.15 4 11.15V12.85ZM12.6637 6.46901L16.6637 11.469L15.3363 12.531L11.3363 7.53099L12.6637 6.46901ZM16.6637 12.531L12.6637 17.531L11.3363 16.469L15.3363 11.469L16.6637 12.531ZM16 12.85H4V11.15H16V12.85Z" fill="white"/>
</svg>
