<svg width="45" height="45" viewBox="0 0 45 45" fill="none" xmlns="http://www.w3.org/2000/svg">
<path d="M30.6853 12.0287C27.1415 12.0287 25.6438 13.7197 23.1759 13.7197C20.6455 13.7197 18.7154 12.041 15.6445 12.041C12.6387 12.041 9.4333 13.8761 7.39775 17.0024C4.53955 21.411 5.02471 29.714 9.6539 36.7875C11.3098 39.3196 13.5211 42.1593 16.4215 42.1901H16.4742C18.9949 42.1901 19.7437 40.5395 23.2128 40.5202H23.2655C26.6827 40.5202 27.3683 42.1804 29.8784 42.1804H29.9312C32.8315 42.1497 35.1615 39.0032 36.8174 36.4807C38.0092 34.6667 38.4521 33.7561 39.3662 31.7039C32.6698 29.1621 31.594 19.669 38.2166 16.0295C36.1951 13.4982 33.3545 12.0322 30.6765 12.0322L30.6853 12.0287Z" fill="#F8F8F8"/>
<path d="M29.9048 2.8125C27.7954 2.95576 25.3345 4.29873 23.8931 6.05215C22.5852 7.64121 21.5095 9.99844 21.9313 12.2845H22.1001C24.3466 12.2845 26.6458 10.9318 27.9888 9.19863C29.2825 7.54893 30.2634 5.21104 29.9048 2.8125Z" fill="#F8F8F8"/>
</svg>
