<svg width="45" height="46" viewBox="0 0 45 46" fill="none" xmlns="http://www.w3.org/2000/svg">
<path d="M30.6853 12.5287C27.1415 12.5287 25.6438 14.2197 23.1759 14.2197C20.6455 14.2197 18.7154 12.541 15.6445 12.541C12.6387 12.541 9.4333 14.3761 7.39775 17.5024C4.53955 21.911 5.02471 30.214 9.6539 37.2875C11.3098 39.8196 13.5211 42.6593 16.4215 42.6901H16.4742C18.9949 42.6901 19.7437 41.0395 23.2128 41.0202H23.2655C26.6827 41.0202 27.3683 42.6804 29.8784 42.6804H29.9312C32.8315 42.6497 35.1615 39.5032 36.8174 36.9807C38.0092 35.1667 38.4521 34.2561 39.3662 32.2039C32.6698 29.6621 31.594 20.169 38.2166 16.5295C36.1951 13.9982 33.3545 12.5322 30.6765 12.5322L30.6853 12.5287Z" fill="#2D2D2D"/>
<path d="M29.9048 3.3125C27.7954 3.45576 25.3345 4.79873 23.893 6.55215C22.5852 8.14121 21.5095 10.4984 21.9313 12.7845H22.1001C24.3466 12.7845 26.6458 11.4318 27.9888 9.69863C29.2825 8.04893 30.2634 5.71104 29.9048 3.3125Z" fill="#2D2D2D"/>
</svg>
