<svg width="544" height="409" viewBox="0 0 544 409" fill="none" xmlns="http://www.w3.org/2000/svg">
<path d="M93.215 387.397C93.215 387.397 25.4731 339.164 5.97652 257.048C-13.5201 174.931 16.2333 75.3771 72.689 25.1226C129.145 -25.1319 230.758 8.7018 275.915 50.7831L321.084 92.8645C321.084 92.8645 364.195 116.429 420.638 114.42C477.082 112.411 527.386 189.355 540.731 249.916C554.076 310.477 522.251 390.522 522.251 390.522L93.215 387.397Z" fill="#500A7A" fill-opacity="0.1"/>
<g style="mix-blend-mode:multiply">
<path d="M62.4323 399.712C62.4323 399.712 15.2164 374.052 2.90078 314.52C-9.41481 254.989 43.9527 200.592 49.0873 170.826C54.2219 141.06 42.8861 104.114 90.1393 75.3276C137.392 46.5416 221.518 56.8976 253.342 49.729C285.167 42.5604 322.089 -6.73912 385.75 4.54706C449.412 15.8333 511.015 49.7166 514.041 123.61C517.067 197.504 493.515 199.562 517.129 239.597C540.743 279.632 549.971 307.339 538.685 348.391C527.398 389.443 503.784 400.717 503.784 400.717L62.4323 399.712Z" fill="#500A7A" fill-opacity="0.2"/>
</g>
<g style="mix-blend-mode:multiply">
<path d="M161.006 386.367C158.079 383.292 114.994 297.07 162.966 218.042C210.939 139.014 331.366 148.241 379.326 179.036C427.286 209.832 450.801 249.867 455.7 291.898C460.599 333.93 428.278 399.663 428.278 399.663L161.006 386.367Z" fill="#500A7A" fill-opacity="0.3"/>
</g>
<path d="M498.774 201.187H443.434C440.009 201.187 437.233 203.963 437.233 207.388V235.021C437.233 238.446 440.009 241.222 443.434 241.222H498.774C502.198 241.222 504.975 238.446 504.975 235.021V207.388C504.975 203.963 502.198 201.187 498.774 201.187Z" fill="#8839B8"/>
<path d="M471.104 256.874L479.872 236.087H462.335L471.104 256.874Z" fill="#8839B8"/>
<path d="M470.893 214.334H486.743V216.653L494.507 212.176L486.743 207.698V210.018H470.893V214.334Z" fill="#F9F9F9"/>
<path d="M494.507 223.437H478.669V221.13L470.893 225.607L478.669 230.085V227.765H494.507V223.437Z" fill="#F9F9F9"/>
<path d="M461.169 227.517L460.425 227.79C458.977 226.099 457.775 224.211 456.853 222.184C456.082 220.106 455.663 217.914 455.613 215.698L456.159 215.462L452.81 207.45C452.158 207.955 451.607 208.577 451.185 209.286C449.288 212.498 449.474 217.409 451.384 222.209C453.294 227.009 455.328 231.3 459.049 233.991C459.814 234.625 460.7 235.096 461.653 235.377C462.606 235.659 463.606 235.744 464.592 235.628L461.169 227.517Z" fill="#F9F9F9"/>
<path d="M463.575 226.575L462.534 226.947L465.969 235.157C466.325 235.04 466.67 234.891 466.998 234.711C467.425 234.478 467.753 234.098 467.92 233.641C468.086 233.185 468.081 232.683 467.904 232.23L466.118 227.728C465.929 227.242 465.557 226.849 465.082 226.633C464.607 226.418 464.066 226.397 463.575 226.575Z" fill="#F9F9F9"/>
<path d="M455.402 205.999C454.938 206.171 454.49 206.383 454.063 206.632L457.486 214.817L458.639 214.346C459.116 214.14 459.496 213.759 459.699 213.281C459.902 212.803 459.913 212.265 459.731 211.779L457.932 207.239C457.758 206.742 457.395 206.333 456.921 206.101C456.448 205.869 455.902 205.833 455.402 205.999Z" fill="#F9F9F9"/>
<path d="M145.008 372.514V280.141C145.008 280.141 143.978 255.249 157.075 248.068C170.172 240.887 225.288 244.732 225.288 244.732V372.477L145.008 372.514Z" fill="#8839B8"/>
<path d="M242.565 158.25C242.565 158.25 239.228 186.23 237.939 188.537L236.698 190.844L230.311 195.209C230.311 195.209 242.627 212.659 257.758 215.475C272.888 218.29 271.623 209.273 271.623 209.273L269.304 204.387L272.392 177.709C272.392 177.709 244.871 165.183 242.565 158.25Z" fill="#FF9D8C"/>
<path d="M222.287 197.516L232.295 193.151C232.295 193.151 238.708 203.668 253.59 209.832C268.473 215.996 268.734 212.399 269.503 209.832C269.924 208.045 269.834 206.175 269.242 204.437L270.346 195.457L276.299 197.442L296.962 364.564L243.842 367.132L222.287 197.516Z" fill="#F9F9F9"/>
<path d="M271.301 195.631C271.301 195.631 274.898 203.928 278.234 223.437C281.57 242.946 284.646 275.775 285.415 298.36C286.184 320.945 286.655 372.514 286.655 372.514H353.628C354.397 372.514 359.023 347.114 359.023 347.114C359.023 347.114 329.803 322.049 328.29 317.944C327.261 315.215 327.782 264.489 323.416 241.136C319.05 217.782 313.407 213.081 301.575 207.24C289.384 201.249 271.301 195.631 271.301 195.631Z" fill="#500A7A"/>
<path d="M306.201 343.12C306.037 343.12 305.879 343.055 305.763 342.938C305.647 342.822 305.581 342.664 305.581 342.5C305.581 340.664 305.246 314.595 304.936 289.381C304.626 264.166 304.291 238.109 304.291 236.261C304.291 236.097 304.357 235.939 304.473 235.823C304.589 235.706 304.747 235.641 304.912 235.641C305.076 235.641 305.234 235.706 305.35 235.823C305.466 235.939 305.532 236.097 305.532 236.261C305.532 238.097 305.867 264.166 306.177 289.368C306.487 314.57 306.821 340.652 306.821 342.5C306.818 342.663 306.752 342.819 306.636 342.935C306.521 343.051 306.365 343.117 306.201 343.12Z" fill="#8593B6"/>
<path d="M172.764 336.844L172.255 372.514H250.254C250.254 372.514 253.59 342.239 252.313 339.412C251.035 336.584 172.764 336.844 172.764 336.844Z" fill="#3E2150"/>
<g style="mix-blend-mode:multiply">
<path d="M259.581 187.767C262.9 190.262 266.58 192.236 270.495 193.621L272.33 177.759C272.33 177.759 251.705 168.308 244.71 161.276C246.174 169.263 249.771 179.842 259.581 187.767Z" fill="#8E9BBB"/>
</g>
<path d="M296.453 106.16C299.906 112.524 302.084 119.5 302.865 126.698C303.895 137.984 302.865 166.981 293.625 179.297C284.386 191.612 265.1 187.979 256.418 180.537C248.406 173.716 240.506 166.175 238.459 151.292C236.413 136.409 242.813 108.181 261.032 102.278C279.251 96.3744 296.453 106.16 296.453 106.16Z" fill="#FF9D8C"/>
<path d="M319.609 356.391C319.609 356.391 318.703 356.391 317.326 356.391H316.272L311.708 356.267H310.617C309.004 356.267 307.628 356.428 306.338 356.354C306.065 356.354 305.668 356.354 305.346 356.354C305.21 356.365 305.073 356.365 304.936 356.354C304.339 356.218 303.766 355.992 303.237 355.684C294.534 353.469 285.601 352.279 276.622 352.137C265.162 352.137 254.88 352.968 253.206 351.566C251.532 350.165 250.502 335.741 260.288 334.798L272.318 339.362C272.318 339.362 299.789 336.101 309.86 343.53C319.931 350.959 319.609 356.391 319.609 356.391Z" fill="#FF9D8C"/>
<path d="M306.288 356.267C306.016 356.267 305.619 356.267 305.296 356.267C304.981 355.77 304.629 355.297 304.242 354.853C301.141 351.69 293.65 349.644 290.934 348.987C290.815 348.957 290.712 348.882 290.647 348.778C290.582 348.674 290.561 348.548 290.587 348.428C290.601 348.368 290.628 348.311 290.664 348.261C290.701 348.211 290.747 348.169 290.8 348.136C290.853 348.104 290.912 348.083 290.973 348.073C291.035 348.064 291.097 348.066 291.157 348.081C295.114 349.036 303.56 351.479 305.891 355.523C305.966 355.634 306.164 356.068 306.288 356.267Z" fill="#223A7A"/>
<path d="M311.696 356.205C311.336 356.205 310.964 356.205 310.604 356.205C307.218 350.003 301.687 348.267 294.841 346.06L294.432 345.923C294.374 345.904 294.32 345.873 294.274 345.833C294.228 345.792 294.191 345.744 294.164 345.689C294.137 345.634 294.121 345.575 294.117 345.514C294.113 345.453 294.121 345.392 294.14 345.334C294.16 345.276 294.19 345.223 294.231 345.177C294.271 345.131 294.32 345.093 294.374 345.066C294.429 345.039 294.488 345.023 294.549 345.019C294.61 345.015 294.671 345.023 294.729 345.043L295.126 345.179C302.357 347.461 308.186 349.321 311.696 356.205Z" fill="#223A7A"/>
<path d="M317.314 356.341H316.26C314.393 353 311.837 350.094 308.763 347.815C305.688 345.536 302.165 343.936 298.425 343.12C298.363 343.112 298.304 343.09 298.251 343.057C298.197 343.025 298.151 342.982 298.115 342.931C298.079 342.879 298.054 342.821 298.041 342.76C298.028 342.699 298.028 342.636 298.041 342.575C298.067 342.458 298.137 342.355 298.236 342.286C298.334 342.217 298.455 342.187 298.574 342.203C307.839 343.939 315.317 351.492 317.314 356.341Z" fill="#223A7A"/>
<path d="M244.611 138.629C248.769 136.24 252.12 132.664 254.236 128.36C256.606 123.946 257.798 118.995 257.696 113.986C257.696 113.986 264.889 112.832 275.667 116.045C286.445 119.257 299.231 123.61 310.046 117.459C320.861 111.307 320.824 101.422 315.565 97.317C309.674 92.7157 297.991 95.5187 297.991 95.5187C297.991 95.5187 302.481 91.153 300.038 88.5857C297.594 86.0184 288.751 89.3547 288.751 89.3547C288.751 89.3547 277.974 80.7598 257.572 81.7892C237.17 82.8186 227.422 97.0566 226.268 112.981C225.115 128.906 230.882 144.793 230.882 144.793L244.611 138.629Z" fill="#0D1721"/>
<g style="mix-blend-mode:multiply">
<path d="M285.998 142.487C284.844 145.327 284.869 148.688 284.584 151.664C284.361 154.021 283.927 156.762 286.085 158.349C287.114 159.106 291.976 161.152 289.471 162.814C288.322 163.292 287.062 163.433 285.837 163.223C285.08 163.223 284.324 163.223 283.579 163.099C282.835 162.975 281.979 162.802 281.186 162.789C281.085 162.793 280.989 162.829 280.91 162.891C280.832 162.954 280.775 163.04 280.749 163.137C280.723 163.234 280.728 163.337 280.764 163.43C280.8 163.524 280.865 163.604 280.95 163.658C282.401 164.411 284.016 164.795 285.651 164.774C286.987 164.925 288.339 164.688 289.545 164.092C289.985 163.933 290.379 163.668 290.691 163.319C291.002 162.971 291.222 162.55 291.331 162.095C291.334 161.544 291.194 161.001 290.925 160.521C290.655 160.04 290.265 159.638 289.793 159.354C288.826 158.635 287.635 158.3 286.655 157.593C285.291 156.625 285.415 154.988 285.502 153.463C285.725 149.816 286.568 146.232 286.891 142.598C286.891 142.053 286.171 142.053 285.998 142.487Z" fill="#8E9BBB"/>
</g>
<path d="M296.49 151.007C296.106 153.177 294.531 154.728 292.98 154.43C291.43 154.132 290.5 152.173 290.847 150.015C291.194 147.857 292.807 146.294 294.357 146.592C295.907 146.889 296.875 148.849 296.49 151.007Z" fill="#0D1721"/>
<path d="M276.857 149.295C276.51 151.627 274.861 153.326 273.137 153.016C271.413 152.706 270.371 150.672 270.718 148.34C271.065 146.009 272.715 144.322 274.439 144.62C276.163 144.917 277.205 146.964 276.857 149.295Z" fill="#0D1721"/>
<path d="M291.914 142.102C293.154 142.3 294.332 142.102 295.535 142.176L296.404 142.263H296.304H296.49L296.949 142.35C297.197 142.412 297.445 142.511 297.706 142.573C297.946 142.631 298.191 142.664 298.438 142.673L298.834 142.611H298.586C298.752 142.62 298.917 142.62 299.083 142.611C299.415 142.51 299.696 142.284 299.867 141.982C300.038 141.679 300.085 141.323 300 140.986C299.949 140.797 299.86 140.62 299.74 140.465C299.74 140.39 299.628 140.328 299.579 140.266L299.727 140.428L299.566 140.217C299.498 140.105 299.405 140.012 299.293 139.944L298.996 139.721C298.656 139.509 298.283 139.358 297.892 139.274C297.17 139.093 296.429 138.998 295.684 138.989C294.954 138.997 294.224 139.055 293.501 139.163C292.83 139.24 292.188 139.478 291.629 139.857C291.42 139.984 291.254 140.169 291.15 140.389C291.047 140.61 291.01 140.856 291.046 141.097C291.078 141.332 291.177 141.553 291.331 141.733C291.485 141.913 291.687 142.046 291.914 142.114V142.102Z" fill="#0D1721"/>
<path d="M278.234 138.666C278.071 138.567 277.901 138.48 277.725 138.406C277.589 138.344 277.192 138.133 277.49 138.294L277.155 138.121C276.66 137.878 276.14 137.691 275.605 137.563C274.43 137.27 273.212 137.186 272.008 137.315C270.752 137.413 269.535 137.794 268.448 138.431C268.283 138.52 268.129 138.628 267.99 138.753L267.742 139.088V138.977C267.574 139.093 267.437 139.249 267.344 139.431C267.251 139.612 267.204 139.814 267.208 140.018C267.208 140.209 267.26 140.397 267.358 140.561C267.457 140.725 267.598 140.859 267.766 140.948C267.963 141.031 268.173 141.074 268.386 141.074C268.599 141.074 268.81 141.031 269.007 140.948H268.362C268.68 141.017 269.01 141.017 269.329 140.948C269.329 140.948 269.676 140.862 269.453 140.948C269.23 141.035 269.8 140.948 269.862 140.948C269.924 140.948 270.321 140.948 269.862 140.948H270.086L270.668 140.886C271.512 140.886 272.355 140.787 273.211 140.762C274.067 140.738 274.798 140.762 275.592 140.762H276.597C276.708 140.762 276.783 140.762 276.597 140.762H276.808L277.229 140.899C277.506 140.963 277.796 140.93 278.051 140.805C278.306 140.681 278.51 140.474 278.631 140.217C278.733 139.951 278.741 139.658 278.653 139.387C278.565 139.116 278.386 138.883 278.147 138.728L278.234 138.666Z" fill="#0D1721"/>
<path d="M284.324 174.336C285.596 171.981 287.642 170.137 290.116 169.114C287.97 168.891 277.825 167.961 275.233 169.412C272.368 171.037 275.766 177.585 281.694 177.908C282.275 177.939 282.857 177.906 283.431 177.808C283.481 176.601 283.785 175.418 284.324 174.336Z" fill="#0D1721"/>
<path d="M237.43 160.569C237.43 160.569 238.459 164.538 244.363 169.164C248.846 172.404 253.706 175.086 258.836 177.151L259.519 174.162C259.519 174.162 250.663 170.318 246.558 166.076C242.453 161.834 241.944 159.54 241.944 159.54L237.43 160.569Z" fill="#DEE1EB"/>
<path d="M260.523 171.955C262.312 171.85 264.079 172.395 265.498 173.489C266.918 174.582 267.895 176.151 268.25 177.908C268.585 180.388 266.303 183.067 260.97 180.673C254.335 177.697 255.773 172.165 260.523 171.955Z" fill="#500A7A"/>
<path d="M241.151 131.188C241.151 131.188 243.197 116.441 253.082 106.383C271.946 87.2708 287.982 88.4242 287.982 88.4242C287.982 88.4242 287.846 85.7329 281.781 83.6741C276.126 81.7518 273.571 82.7811 273.571 82.7811C273.571 82.7811 258.043 84.0214 244.959 98.557C231.874 113.093 230.497 131.585 230.497 131.585L241.151 131.188Z" fill="#DEE1EB"/>
<path d="M239.737 129.389C227.335 127.293 220.488 136.955 219.98 146.753C219.471 156.551 226.59 163.831 236.016 163.124C257.311 161.462 254.88 131.957 239.737 129.389Z" fill="#F9F9F9"/>
<path d="M233.585 153.649C232.026 153.673 230.491 153.263 229.151 152.466C227.811 151.669 226.718 150.516 225.995 149.134C225.166 147.638 224.761 145.944 224.825 144.235C224.888 142.526 225.417 140.866 226.355 139.436C226.389 139.385 226.433 139.342 226.484 139.308C226.535 139.275 226.592 139.252 226.652 139.24C226.711 139.229 226.773 139.229 226.833 139.241C226.893 139.253 226.949 139.277 227 139.312C227.05 139.346 227.094 139.39 227.127 139.441C227.161 139.491 227.184 139.548 227.195 139.608C227.207 139.668 227.206 139.73 227.194 139.79C227.182 139.849 227.158 139.906 227.124 139.957C226.291 141.24 225.822 142.725 225.767 144.254C225.712 145.784 226.074 147.299 226.814 148.638C227.469 149.914 228.479 150.973 229.722 151.688C230.965 152.403 232.389 152.744 233.821 152.669C235.156 152.664 236.469 152.33 237.644 151.696C238.819 151.062 239.819 150.148 240.556 149.035C241.421 147.699 241.963 146.179 242.14 144.597C242.316 143.015 242.122 141.413 241.573 139.919C241.063 138.517 240.114 137.316 238.867 136.496C237.62 135.676 236.142 135.28 234.652 135.368C234.592 135.376 234.53 135.373 234.471 135.358C234.412 135.342 234.357 135.315 234.308 135.278C234.26 135.242 234.219 135.195 234.189 135.142C234.158 135.09 234.139 135.031 234.131 134.971C234.117 134.849 234.15 134.727 234.224 134.63C234.298 134.533 234.407 134.468 234.528 134.45C236.231 134.318 237.93 134.751 239.362 135.681C240.794 136.612 241.881 137.988 242.453 139.597C243.042 141.225 243.248 142.967 243.055 144.688C242.861 146.409 242.273 148.062 241.337 149.519C240.518 150.746 239.412 151.755 238.116 152.46C236.819 153.164 235.371 153.542 233.895 153.562L233.585 153.649Z" fill="#818FB3"/>
<path d="M224.594 193.919C224.594 193.919 187.138 203.159 174.054 218.042C160.969 232.925 154.805 306.31 154.545 319.915C154.284 333.521 163.785 339.164 169.428 343.009C175.071 346.853 199.962 353.786 219.98 354.816C239.997 355.845 258.985 354.816 258.985 354.816C259.218 351.051 260.245 347.378 261.999 344.038C264.852 338.085 268.473 336.845 268.473 336.845L251.284 330.644C251.284 330.644 248.27 276.693 243.582 250.648C238.199 220.609 224.594 193.919 224.594 193.919Z" fill="#500A7A"/>
<path d="M286.692 322.073C286.611 322.09 286.526 322.09 286.444 322.073C286.295 322.006 286.178 321.881 286.12 321.728C286.062 321.575 286.067 321.404 286.134 321.255C289.644 313.329 293.278 297.789 295.324 286.875L295.498 285.995C296.118 282.782 296.887 278.789 295.349 276.073C294.556 274.671 292.782 271.62 291.083 268.693C289.384 265.766 287.647 262.777 287.176 261.922C286.271 260.247 289.123 255.72 293.241 249.631C294.345 247.969 295.312 246.543 295.87 245.575C297.346 243.095 296.366 240.701 295.238 238.01L294.804 237.005C293.787 234.525 292.621 231.97 291.492 229.564L290.115 226.562C289.508 225.235 288.875 223.896 288.292 222.519C284.744 214.105 280.706 205.905 276.2 197.962C276.118 197.819 276.095 197.649 276.137 197.489C276.179 197.329 276.282 197.192 276.423 197.107C276.493 197.065 276.57 197.037 276.651 197.026C276.731 197.014 276.813 197.019 276.892 197.04C276.971 197.061 277.044 197.097 277.109 197.147C277.173 197.197 277.227 197.259 277.267 197.33C281.824 205.299 285.911 213.527 289.508 221.973L291.331 226.004L292.708 228.993C293.836 231.474 295.002 233.954 296.044 236.521L296.428 237.439C297.582 240.193 298.772 243.033 296.999 246.121C296.416 247.125 295.448 248.601 294.32 250.251C292.174 253.451 287.697 260.111 288.317 261.252C288.776 262.095 290.438 264.973 292.199 267.999C293.96 271.025 295.697 273.989 296.478 275.44C298.239 278.59 297.42 282.82 296.763 286.23L296.59 287.098C295.845 291.08 291.889 311.42 287.313 321.751C287.254 321.861 287.163 321.95 287.052 322.008C286.942 322.065 286.816 322.088 286.692 322.073Z" fill="#8593B6"/>
<path d="M250.155 324.256C250.074 324.257 249.993 324.241 249.918 324.209C249.843 324.177 249.776 324.13 249.721 324.07C246.794 321.131 232.742 296.785 231.688 292.208C231.117 289.728 232.556 283.34 233.945 277.189C235.024 272.426 236.14 267.503 235.83 266.176C235.346 264.179 231.75 261.215 228.277 258.399C224.073 254.964 219.732 251.417 218.888 248.217C217.933 244.583 218.752 221.849 219.298 206.805C219.484 201.385 219.645 197.119 219.645 195.643C219.645 195.479 219.71 195.321 219.827 195.205C219.943 195.088 220.101 195.023 220.265 195.023C220.43 195.023 220.587 195.088 220.704 195.205C220.82 195.321 220.885 195.479 220.885 195.643C220.885 197.181 220.724 201.472 220.538 206.892C220.029 220.956 219.186 244.496 220.091 247.956C220.836 250.759 225.201 254.331 229.058 257.494C232.916 260.656 236.5 263.534 237.033 265.928C237.418 267.54 236.363 272.129 235.16 277.511C233.92 283.254 232.395 289.74 232.903 291.985C233.933 296.462 247.786 320.362 250.601 323.251C250.659 323.308 250.705 323.376 250.736 323.45C250.768 323.525 250.784 323.605 250.784 323.686C250.784 323.766 250.768 323.846 250.736 323.921C250.705 323.995 250.659 324.063 250.601 324.12C250.54 324.172 250.469 324.211 250.392 324.234C250.316 324.258 250.235 324.265 250.155 324.256Z" fill="#8593B6"/>
<path d="M199.714 313.602H199.627C199.546 313.592 199.467 313.565 199.396 313.523C199.324 313.482 199.262 313.427 199.212 313.361C199.163 313.295 199.127 313.22 199.106 313.14C199.086 313.06 199.082 312.977 199.094 312.895C199.553 309.671 206.672 245.426 206.994 240.503C207.006 240.338 207.082 240.185 207.207 240.077C207.331 239.969 207.494 239.914 207.658 239.926C207.822 239.937 207.976 240.014 208.084 240.138C208.192 240.263 208.246 240.425 208.235 240.589C207.9 245.55 200.793 309.844 200.322 313.069C200.301 313.216 200.228 313.35 200.117 313.448C200.005 313.546 199.863 313.601 199.714 313.602Z" fill="#8593B6"/>
<path d="M250.775 331.053C250.698 331.07 250.617 331.07 250.539 331.053C248.964 330.42 241.994 328.064 233.176 325.087C215.366 319.084 191.008 310.862 186.332 308.456C186.187 308.377 186.079 308.244 186.031 308.087C185.982 307.929 185.997 307.759 186.072 307.612C186.148 307.468 186.278 307.36 186.434 307.312C186.589 307.263 186.758 307.277 186.903 307.352C191.454 309.721 216.805 318.266 233.561 323.921C242.404 326.898 249.398 329.254 251.011 329.912C251.162 329.975 251.281 330.095 251.344 330.246C251.407 330.397 251.407 330.566 251.346 330.718C251.291 330.821 251.208 330.907 251.108 330.966C251.007 331.025 250.892 331.055 250.775 331.053Z" fill="#8593B6"/>
<path d="M242.205 356.639C226.541 356.639 196.155 353.811 173.074 345.65C172.992 345.623 172.917 345.581 172.852 345.525C172.787 345.469 172.734 345.401 172.695 345.324C172.657 345.247 172.634 345.164 172.627 345.078C172.621 344.993 172.632 344.907 172.658 344.826C172.685 344.744 172.728 344.669 172.784 344.604C172.84 344.539 172.908 344.486 172.985 344.447C173.061 344.408 173.145 344.385 173.23 344.379C173.316 344.373 173.402 344.383 173.483 344.41C202.641 354.729 243.433 356.49 251.023 354.791C251.104 354.773 251.189 354.771 251.271 354.786C251.353 354.801 251.431 354.831 251.501 354.876C251.572 354.921 251.632 354.979 251.68 355.048C251.728 355.116 251.762 355.193 251.78 355.275C251.797 355.356 251.799 355.44 251.785 355.522C251.77 355.604 251.739 355.683 251.694 355.753C251.649 355.823 251.591 355.884 251.523 355.932C251.454 355.979 251.377 356.013 251.296 356.031C248.291 356.515 245.247 356.718 242.205 356.639Z" fill="#8593B6"/>
<path d="M62.8784 202.576C67.7402 206.855 73.9042 209.596 78.1706 214.545C79.8573 216.492 81.358 218.563 82.9207 220.609C84.0617 222.098 87.0879 224.553 87.584 226.426C87.7949 227.245 87.7452 226.129 87.584 225.31V225.211C87.1623 221.428 86.8523 217.633 86.7158 213.825C86.5794 210.018 86.8275 206.223 86.5918 202.428C86.2446 197.094 84.5826 191.91 80.217 188.562C78.0838 186.937 75.3304 185.932 73.3709 184.122C71.4113 182.311 72.2546 180.401 73.3709 178.503C74.5551 176.777 75.4553 174.871 76.0374 172.86C76.328 170.477 75.7513 168.069 74.4127 166.076C71.8702 161.81 66.2271 157.047 60.894 157.692C56.4416 158.225 55.9331 163.36 56.0075 166.932C56.0819 170.504 56.4044 173.877 56.4416 177.362C56.4788 180.847 55.8711 184.432 55.8215 187.991C55.5858 194.043 58.3764 198.657 62.8784 202.576Z" fill="#652889"/>
<path d="M108.036 258.089C109.359 254.887 110.97 251.811 112.848 248.899C115.477 244.868 118.379 240.937 120.141 236.435C121.902 231.933 121.678 226.885 121.852 222.035C121.988 218.476 123.092 214.916 122.757 211.332C122.621 209.621 121.629 206.855 119.421 207.128C117.685 207.351 116.668 209.497 115.998 210.848C114.909 213.269 113.969 215.755 113.183 218.29C112.848 219.27 112.525 220.262 112.104 221.204C111.856 221.75 111.062 223.09 110.33 222.916C109.09 222.594 110.206 217.447 110.33 216.541C111.273 211.965 112.699 207.711 112.885 202.998C113.17 196.164 112.649 188.028 105.965 184.295C104.216 183.315 102.008 182.732 100.346 184.196C98.6843 185.659 98.2379 188.14 98.0022 190.186C97.2581 196.499 98.734 202.477 100.768 208.405C102.43 213.366 104.414 218.327 104.563 223.611C104.7 228.658 102.083 233.123 100.842 237.898C99.5863 242.479 99.059 247.23 99.2797 251.975C99.2797 255.051 99.3789 258.102 99.6021 261.177C99.813 264.005 100.061 266.821 100.408 269.636C100.408 270.206 100.532 270.802 100.619 271.397C99.5277 268.78 99.1432 265.791 98.2503 263.162C96.6503 258.499 94.8024 253.922 93.2893 249.234C92.1186 245.327 90.74 241.485 89.1593 237.724C87.5842 234.239 85.699 230.543 82.7721 227.976C81.0605 226.399 78.8237 225.515 76.4964 225.496C75.0243 225.615 73.5736 225.923 72.1804 226.414C71.3995 226.684 70.5627 226.75 69.7489 226.607C68.9351 226.464 68.1713 226.115 67.5295 225.595C62.7422 221.874 61.3283 215.313 57.744 210.712C55.1395 207.239 48.8639 201.323 44.275 205.106C41.7945 207.115 41.1496 211.01 41.286 213.986C41.6192 217.677 42.9009 221.219 45.0067 224.268C47.0779 227.592 49.7445 230.568 51.6544 233.979C52.6647 235.879 53.055 238.047 52.7706 240.18C52.4446 242.279 52.5715 244.423 53.1427 246.468C55.3379 252.669 62.1965 251.814 67.5295 251.975C71.3578 252.056 75.1545 252.686 78.8033 253.848C80.7219 254.437 82.4706 255.48 83.9017 256.887C85.3329 258.294 86.4045 260.025 87.0261 261.934C88.0803 264.861 88.6508 268.135 90.6476 270.678C91.5972 271.829 92.8094 272.735 94.1823 273.319C96.2659 274.237 102.604 274.634 102.653 274.064C102.992 272.067 103.545 270.112 104.303 268.234C105.369 264.811 106.634 261.45 108.036 258.089Z" fill="#652889"/>
<path d="M137.467 256.948C136.921 253.389 137.02 249.507 135.334 246.22C135.303 246.166 135.262 246.119 135.213 246.081C135.163 246.043 135.107 246.015 135.047 245.999C134.987 245.983 134.925 245.979 134.863 245.987C134.802 245.995 134.742 246.015 134.689 246.047C133.449 246.716 133.449 248.663 133.325 249.854C133.163 251.838 133.325 253.823 133.039 255.795C132.624 259.316 131.791 262.776 130.559 266.101C129.93 267.799 128.899 269.318 127.553 270.528C126.207 271.738 124.587 272.602 122.832 273.047C120.415 273.604 118.126 274.614 116.085 276.023C114.344 277.502 112.982 279.378 112.116 281.493C109.636 287.086 108.396 293.324 107.292 299.302C106.51 303.321 105.878 307.364 104.898 311.345C103.828 315.295 102.967 319.298 102.318 323.338C102.219 323.549 102.12 323.748 102.033 323.958C101.773 324.566 102.728 324.889 103.05 324.392C106.907 318.452 111.608 313.131 118.008 309.869C120.897 308.393 124.742 308.083 127.161 305.764C128.996 304.003 129.244 301.312 128.971 298.906C128.612 295.755 127.098 293.163 125.523 290.484C124.655 289.008 123.638 287.421 123.985 285.635C124.22 284.819 124.62 284.061 125.159 283.406C125.699 282.751 126.368 282.214 127.123 281.827C129.777 280.178 132.89 279.434 135.073 277.053C137.068 274.863 138.258 272.059 138.447 269.103C138.573 265.027 138.244 260.951 137.467 256.948Z" fill="#652889"/>
<path d="M84.9178 277.424C81.5088 273.073 77.4167 269.303 72.8007 266.262C70.3202 264.625 64.5283 261.401 63.3501 266.262C62.6679 269.09 65.4337 271.868 67.2568 273.642C69.9978 276.308 73.1604 278.603 75.4672 281.679C72.6147 282.596 69.6257 282.77 67.1328 284.754C64.1934 287.098 62.8664 291.613 65.7933 294.49C67.3082 295.791 69.0205 296.841 70.8659 297.603C73.1728 298.707 75.5168 299.724 77.8733 300.704C82.9707 302.837 88.1301 304.995 92.4709 308.48C96.8118 311.965 101.066 318.042 101.413 323.834C101.413 324.392 101.239 323.834 101.562 323.636C101.748 323.797 102.356 323.499 102.356 323.177C102.365 314.685 100.608 306.285 97.1962 298.509C93.9575 291.017 89.8355 283.939 84.9178 277.424Z" fill="#652889"/>
<path d="M73.1726 197.318C75.0578 201.212 77.0174 205.007 79.101 208.802C81.1799 212.398 83.0194 216.127 84.6076 219.964C86.4556 224.764 88.3283 229.489 90.3375 234.252C92.3919 239.19 94.1601 244.242 95.6334 249.383C98.524 259.445 100.528 269.741 101.624 280.153C102.175 285.438 102.386 290.753 102.256 296.066C102.145 300.208 101.673 304.313 101.289 308.468C100.789 312.765 100.673 317.098 100.942 321.416C101.252 325.013 101.822 329.292 104.662 331.859C104.774 331.957 104.917 332.014 105.066 332.019C105.215 332.024 105.362 331.977 105.48 331.887C105.599 331.796 105.682 331.667 105.716 331.522C105.75 331.376 105.733 331.224 105.667 331.09C102.343 324.281 102.529 316.852 103.186 309.46C103.546 305.392 104.03 301.337 104.166 297.244C104.328 292.033 104.154 286.818 103.645 281.629C102.609 271.436 100.725 261.347 98.0146 251.467C96.6513 246.413 94.9948 241.444 93.0537 236.584C91.1313 231.697 88.8989 226.935 87.0261 222.023C83.6402 213.131 78.4684 205.255 73.9043 196.97C73.6687 196.536 73.0486 196.97 73.247 197.355L73.1726 197.318Z" fill="#BB56F8"/>
<path d="M101.785 270.045C102.318 263.571 102.889 257.345 105.071 251.169C106.088 248.291 107.329 245.488 108.308 242.599C109.115 240.205 110.33 236.931 109.71 234.388C109.696 234.324 109.661 234.267 109.61 234.226C109.56 234.185 109.496 234.162 109.431 234.162C109.366 234.162 109.302 234.185 109.251 234.226C109.201 234.267 109.165 234.324 109.152 234.388C108.73 235.839 108.78 237.427 108.47 238.915C108.175 240.362 107.798 241.79 107.341 243.194C106.386 246.183 105.133 249.048 104.042 252C101.875 257.756 100.95 263.906 101.326 270.045C101.326 270.104 101.349 270.161 101.391 270.203C101.433 270.245 101.49 270.268 101.549 270.268C101.608 270.268 101.665 270.245 101.707 270.203C101.749 270.161 101.772 270.104 101.772 270.045H101.785Z" fill="#BB56F8"/>
<path d="M64.268 232.85C66.8353 239.051 74.562 239.411 80.1927 240.8C82.1135 241.323 83.91 242.225 85.4757 243.455C87.0415 244.684 88.3448 246.215 89.3085 247.956C91.5573 251.898 93.3032 256.107 94.5051 260.483C94.5051 260.483 94.5919 260.483 94.5795 260.483C93.0044 253.041 90.7595 244.087 83.0824 240.639C76.8812 237.861 68.8445 239.25 64.9129 232.615C64.7145 232.292 64.1192 232.503 64.268 232.887V232.85Z" fill="#BB56F8"/>
<path d="M97.7171 269.066C98.0271 269.475 98.3 269.909 98.6225 270.306C98.7687 270.508 98.9395 270.691 99.131 270.852C99.3241 271.048 99.5772 271.175 99.8503 271.211C99.8771 271.213 99.9037 271.207 99.9274 271.194C99.9511 271.182 99.971 271.163 99.9849 271.14C99.9989 271.117 100.006 271.091 100.007 271.064C100.007 271.038 100 271.011 99.9867 270.988C99.8293 270.798 99.6455 270.631 99.441 270.492L98.8953 270.008C98.5356 269.661 98.2132 269.289 97.8535 268.942C97.8535 268.88 97.6551 268.942 97.7171 269.053V269.066Z" fill="#BB56F8"/>
<path d="M81.656 288.761C86.1452 292.413 90.1062 296.67 93.4258 301.411C94.9774 303.685 96.4057 306.041 97.7047 308.468C99.0172 311.124 100.177 313.853 101.177 316.641C101.252 316.852 101.636 316.852 101.611 316.641C100.991 310.8 97.2954 305.801 94.3312 300.94C92.7569 298.516 90.9092 296.281 88.8245 294.28C86.7583 292.081 84.4912 290.079 82.0528 288.302C81.7552 288.091 81.3583 288.575 81.656 288.823V288.761Z" fill="#BB56F8"/>
<path d="M116.941 281.877C114.808 283.117 114.746 286.466 114.696 288.612C114.621 292.754 115.638 296.636 113.828 300.58C112.191 304.14 109.574 307.116 107.503 310.415C105.58 313.516 103.683 317.472 103.782 321.193C103.782 321.416 104.117 321.528 104.216 321.317C104.864 319.558 105.402 317.76 105.828 315.934C106.444 313.97 107.329 312.1 108.458 310.378C110.442 307.302 112.873 304.512 114.485 301.2C116.097 297.889 115.924 294.28 115.812 290.509C115.738 288.103 115.502 284.234 117.437 282.448C117.747 282.163 117.362 281.691 117.003 281.877H116.941Z" fill="#BB56F8"/>
<path d="M102.666 321.577C94.0706 321.466 77.7615 321.342 77.7615 321.342L81.8047 351.43C82.2462 354.705 83.8613 357.708 86.3499 359.882C88.8384 362.055 92.0314 363.252 95.3357 363.25H110.132C113.434 363.249 116.624 362.051 119.11 359.878C121.596 357.704 123.209 354.703 123.65 351.43L127.644 321.342C127.644 321.342 111.248 321.466 102.666 321.577Z" fill="#F9F9F9"/>
<path d="M518.283 266.287L469.231 363.448L326.207 364.477L370.347 264.911L518.283 266.287Z" fill="#F6F7FA"/>
<path d="M231.303 363.869V356.093H323.875L366.477 262.69H514.562L518.283 266.287H373.646L329.382 363.795C329.382 363.795 231.303 363.609 231.303 363.869Z" fill="#D9DEE8"/>
<path d="M444.017 319.903C442.405 324.752 433.636 328.486 424.434 328.262C415.231 328.039 409.079 323.922 410.692 319.072C412.304 314.223 421.085 310.477 430.288 310.713C439.49 310.949 445.629 315.054 444.017 319.903Z" fill="#D9DEE8"/>
<path d="M329.381 364.415C329.291 364.412 329.203 364.391 329.121 364.353C328.972 364.285 328.855 364.161 328.797 364.008C328.739 363.855 328.744 363.684 328.811 363.535L373.236 265.667H518.344C518.509 265.667 518.667 265.733 518.783 265.849C518.899 265.965 518.965 266.123 518.965 266.287C518.961 266.451 518.895 266.607 518.779 266.722C518.664 266.838 518.508 266.904 518.344 266.907H374.043L329.94 364.056C329.891 364.163 329.813 364.254 329.714 364.318C329.615 364.382 329.499 364.416 329.381 364.415Z" fill="#F9F9F9"/>
<path d="M224.854 371.236H54.7305V408.952H224.854V371.236Z" fill="#596B9B"/>
<path d="M529.978 371.236H223.887V408.952H529.978V371.236Z" fill="#7A89AF"/>
<g style="mix-blend-mode:multiply">
<path d="M224.854 371.236H223.887H54.7305V378.157H223.887H224.854H529.978V371.236H224.854Z" fill="#BDC4D7"/>
</g>
<path d="M232.296 363.795H46.52V373.035H232.296V363.795Z" fill="#6F7FA9"/>
<path d="M537.419 363.795H231.328V373.035H537.419V363.795Z" fill="#9CA6C3"/>
<path d="M181.905 122.444H121.852C118.133 122.444 115.118 125.459 115.118 129.179V159.155C115.118 162.875 118.133 165.89 121.852 165.89H181.905C185.624 165.89 188.639 162.875 188.639 159.155V129.179C188.639 125.459 185.624 122.444 181.905 122.444Z" fill="#F9F9F9"/>
<path d="M205.742 144.161L183.194 134.648V153.686L205.742 144.161Z" fill="#F9F9F9"/>
<path d="M137.628 148.316C139.923 148.316 141.783 146.456 141.783 144.161C141.783 141.866 139.923 140.006 137.628 140.006C135.333 140.006 133.473 141.866 133.473 144.161C133.473 146.456 135.333 148.316 137.628 148.316Z" fill="#500A7A"/>
<path d="M151.878 148.316C154.173 148.316 156.033 146.456 156.033 144.161C156.033 141.866 154.173 140.006 151.878 140.006C149.584 140.006 147.724 141.866 147.724 144.161C147.724 146.456 149.584 148.316 151.878 148.316Z" fill="#500A7A"/>
<path d="M166.116 148.316C168.411 148.316 170.271 146.456 170.271 144.161C170.271 141.866 168.411 140.006 166.116 140.006C163.822 140.006 161.961 141.866 161.961 144.161C161.961 146.456 163.822 148.316 166.116 148.316Z" fill="#500A7A"/>
<path d="M487.661 30.2075H349.002C344.726 30.2075 340.625 31.9062 337.601 34.9299C334.578 37.9535 332.879 42.0545 332.879 46.3306V112.063C332.879 116.34 334.578 120.44 337.601 123.464C340.625 126.488 344.726 128.187 349.002 128.187H361.404C361.752 134.14 360.896 143.069 355.91 154.356C368.268 148.749 378.717 139.653 385.974 128.187H487.673C491.949 128.187 496.05 126.488 499.074 123.464C502.098 120.44 503.796 116.34 503.796 112.063V46.3306C503.796 44.2123 503.379 42.1147 502.568 40.1577C501.757 38.2008 500.568 36.4228 499.07 34.9255C497.571 33.4282 495.792 32.2408 493.835 31.4313C491.877 30.6217 489.779 30.2059 487.661 30.2075Z" fill="#8839B8"/>
<path d="M428.514 61.561H359.743C358.836 61.5577 357.967 61.196 357.326 60.5548C356.685 59.9135 356.323 59.0448 356.32 58.1379C356.323 57.2311 356.685 56.3623 357.326 55.7211C357.967 55.0798 358.836 54.7181 359.743 54.7148H428.514C429.421 54.7181 430.29 55.0798 430.931 55.7211C431.572 56.3623 431.934 57.2311 431.937 58.1379C431.934 59.0448 431.572 59.9135 430.931 60.5548C430.29 61.196 429.421 61.5577 428.514 61.561Z" fill="#F9F9F9"/>
<path d="M477.826 81.4916H358.416C357.86 81.4916 357.327 81.2707 356.933 80.8777C356.54 80.4846 356.32 79.9515 356.32 79.3956C356.32 78.8397 356.54 78.3066 356.933 77.9135C357.327 77.5204 357.86 77.2996 358.416 77.2996H477.826C478.382 77.2996 478.915 77.5204 479.308 77.9135C479.701 78.3066 479.922 78.8397 479.922 79.3956C479.922 79.6708 479.868 79.9434 479.762 80.1977C479.657 80.452 479.503 80.683 479.308 80.8777C479.113 81.0723 478.882 81.2267 478.628 81.332C478.374 81.4374 478.101 81.4916 477.826 81.4916Z" fill="#D2E6FF"/>
<path d="M477.826 93.1376H358.416C357.86 93.1376 357.327 92.9167 356.933 92.5237C356.54 92.1306 356.32 91.5975 356.32 91.0416C356.32 90.4857 356.54 89.9525 356.933 89.5595C357.327 89.1664 357.86 88.9456 358.416 88.9456H477.826C478.382 88.9456 478.915 89.1664 479.308 89.5595C479.701 89.9525 479.922 90.4857 479.922 91.0416C479.922 91.3168 479.868 91.5894 479.762 91.8437C479.657 92.098 479.503 92.329 479.308 92.5237C479.113 92.7183 478.882 92.8727 478.628 92.978C478.374 93.0834 478.101 93.1376 477.826 93.1376Z" fill="#D2E6FF"/>
<path d="M451.781 105.54H358.416C357.86 105.54 357.327 105.319 356.933 104.926C356.54 104.533 356.32 104 356.32 103.444C356.32 102.888 356.54 102.355 356.933 101.962C357.327 101.568 357.86 101.348 358.416 101.348H451.781C452.337 101.348 452.87 101.568 453.263 101.962C453.656 102.355 453.877 102.888 453.877 103.444C453.877 104 453.656 104.533 453.263 104.926C452.87 105.319 452.337 105.54 451.781 105.54Z" fill="#D2E6FF"/>
<path d="M476.883 61.561H444.079C443.172 61.5577 442.303 61.196 441.662 60.5548C441.021 59.9135 440.659 59.0448 440.656 58.1379C440.659 57.2311 441.021 56.3623 441.662 55.7211C442.303 55.0798 443.172 54.7181 444.079 54.7148H476.883C477.79 54.7181 478.659 55.0798 479.3 55.7211C479.941 56.3623 480.303 57.2311 480.306 58.1379C480.303 59.0448 479.941 59.9135 479.3 60.5548C478.659 61.196 477.79 61.5577 476.883 61.561Z" fill="#F9F9F9"/>
<path d="M394.196 182.422H356.952C355.582 182.422 354.472 183.533 354.472 184.903V210.352C354.472 211.722 355.582 212.833 356.952 212.833H394.196C395.566 212.833 396.677 211.722 396.677 210.352V184.903C396.677 183.533 395.566 182.422 394.196 182.422Z" fill="#F9F9F9"/>
<path d="M375.828 202.167C375.616 202.162 375.411 202.088 375.246 201.956L354.968 185.213C354.873 185.131 354.796 185.032 354.74 184.921C354.683 184.809 354.65 184.688 354.641 184.564C354.631 184.439 354.647 184.314 354.686 184.196C354.725 184.077 354.787 183.968 354.868 183.873C354.95 183.779 355.049 183.701 355.161 183.645C355.272 183.589 355.393 183.555 355.518 183.546C355.642 183.537 355.767 183.552 355.885 183.592C356.004 183.631 356.113 183.693 356.208 183.774L375.866 200.021L395.027 183.34C395.119 183.259 395.227 183.196 395.343 183.156C395.459 183.116 395.582 183.099 395.705 183.107C395.827 183.114 395.947 183.146 396.058 183.2C396.168 183.253 396.267 183.329 396.348 183.421C396.43 183.513 396.492 183.62 396.532 183.736C396.572 183.852 396.589 183.975 396.582 184.098C396.574 184.22 396.542 184.34 396.489 184.451C396.435 184.561 396.36 184.66 396.268 184.741L376.511 201.931C376.419 202.015 376.311 202.079 376.194 202.12C376.077 202.16 375.952 202.176 375.828 202.167Z" fill="#6F7FA9"/>
<path d="M355.575 212.126C355.393 212.129 355.214 212.078 355.06 211.979C354.907 211.88 354.787 211.738 354.715 211.57C354.643 211.402 354.623 211.217 354.657 211.038C354.691 210.858 354.777 210.693 354.906 210.563L369.082 195.68C369.256 195.506 369.492 195.408 369.739 195.408C369.985 195.408 370.222 195.506 370.396 195.68C370.571 195.855 370.668 196.091 370.668 196.338C370.668 196.584 370.571 196.821 370.396 196.995L356.22 211.878C356.136 211.961 356.035 212.026 355.924 212.069C355.813 212.112 355.694 212.131 355.575 212.126Z" fill="#6F7FA9"/>
<path d="M395.598 211.58C395.474 211.582 395.351 211.559 395.235 211.512C395.12 211.465 395.016 211.395 394.928 211.308L380.814 197.156C380.64 196.982 380.542 196.746 380.542 196.499C380.542 196.253 380.64 196.016 380.814 195.842C380.9 195.754 381.002 195.684 381.115 195.637C381.228 195.589 381.349 195.564 381.472 195.564C381.594 195.564 381.715 195.589 381.828 195.637C381.941 195.684 382.043 195.754 382.129 195.842L396.255 209.993C396.43 210.169 396.528 210.408 396.528 210.656C396.528 210.905 396.43 211.143 396.255 211.32C396.169 211.405 396.066 211.472 395.953 211.517C395.84 211.562 395.719 211.583 395.598 211.58Z" fill="#6F7FA9"/>
<path d="M398.612 193.919C405.482 193.919 411.051 188.35 411.051 181.48C411.051 174.609 405.482 169.04 398.612 169.04C391.742 169.04 386.172 174.609 386.172 181.48C386.172 188.35 391.742 193.919 398.612 193.919Z" fill="#EA4335"/>
<path d="M395.613 181.559L395.583 181.217C395.96 181.386 396.287 181.604 396.565 181.872C396.843 182.14 397.056 182.432 397.205 182.75C397.354 183.067 397.428 183.395 397.428 183.732C397.428 184.298 397.27 184.819 396.952 185.295C396.645 185.761 396.228 186.138 395.702 186.426C395.176 186.704 394.591 186.843 393.946 186.843C393.301 186.843 392.716 186.704 392.19 186.426C391.664 186.138 391.242 185.761 390.925 185.295C390.617 184.819 390.463 184.298 390.463 183.732C390.463 183.276 390.557 182.884 390.746 182.557C390.944 182.219 391.188 181.936 391.475 181.708C391.773 181.48 392.066 181.291 392.353 181.143L392.234 181.559C391.986 181.46 391.743 181.321 391.505 181.143C391.277 180.954 391.088 180.716 390.939 180.428C390.791 180.141 390.716 179.803 390.716 179.416C390.716 178.861 390.86 178.36 391.148 177.913C391.436 177.457 391.823 177.094 392.309 176.827C392.805 176.559 393.351 176.425 393.946 176.425C394.551 176.425 395.092 176.559 395.568 176.827C396.054 177.094 396.441 177.457 396.729 177.913C397.017 178.36 397.161 178.861 397.161 179.416C397.161 179.843 397.076 180.2 396.908 180.488C396.739 180.776 396.535 181.004 396.297 181.172C396.059 181.341 395.831 181.47 395.613 181.559ZM392.502 179.446C392.502 179.714 392.562 179.952 392.681 180.16C392.81 180.369 392.983 180.537 393.202 180.666C393.42 180.785 393.668 180.845 393.946 180.845C394.224 180.845 394.467 180.785 394.675 180.666C394.893 180.537 395.062 180.369 395.181 180.16C395.31 179.952 395.375 179.714 395.375 179.446C395.375 179.049 395.236 178.722 394.958 178.464C394.69 178.196 394.353 178.062 393.946 178.062C393.529 178.062 393.182 178.196 392.904 178.464C392.636 178.722 392.502 179.049 392.502 179.446ZM393.946 185.206C394.422 185.206 394.824 185.062 395.151 184.774C395.479 184.476 395.642 184.119 395.642 183.702C395.642 183.415 395.568 183.157 395.419 182.929C395.27 182.7 395.067 182.522 394.809 182.393C394.551 182.254 394.263 182.184 393.946 182.184C393.628 182.184 393.341 182.254 393.083 182.393C392.825 182.522 392.621 182.7 392.472 182.929C392.324 183.157 392.249 183.415 392.249 183.702C392.249 184.119 392.413 184.476 392.74 184.774C393.068 185.062 393.47 185.206 393.946 185.206ZM401.608 186.992C401.241 186.992 400.849 186.937 400.433 186.828C400.016 186.709 399.674 186.54 399.406 186.322C399.277 186.213 399.172 186.074 399.093 185.905C399.024 185.727 398.989 185.558 398.989 185.399C398.989 185.23 399.058 185.072 399.197 184.923C399.346 184.774 399.554 184.7 399.822 184.7C400.001 184.7 400.224 184.794 400.492 184.982C400.651 185.082 400.824 185.171 401.013 185.25C401.202 185.33 401.395 185.369 401.593 185.369C402.07 185.369 402.481 185.285 402.829 185.116C403.176 184.938 403.444 184.695 403.632 184.387C403.821 184.08 403.915 183.717 403.915 183.301C403.915 182.924 403.826 182.601 403.647 182.333C403.479 182.065 403.25 181.857 402.963 181.708C402.685 181.559 402.382 181.485 402.055 181.485C401.747 181.485 401.479 181.535 401.251 181.634C401.023 181.733 400.815 181.837 400.626 181.946C400.438 182.046 400.249 182.095 400.06 182.095C399.733 182.095 399.49 182.026 399.331 181.887C399.172 181.738 399.073 181.564 399.034 181.366C398.994 181.167 398.984 180.989 399.004 180.83L399.465 177.214C399.505 177.005 399.604 176.837 399.763 176.708C399.932 176.569 400.13 176.499 400.358 176.499H404.659C404.897 176.499 405.096 176.579 405.255 176.737C405.413 176.896 405.493 177.094 405.493 177.333C405.493 177.561 405.413 177.754 405.255 177.913C405.096 178.062 404.897 178.136 404.659 178.136H400.82L400.983 178.002L400.581 181.024L400.388 180.458C400.447 180.359 400.576 180.265 400.775 180.175C400.973 180.086 401.202 180.012 401.459 179.952C401.717 179.883 401.97 179.848 402.219 179.848C402.883 179.848 403.479 180.002 404.004 180.309C404.53 180.607 404.942 181.019 405.24 181.544C405.547 182.06 405.701 182.646 405.701 183.301C405.701 184.045 405.532 184.695 405.195 185.25C404.858 185.806 404.381 186.238 403.766 186.545C403.161 186.843 402.442 186.992 401.608 186.992Z" fill="#F9F9F9"/>
<path d="M523.616 155.596H450.913C448.173 155.596 445.952 157.817 445.952 160.557V171.93C445.952 174.67 448.173 176.891 450.913 176.891H523.616C526.355 176.891 528.577 174.67 528.577 171.93V160.557C528.577 157.817 526.355 155.596 523.616 155.596Z" fill="#E8AA42"/>
<path d="M456.159 171.831C456.011 171.838 455.863 171.81 455.727 171.75C455.592 171.689 455.472 171.598 455.378 171.484C455.276 171.365 455.2 171.226 455.153 171.077C455.106 170.928 455.09 170.771 455.105 170.615L455.427 167.85C455.427 167.788 455.427 167.738 455.427 167.713C455.427 167.688 455.328 167.713 455.254 167.713L452.984 169.35C452.865 169.449 452.725 169.52 452.575 169.559C452.425 169.597 452.268 169.602 452.116 169.574C451.96 169.545 451.812 169.483 451.684 169.391C451.555 169.299 451.448 169.179 451.372 169.04C451.275 168.898 451.214 168.735 451.194 168.564C451.175 168.393 451.197 168.221 451.26 168.06C451.322 167.923 451.411 167.8 451.522 167.698C451.633 167.595 451.763 167.516 451.905 167.465L454.447 166.312C454.522 166.312 454.559 166.312 454.559 166.213C454.559 166.113 454.559 166.126 454.447 166.101L451.905 164.96C451.756 164.903 451.621 164.814 451.512 164.698C451.402 164.582 451.32 164.442 451.272 164.29C451.227 164.14 451.213 163.983 451.23 163.827C451.247 163.672 451.295 163.521 451.372 163.385C451.45 163.247 451.557 163.126 451.685 163.032C451.814 162.938 451.96 162.872 452.116 162.839C452.42 162.795 452.729 162.866 452.984 163.038L455.254 164.712C455.328 164.712 455.378 164.712 455.427 164.712C455.477 164.712 455.427 164.637 455.427 164.563L455.105 161.81C455.088 161.653 455.104 161.494 455.153 161.345C455.202 161.195 455.283 161.057 455.39 160.941C455.496 160.824 455.626 160.732 455.772 160.672C455.918 160.612 456.076 160.585 456.233 160.594C456.389 160.591 456.542 160.623 456.684 160.688C456.825 160.752 456.95 160.847 457.05 160.966C457.15 161.085 457.222 161.224 457.261 161.375C457.3 161.525 457.305 161.682 457.275 161.834L456.965 164.588C456.965 164.662 456.965 164.712 456.965 164.737C456.993 164.753 457.025 164.762 457.058 164.762C457.091 164.762 457.123 164.753 457.151 164.737L459.408 163.1C459.533 163.001 459.677 162.929 459.83 162.888C459.984 162.848 460.144 162.84 460.301 162.864C460.455 162.894 460.599 162.959 460.724 163.054C460.849 163.148 460.95 163.27 461.021 163.41C461.119 163.551 461.181 163.714 461.203 163.884C461.224 164.055 461.205 164.228 461.145 164.389C461.009 164.66 460.78 164.871 460.5 164.985L457.945 166.126C457.883 166.126 457.846 166.126 457.846 166.237C457.846 166.349 457.846 166.312 457.945 166.337L460.5 167.49C460.65 167.548 460.785 167.638 460.896 167.754C461.008 167.869 461.092 168.008 461.145 168.16C461.194 168.31 461.209 168.47 461.187 168.627C461.166 168.784 461.109 168.934 461.021 169.065C460.952 169.205 460.851 169.326 460.725 169.419C460.6 169.511 460.455 169.573 460.301 169.598C460.148 169.629 459.989 169.628 459.836 169.596C459.682 169.564 459.537 169.502 459.408 169.412L457.151 167.738C457.123 167.722 457.091 167.713 457.058 167.713C457.025 167.713 456.993 167.722 456.965 167.738C456.95 167.758 456.942 167.782 456.942 167.806C456.942 167.831 456.95 167.855 456.965 167.874L457.275 170.64C457.304 170.795 457.295 170.955 457.25 171.106C457.205 171.257 457.124 171.395 457.015 171.508C456.903 171.619 456.769 171.706 456.621 171.761C456.474 171.817 456.316 171.841 456.159 171.831Z" fill="#F9F9F9"/>
<path d="M471.191 171.831C471.042 171.837 470.895 171.808 470.759 171.748C470.624 171.688 470.504 171.597 470.409 171.483C470.309 171.364 470.235 171.225 470.19 171.076C470.145 170.927 470.131 170.77 470.149 170.615L470.459 167.85C470.459 167.788 470.459 167.738 470.459 167.713C470.459 167.688 470.36 167.713 470.285 167.713L468.016 169.35C467.897 169.45 467.757 169.521 467.607 169.56C467.457 169.599 467.3 169.603 467.147 169.573C466.835 169.484 466.57 169.275 466.41 168.992C466.25 168.709 466.207 168.374 466.292 168.06C466.427 167.79 466.656 167.578 466.937 167.465L469.491 166.312C469.553 166.312 469.591 166.312 469.591 166.212C469.591 166.113 469.591 166.126 469.491 166.101L466.937 164.96C466.79 164.9 466.657 164.809 466.548 164.693C466.439 164.578 466.356 164.44 466.304 164.29C466.225 163.985 466.265 163.661 466.416 163.385C466.493 163.248 466.598 163.129 466.724 163.035C466.85 162.941 466.994 162.874 467.147 162.839C467.452 162.788 467.764 162.859 468.016 163.037L470.285 164.712C470.36 164.712 470.422 164.712 470.459 164.712C470.496 164.712 470.459 164.637 470.459 164.563L470.149 161.81C470.133 161.654 470.149 161.497 470.196 161.347C470.243 161.198 470.32 161.06 470.422 160.941C470.528 160.825 470.659 160.734 470.805 160.674C470.951 160.614 471.108 160.587 471.265 160.594C471.417 160.589 471.568 160.618 471.707 160.678C471.846 160.738 471.971 160.828 472.071 160.941C472.175 161.058 472.251 161.197 472.292 161.348C472.333 161.498 472.338 161.657 472.307 161.81L471.997 164.563C471.997 164.637 471.997 164.687 471.997 164.712C471.997 164.712 472.096 164.712 472.17 164.712L474.44 163.075C474.564 162.975 474.707 162.902 474.861 162.861C475.015 162.821 475.176 162.813 475.333 162.839C475.485 162.869 475.628 162.934 475.75 163.029C475.873 163.124 475.972 163.245 476.04 163.385C476.141 163.525 476.205 163.688 476.227 163.859C476.249 164.03 476.227 164.204 476.164 164.364C476.029 164.635 475.799 164.847 475.519 164.96L472.977 166.101C472.902 166.101 472.865 166.138 472.865 166.212C472.865 166.212 472.865 166.287 472.977 166.312L475.519 167.465C475.67 167.522 475.806 167.611 475.917 167.727C476.029 167.843 476.113 167.982 476.164 168.135C476.216 168.285 476.232 168.445 476.211 168.602C476.189 168.76 476.131 168.91 476.04 169.04C475.973 169.179 475.874 169.3 475.751 169.392C475.628 169.485 475.485 169.547 475.333 169.573C475.179 169.606 475.021 169.606 474.867 169.574C474.713 169.542 474.568 169.478 474.44 169.387L472.158 167.75C472.084 167.75 472.034 167.75 471.984 167.75C471.935 167.75 471.984 167.825 471.984 167.887L472.294 170.652C472.323 170.807 472.314 170.967 472.269 171.118C472.224 171.269 472.143 171.407 472.034 171.521C471.923 171.628 471.79 171.711 471.645 171.764C471.5 171.818 471.345 171.84 471.191 171.831Z" fill="#F9F9F9"/>
<path d="M486.235 171.831C486.085 171.837 485.935 171.808 485.798 171.748C485.66 171.688 485.538 171.598 485.441 171.483C485.341 171.364 485.267 171.225 485.222 171.076C485.177 170.927 485.163 170.77 485.181 170.615L485.503 167.85C485.503 167.788 485.503 167.738 485.503 167.713C485.477 167.697 485.447 167.688 485.416 167.688C485.385 167.688 485.355 167.697 485.329 167.713L483.06 169.35C482.94 169.449 482.801 169.52 482.651 169.559C482.5 169.597 482.344 169.602 482.192 169.573C482.036 169.545 481.888 169.483 481.759 169.391C481.631 169.298 481.524 169.179 481.447 169.04C481.348 168.899 481.286 168.736 481.267 168.564C481.247 168.393 481.271 168.22 481.336 168.06C481.398 167.923 481.487 167.8 481.598 167.697C481.709 167.595 481.839 167.516 481.981 167.465L484.523 166.312C484.598 166.312 484.635 166.312 484.635 166.212C484.635 166.113 484.635 166.126 484.523 166.101L481.981 164.96C481.831 164.903 481.697 164.814 481.587 164.698C481.478 164.582 481.396 164.442 481.348 164.29C481.303 164.14 481.289 163.983 481.306 163.827C481.323 163.672 481.371 163.521 481.447 163.385C481.526 163.246 481.633 163.126 481.761 163.032C481.889 162.938 482.036 162.872 482.192 162.839C482.496 162.795 482.805 162.866 483.06 163.037L485.329 164.712C485.355 164.728 485.385 164.737 485.416 164.737C485.447 164.737 485.477 164.728 485.503 164.712C485.503 164.712 485.503 164.637 485.503 164.563L485.181 161.81C485.163 161.653 485.18 161.494 485.229 161.345C485.278 161.195 485.359 161.057 485.466 160.941C485.57 160.826 485.699 160.735 485.842 160.675C485.986 160.614 486.141 160.587 486.297 160.594C486.453 160.589 486.608 160.62 486.751 160.683C486.894 160.747 487.021 160.842 487.122 160.961C487.223 161.08 487.296 161.22 487.336 161.371C487.376 161.523 487.381 161.681 487.351 161.834L487.041 164.588C487.041 164.662 487.041 164.712 487.041 164.737C487.067 164.753 487.097 164.762 487.128 164.762C487.158 164.762 487.189 164.753 487.215 164.737L489.484 163.099C489.609 163.001 489.752 162.929 489.906 162.888C490.06 162.848 490.22 162.839 490.377 162.864C490.531 162.894 490.675 162.959 490.8 163.054C490.924 163.148 491.026 163.27 491.096 163.409C491.195 163.551 491.257 163.714 491.279 163.884C491.3 164.055 491.28 164.228 491.22 164.389C491.085 164.66 490.856 164.871 490.576 164.985L488.021 166.126C487.959 166.126 487.921 166.126 487.921 166.237C487.921 166.349 487.921 166.312 488.021 166.336L490.576 167.49C490.725 167.548 490.861 167.638 490.972 167.753C491.083 167.869 491.168 168.008 491.22 168.16C491.27 168.31 491.285 168.47 491.263 168.627C491.242 168.783 491.185 168.933 491.096 169.065C491.028 169.205 490.926 169.326 490.801 169.419C490.676 169.511 490.531 169.573 490.377 169.598C490.223 169.629 490.065 169.628 489.912 169.596C489.758 169.564 489.613 169.502 489.484 169.412L487.215 167.738C487.189 167.721 487.158 167.713 487.128 167.713C487.097 167.713 487.067 167.721 487.041 167.738C487.026 167.757 487.018 167.781 487.018 167.806C487.018 167.831 487.026 167.855 487.041 167.874L487.351 170.64C487.38 170.795 487.371 170.955 487.326 171.106C487.28 171.257 487.2 171.395 487.091 171.508C486.979 171.619 486.845 171.706 486.697 171.761C486.55 171.817 486.392 171.84 486.235 171.831Z" fill="#F9F9F9"/>
<path d="M501.266 171.831C501.118 171.836 500.971 171.808 500.835 171.748C500.7 171.688 500.58 171.597 500.485 171.483C500.385 171.364 500.311 171.225 500.266 171.076C500.221 170.927 500.207 170.77 500.225 170.615L500.535 167.849C500.535 167.787 500.535 167.738 500.535 167.713C500.535 167.688 500.435 167.713 500.361 167.713L498.091 169.35C497.972 169.45 497.833 169.521 497.683 169.56C497.532 169.598 497.375 169.603 497.223 169.573C496.911 169.484 496.646 169.275 496.486 168.992C496.326 168.709 496.283 168.374 496.368 168.06C496.506 167.831 496.715 167.653 496.963 167.552L499.518 166.398C499.58 166.398 499.617 166.398 499.617 166.299C499.617 166.2 499.617 166.212 499.518 166.187L496.963 165.046C496.816 164.986 496.683 164.895 496.574 164.78C496.465 164.664 496.382 164.527 496.33 164.377C496.251 164.072 496.291 163.748 496.442 163.471C496.519 163.334 496.624 163.215 496.75 163.121C496.876 163.027 497.02 162.961 497.174 162.926C497.478 162.874 497.79 162.946 498.042 163.124L500.312 164.798C500.386 164.798 500.448 164.798 500.485 164.798C500.522 164.798 500.485 164.724 500.485 164.65L500.175 161.896C500.156 161.74 500.171 161.582 500.218 161.433C500.265 161.283 500.343 161.145 500.448 161.028C500.555 160.912 500.685 160.821 500.831 160.761C500.977 160.701 501.134 160.674 501.291 160.681C501.443 160.676 501.594 160.704 501.733 160.764C501.873 160.824 501.997 160.914 502.097 161.028C502.202 161.145 502.277 161.284 502.318 161.434C502.359 161.585 502.364 161.743 502.333 161.896L502.023 164.65C502.023 164.724 502.023 164.774 502.023 164.798C502.023 164.798 502.122 164.798 502.197 164.798L504.466 163.161C504.59 163.061 504.734 162.989 504.888 162.948C505.041 162.907 505.202 162.9 505.359 162.926C505.511 162.956 505.654 163.021 505.777 163.116C505.899 163.21 505.998 163.332 506.066 163.471C506.164 163.613 506.227 163.775 506.248 163.946C506.27 164.117 506.25 164.29 506.19 164.451C506.055 164.722 505.826 164.933 505.545 165.046L503.003 166.187C502.928 166.187 502.891 166.225 502.891 166.299C502.891 166.299 502.891 166.374 503.003 166.398L505.645 167.552C505.795 167.608 505.931 167.698 506.043 167.814C506.154 167.929 506.239 168.069 506.289 168.221C506.342 168.371 506.358 168.532 506.336 168.689C506.315 168.846 506.256 168.996 506.165 169.127C506.099 169.266 506 169.386 505.877 169.479C505.754 169.572 505.61 169.634 505.458 169.66C505.305 169.692 505.146 169.692 504.993 169.66C504.839 169.628 504.694 169.565 504.566 169.474L502.296 167.8C502.221 167.8 502.172 167.8 502.122 167.8C502.073 167.8 502.122 167.874 502.122 167.936L502.432 170.702C502.461 170.857 502.452 171.017 502.407 171.168C502.362 171.318 502.281 171.457 502.172 171.57C502.049 171.677 501.904 171.756 501.748 171.801C501.592 171.846 501.427 171.856 501.266 171.831Z" fill="#F9F9F9"/>
<path d="M516.311 171.831C516.16 171.838 516.011 171.81 515.873 171.75C515.736 171.689 515.614 171.598 515.517 171.484C515.417 171.364 515.342 171.225 515.298 171.076C515.253 170.927 515.239 170.77 515.256 170.615L515.579 167.85C515.579 167.788 515.579 167.738 515.579 167.713C515.553 167.697 515.523 167.688 515.492 167.688C515.461 167.688 515.431 167.697 515.405 167.713L513.086 169.387C512.893 169.516 512.666 169.583 512.435 169.579C512.203 169.575 511.978 169.501 511.79 169.367C511.601 169.232 511.458 169.043 511.38 168.826C511.301 168.608 511.291 168.371 511.35 168.147C511.488 167.875 511.722 167.663 512.007 167.552L514.549 166.399C514.624 166.399 514.649 166.399 514.649 166.299C514.649 166.2 514.649 166.212 514.549 166.188L512.007 165.047C511.858 164.99 511.723 164.901 511.614 164.785C511.504 164.669 511.422 164.529 511.374 164.377C511.326 164.228 511.31 164.07 511.327 163.914C511.345 163.758 511.394 163.607 511.474 163.472C511.551 163.335 511.656 163.215 511.782 163.121C511.908 163.027 512.052 162.961 512.205 162.926C512.513 162.879 512.828 162.95 513.086 163.124L515.356 164.799C515.381 164.815 515.412 164.824 515.442 164.824C515.473 164.824 515.503 164.815 515.529 164.799C515.529 164.799 515.529 164.724 515.529 164.65L515.207 161.896C515.19 161.74 515.206 161.581 515.255 161.431C515.304 161.282 515.385 161.144 515.492 161.028C515.596 160.913 515.725 160.821 515.869 160.761C516.012 160.701 516.167 160.674 516.323 160.681C516.479 160.676 516.635 160.707 516.777 160.77C516.92 160.834 517.047 160.928 517.148 161.048C517.25 161.167 517.323 161.307 517.362 161.458C517.402 161.61 517.407 161.768 517.377 161.921L517.055 164.675C517.055 164.749 517.055 164.799 517.055 164.823C517.081 164.84 517.111 164.849 517.142 164.849C517.172 164.849 517.202 164.84 517.228 164.823L519.498 163.186C519.623 163.088 519.766 163.016 519.92 162.975C520.074 162.935 520.234 162.926 520.391 162.951C520.544 162.981 520.689 163.046 520.814 163.14C520.938 163.235 521.04 163.357 521.11 163.496C521.208 163.638 521.271 163.8 521.293 163.971C521.314 164.142 521.294 164.315 521.234 164.476C521.096 164.749 520.862 164.961 520.577 165.071L518.034 166.212C517.96 166.212 517.935 166.212 517.935 166.324C517.935 166.436 517.935 166.399 518.034 166.423L520.577 167.577C520.729 167.632 520.868 167.722 520.981 167.837C521.095 167.953 521.181 168.093 521.234 168.246C521.284 168.397 521.298 168.557 521.277 168.713C521.255 168.87 521.198 169.02 521.11 169.152C521.041 169.292 520.94 169.413 520.815 169.505C520.69 169.598 520.545 169.66 520.391 169.685C520.237 169.716 520.079 169.715 519.925 169.683C519.772 169.651 519.627 169.589 519.498 169.499L517.228 167.825C517.202 167.808 517.172 167.799 517.142 167.799C517.111 167.799 517.081 167.808 517.055 167.825C517.055 167.825 517.055 167.899 517.055 167.961L517.377 170.727C517.406 170.882 517.397 171.042 517.352 171.193C517.307 171.343 517.226 171.482 517.117 171.595C516.889 171.776 516.6 171.86 516.311 171.831Z" fill="#BF882B" fill-opacity="0.99"/>
</svg>
