<svg width="33" height="34" viewBox="0 0 33 34" fill="none" xmlns="http://www.w3.org/2000/svg">
<path d="M27.72 9.88117C23.76 3.77617 15.675 1.96117 9.405 5.75617C3.3 9.55117 1.32 17.8012 5.28 23.9062L5.61 24.4012L4.29 29.3512L9.24 28.0312L9.735 28.3612C11.88 29.5162 14.19 30.1762 16.5 30.1762C18.975 30.1762 21.45 29.5162 23.595 28.1962C29.7 24.2362 31.515 16.1512 27.72 9.88117ZM24.255 22.5862C23.595 23.5762 22.77 24.2362 21.615 24.4012C20.955 24.4012 20.13 24.7312 16.83 23.4112C14.025 22.0912 11.715 19.9462 10.065 17.4712C9.075 16.3162 8.58 14.8312 8.415 13.3462C8.415 12.0262 8.91 10.8712 9.735 10.0462C10.065 9.71617 10.395 9.55117 10.725 9.55117H11.55C11.88 9.55117 12.21 9.55117 12.375 10.2112C12.705 11.0362 13.53 13.0162 13.53 13.1812C13.695 13.3462 13.695 13.6762 13.53 13.8412C13.695 14.1712 13.53 14.5012 13.365 14.6662C13.2 14.8312 13.035 15.1612 12.87 15.3262C12.54 15.4912 12.375 15.8212 12.54 16.1512C13.2 17.1412 14.025 18.1312 14.85 18.9562C15.84 19.7812 16.83 20.4412 17.985 20.9362C18.315 21.1012 18.645 21.1012 18.81 20.7712C18.975 20.4412 19.8 19.6162 20.13 19.2862C20.46 18.9562 20.625 18.9562 20.955 19.1212L23.595 20.4412C23.925 20.6062 24.255 20.7712 24.42 20.9362C24.585 21.4312 24.585 22.0912 24.255 22.5862Z" fill="#0D1721" fill-opacity="0.5"/>
</svg>
