<svg width="218" height="209" viewBox="0 0 218 209" fill="none" xmlns="http://www.w3.org/2000/svg">
<circle cx="6.04545" cy="6.04545" r="6.04545" fill="#500A7A" fill-opacity="0.3"/>
<circle cx="6.04542" cy="38.8637" r="6.04545" fill="#500A7A" fill-opacity="0.3"/>
<circle cx="6.04542" cy="71.6818" r="6.04545" fill="#500A7A" fill-opacity="0.3"/>
<circle cx="6.04542" cy="104.5" r="6.04545" fill="#500A7A" fill-opacity="0.3"/>
<circle cx="6.04542" cy="170.136" r="6.04545" fill="#500A7A" fill-opacity="0.3"/>
<circle cx="6.04542" cy="137.318" r="6.04545" fill="#500A7A" fill-opacity="0.3"/>
<circle cx="6.04542" cy="202.955" r="6.04545" fill="#500A7A" fill-opacity="0.3"/>
<circle cx="123.5" cy="6.04545" r="6.04545" fill="#500A7A" fill-opacity="0.3"/>
<circle cx="123.5" cy="38.8637" r="6.04545" fill="#500A7A" fill-opacity="0.3"/>
<circle cx="123.5" cy="71.6818" r="6.04545" fill="#500A7A" fill-opacity="0.3"/>
<circle cx="123.5" cy="104.5" r="6.04545" fill="#500A7A" fill-opacity="0.3"/>
<circle cx="123.5" cy="170.136" r="6.04545" fill="#500A7A" fill-opacity="0.3"/>
<circle cx="123.5" cy="137.318" r="6.04545" fill="#500A7A" fill-opacity="0.3"/>
<circle cx="123.5" cy="202.955" r="6.04545" fill="#500A7A" fill-opacity="0.3"/>
<circle cx="35.4091" cy="6.04545" r="6.04545" fill="#500A7A" fill-opacity="0.3"/>
<circle cx="35.4091" cy="38.8637" r="6.04545" fill="#500A7A" fill-opacity="0.3"/>
<circle cx="35.4091" cy="71.6818" r="6.04545" fill="#500A7A" fill-opacity="0.3"/>
<circle cx="35.4091" cy="104.5" r="6.04545" fill="#500A7A" fill-opacity="0.3"/>
<circle cx="35.4091" cy="170.136" r="6.04545" fill="#500A7A" fill-opacity="0.3"/>
<circle cx="35.4091" cy="137.318" r="6.04545" fill="#500A7A" fill-opacity="0.3"/>
<circle cx="35.4091" cy="202.955" r="6.04545" fill="#500A7A" fill-opacity="0.3"/>
<circle cx="152.864" cy="6.04545" r="6.04545" fill="#500A7A" fill-opacity="0.3"/>
<circle cx="152.864" cy="38.8637" r="6.04545" fill="#500A7A" fill-opacity="0.3"/>
<circle cx="152.864" cy="71.6818" r="6.04545" fill="#500A7A" fill-opacity="0.3"/>
<circle cx="152.864" cy="104.5" r="6.04545" fill="#500A7A" fill-opacity="0.3"/>
<circle cx="152.864" cy="170.136" r="6.04545" fill="#500A7A" fill-opacity="0.3"/>
<circle cx="152.864" cy="137.318" r="6.04545" fill="#500A7A" fill-opacity="0.3"/>
<circle cx="152.864" cy="202.955" r="6.04545" fill="#500A7A" fill-opacity="0.3"/>
<circle cx="64.7727" cy="6.04545" r="6.04545" fill="#500A7A" fill-opacity="0.3"/>
<circle cx="64.7727" cy="38.8637" r="6.04545" fill="#500A7A" fill-opacity="0.3"/>
<circle cx="64.7727" cy="71.6818" r="6.04545" fill="#500A7A" fill-opacity="0.3"/>
<circle cx="64.7727" cy="104.5" r="6.04545" fill="#500A7A" fill-opacity="0.3"/>
<circle cx="64.7727" cy="170.136" r="6.04545" fill="#500A7A" fill-opacity="0.3"/>
<circle cx="64.7727" cy="137.318" r="6.04545" fill="#500A7A" fill-opacity="0.3"/>
<circle cx="64.7727" cy="202.955" r="6.04545" fill="#500A7A" fill-opacity="0.3"/>
<circle cx="182.227" cy="6.04545" r="6.04545" fill="#500A7A" fill-opacity="0.3"/>
<circle cx="182.227" cy="38.8637" r="6.04545" fill="#500A7A" fill-opacity="0.3"/>
<circle cx="182.227" cy="71.6818" r="6.04545" fill="#500A7A" fill-opacity="0.3"/>
<circle cx="182.227" cy="104.5" r="6.04545" fill="#500A7A" fill-opacity="0.3"/>
<circle cx="182.227" cy="170.136" r="6.04545" fill="#500A7A" fill-opacity="0.3"/>
<circle cx="182.227" cy="137.318" r="6.04545" fill="#500A7A" fill-opacity="0.3"/>
<circle cx="182.227" cy="202.955" r="6.04545" fill="#500A7A" fill-opacity="0.3"/>
<circle cx="94.1364" cy="6.04545" r="6.04545" fill="#500A7A" fill-opacity="0.3"/>
<circle cx="94.1364" cy="38.8637" r="6.04545" fill="#500A7A" fill-opacity="0.3"/>
<circle cx="94.1364" cy="71.6818" r="6.04545" fill="#500A7A" fill-opacity="0.3"/>
<circle cx="94.1364" cy="104.5" r="6.04545" fill="#500A7A" fill-opacity="0.3"/>
<circle cx="94.1364" cy="170.136" r="6.04545" fill="#500A7A" fill-opacity="0.3"/>
<circle cx="94.1364" cy="137.318" r="6.04545" fill="#500A7A" fill-opacity="0.3"/>
<circle cx="94.1364" cy="202.955" r="6.04545" fill="#500A7A" fill-opacity="0.3"/>
<circle cx="211.591" cy="6.04545" r="6.04545" fill="#500A7A" fill-opacity="0.3"/>
<circle cx="211.591" cy="38.8637" r="6.04545" fill="#500A7A" fill-opacity="0.3"/>
<circle cx="211.591" cy="71.6818" r="6.04545" fill="#500A7A" fill-opacity="0.3"/>
<circle cx="211.591" cy="104.5" r="6.04545" fill="#500A7A" fill-opacity="0.3"/>
<circle cx="211.591" cy="170.136" r="6.04545" fill="#500A7A" fill-opacity="0.3"/>
<circle cx="211.591" cy="137.318" r="6.04545" fill="#500A7A" fill-opacity="0.3"/>
<circle cx="211.591" cy="202.955" r="6.04545" fill="#500A7A" fill-opacity="0.3"/>
</svg>
