<svg width="37" height="41" viewBox="0 0 37 41" fill="none" xmlns="http://www.w3.org/2000/svg">
<g clip-path="url(#clip0_10_221)">
<path d="M16.898 19.5694L0.149841 37.1164C0.337921 37.7829 0.675907 38.3976 1.13796 38.9135C1.60002 39.4294 2.17391 39.8328 2.81576 40.0929C3.45762 40.353 4.15045 40.4629 4.84129 40.4142C5.53213 40.3655 6.20269 40.1595 6.80171 39.8119L25.6465 29.0792L16.898 19.5694Z" fill="#EA4335"/>
<path d="M33.8332 16.5868L25.6841 11.9191L16.5112 19.9686L25.7214 29.0541L33.8085 24.4364C34.5249 24.0613 35.125 23.4972 35.5437 22.8054C35.9624 22.1135 36.1837 21.3203 36.1837 20.5116C36.1837 19.7029 35.9624 18.9096 35.5437 18.2178C35.125 17.5259 34.5249 16.9618 33.8085 16.5867H33.8335L33.8332 16.5868Z" fill="#FBBC04"/>
<path d="M0.14984 3.8197C0.0486065 4.19395 -0.00178709 4.58013 1.62152e-05 4.96783V35.9681C0.0010658 36.3557 0.051411 36.7415 0.14984 37.1164L17.4721 20.0187L0.14984 3.8197Z" fill="#4285F4"/>
<path d="M17.0228 20.4681L25.684 11.9192L6.86419 1.13648C6.15611 0.721786 5.35077 0.502174 4.53019 0.500009C2.49387 0.496051 0.703622 1.84757 0.149841 3.80729L17.0228 20.4681Z" fill="#34A853"/>
</g>
<defs>
<clipPath id="clip0_10_221">
<rect width="36.1837" height="40" fill="white" transform="translate(3.05176e-05 0.5)"/>
</clipPath>
</defs>
</svg>
