<svg width="55" height="55" viewBox="0 0 55 55" fill="none" xmlns="http://www.w3.org/2000/svg">
<rect width="55" height="55" rx="15" fill="#0D1721" fill-opacity="0.05"/>
<path d="M27.5 22.7603C26.243 22.7603 25.0375 23.2596 24.1486 24.1484C23.2598 25.0373 22.7604 26.2428 22.7604 27.4998C22.7604 28.7569 23.2598 29.9624 24.1486 30.8512C25.0375 31.7401 26.243 32.2394 27.5 32.2394C28.757 32.2394 29.9626 31.7401 30.8514 30.8512C31.7402 29.9624 32.2396 28.7569 32.2396 27.4998C32.2396 26.2428 31.7402 25.0373 30.8514 24.1484C29.9626 23.2596 28.757 22.7603 27.5 22.7603Z" fill="#0D1721" fill-opacity="0.3"/>
<path fill-rule="evenodd" clip-rule="evenodd" d="M19.8729 14.4947C24.9421 13.9328 30.0579 13.9328 35.1271 14.4947C37.8965 14.8038 40.1292 16.984 40.4544 19.7636C41.0555 24.9037 41.0555 30.0964 40.4544 35.2365C40.1292 38.0161 37.8965 40.1963 35.1285 40.507C30.0589 41.069 24.9426 41.069 19.8729 40.507C17.1035 40.1963 14.8708 38.0161 14.5456 35.238C13.9444 30.0974 13.9444 24.9042 14.5456 19.7636C14.8708 16.984 17.1035 14.8038 19.8729 14.4947ZM34.7917 18.7501C34.4049 18.7501 34.034 18.9037 33.7605 19.1772C33.487 19.4507 33.3333 19.8216 33.3333 20.2084C33.3333 20.5952 33.487 20.9661 33.7605 21.2396C34.034 21.5131 34.4049 21.6667 34.7917 21.6667C35.1784 21.6667 35.5494 21.5131 35.8229 21.2396C36.0963 20.9661 36.25 20.5952 36.25 20.2084C36.25 19.8216 36.0963 19.4507 35.8229 19.1772C35.5494 18.9037 35.1784 18.7501 34.7917 18.7501ZM20.5729 27.5001C20.5729 25.6629 21.3027 23.901 22.6018 22.6019C23.9009 21.3028 25.6628 20.573 27.5 20.573C29.3372 20.573 31.0991 21.3028 32.3982 22.6019C33.6973 23.901 34.4271 25.6629 34.4271 27.5001C34.4271 29.3373 33.6973 31.0992 32.3982 32.3983C31.0991 33.6973 29.3372 34.4272 27.5 34.4272C25.6628 34.4272 23.9009 33.6973 22.6018 32.3983C21.3027 31.0992 20.5729 29.3373 20.5729 27.5001Z" fill="#0D1721" fill-opacity="0.3"/>
</svg>
