<svg width="282" height="512" viewBox="0 0 282 512" fill="none" xmlns="http://www.w3.org/2000/svg">
<path d="M40 48C26.7 48 16 58.7 16 72V120C16 133.3 26.7 144 40 144H88C101.3 144 112 133.3 112 120V72C112 58.7 101.3 48 88 48H40ZM192 64C174.3 64 160 78.3 160 96C160 113.7 174.3 128 192 128H480C497.7 128 512 113.7 512 96C512 78.3 497.7 64 480 64H192ZM192 224C174.3 224 160 238.3 160 256C160 273.7 174.3 288 192 288H480C497.7 288 512 273.7 512 256C512 238.3 497.7 224 480 224H192ZM192 384C174.3 384 160 398.3 160 416C160 433.7 174.3 448 192 448H480C497.7 448 512 433.7 512 416C512 398.3 497.7 384 480 384H192ZM16 232V280C16 293.3 26.7 304 40 304H88C101.3 304 112 293.3 112 280V232C112 218.7 101.3 208 88 208H40C26.7 208 16 218.7 16 232ZM40 368C26.7 368 16 378.7 16 392V440C16 453.3 26.7 464 40 464H88C101.3 464 112 453.3 112 440V392C112 378.7 101.3 368 88 368H40Z" fill="white"/>
</svg>
