<svg width="135" height="39" viewBox="0 0 135 39" fill="none" xmlns="http://www.w3.org/2000/svg">
<path d="M110.523 21.759L114.769 24.2272V19.2591L110.523 16.7908V21.759ZM114.968 14.0056L110.695 16.4897L114.968 18.9738L119.241 16.4897L114.968 14.0056ZM115.167 19.2591V24.2272L119.413 21.759V16.7908L115.167 19.2591Z" fill="white"/>
<mask id="mask0_29_2283" style="mask-type:luminance" maskUnits="userSpaceOnUse" x="105" y="9" width="12" height="17">
<path d="M105.183 9.11664H116.567V25.6334H105.183V9.11664Z" fill="white"/>
</mask>
<g mask="url(#mask0_29_2283)">
<path d="M116.033 11.5349L112.769 9.11652L112.837 10.0902C108.578 10.2986 105.186 13.8424 105.186 18.1856C105.186 21.109 106.723 23.67 109.026 25.0944C107.299 23.7584 106.184 21.657 106.184 19.2929C106.184 15.5747 108.938 12.5064 112.502 12.0422L111.916 13.231L116.033 11.5349Z" fill="white"/>
</g>
<mask id="mask1_29_2283" style="mask-type:luminance" maskUnits="userSpaceOnUse" x="113" y="12" width="12" height="18">
<path d="M113.668 12.8802H124.748V29.1162H113.668V12.8802Z" fill="white"/>
</mask>
<g mask="url(#mask1_29_2283)">
<path d="M113.904 26.6979L117.167 29.1163L117.099 28.1426C121.358 27.9343 124.75 24.3904 124.75 20.0472C124.75 17.1238 123.213 14.5628 120.908 13.1362C122.638 14.4722 123.752 16.5758 123.752 18.9399C123.752 22.6559 120.998 25.7264 117.434 26.1906L118.02 25.0018L113.904 26.6979Z" fill="white"/>
</g>
<path d="M5.81513 37.7347V23.6748H15.9372C25.1421 23.6748 28.9418 18.41 28.9418 11.9065V11.8612C28.9418 5.86275 25.4614 0.595673 15.9372 0.595673H6.10352e-05V37.7347H5.81513ZM5.81513 6.04391H15.2963C20.1037 6.04391 22.9433 7.92339 22.9433 12.2734V12.3187C22.9433 16.6686 20.0584 18.41 15.2963 18.41H5.81513V6.04391Z" fill="white"/>
<path d="M61.8672 0.595673H54.9538L39.1073 18.8674V0.595673H33.2922V37.7347H39.1073V19.463L54.4941 37.7347H61.96L45.7489 18.9127L61.8672 0.595673Z" fill="white"/>
<path d="M81.3756 37.7347V6.04391H93.4201V0.595673H63.4232V6.04391H75.513V37.7347H81.3756Z" fill="white"/>
<path d="M115.675 38.2848C126.986 38.2848 135 29.9495 135 19.1413V19.096C135 8.24258 127.032 3.05176e-05 115.675 3.05176e-05C104.272 3.05176e-05 96.3055 8.24258 96.3055 19.096V19.1413C96.3055 29.9495 104.272 38.2848 115.675 38.2848ZM115.675 32.7891C108.302 32.7891 102.304 27.4314 102.304 19.1413V19.096C102.304 10.7606 108.302 5.45053 115.675 5.45053C123.003 5.45053 129.002 10.7606 129.002 19.096V19.1413C129.002 27.4314 123.003 32.7891 115.675 32.7891Z" fill="white"/>
</svg>
