<svg width="452" height="805" viewBox="0 0 452 805" fill="none" xmlns="http://www.w3.org/2000/svg">
<g clip-path="url(#clip0_2_22)">
<rect x="19" y="20" width="387" height="748" rx="59.1035" fill="#FBFBFD"/>
<path d="M188.919 210.745L188.761 200.359H191.028L190.87 210.745H188.919ZM188.761 215.983V213.171H191.028V215.983H188.761ZM203.68 215.983V214.101H206.107V215.983H203.68ZM198.102 221.176C197.558 221.176 196.983 221.131 196.379 221.04C195.789 220.965 195.139 220.851 194.428 220.7L194.746 218.999C195.547 219.09 196.212 219.158 196.741 219.203C197.27 219.249 197.724 219.272 198.102 219.272C199.311 219.272 200.188 219.045 200.732 218.591C201.292 218.138 201.571 217.48 201.571 216.618V205.96L202.433 206.527H198.873C198.072 206.527 197.444 206.625 196.991 206.822C196.537 207.003 196.22 207.374 196.038 207.933C195.857 208.477 195.766 209.279 195.766 210.337C195.766 211.38 195.857 212.174 196.038 212.718C196.22 213.247 196.53 213.61 196.968 213.806C197.422 214.003 198.057 214.101 198.873 214.101H201.571V215.983H198.873C197.558 215.983 196.522 215.787 195.766 215.394C195.01 214.986 194.466 214.366 194.134 213.534C193.816 212.688 193.657 211.622 193.657 210.337C193.657 209.037 193.816 207.963 194.134 207.117C194.466 206.27 195.01 205.643 195.766 205.235C196.522 204.826 197.558 204.622 198.873 204.622H203.68V216.596C203.68 217.563 203.454 218.387 203 219.067C202.547 219.763 201.904 220.284 201.073 220.632C200.241 220.995 199.251 221.176 198.102 221.176ZM206.107 215.983V214.101C206.303 214.101 206.424 214.184 206.47 214.351C206.53 214.517 206.56 214.744 206.56 215.031C206.56 215.318 206.53 215.553 206.47 215.734C206.424 215.9 206.303 215.983 206.107 215.983ZM210.979 215.983V214.101H213.542V215.983H210.979ZM213.542 215.983V214.101C213.738 214.101 213.859 214.184 213.905 214.351C213.965 214.517 213.995 214.744 213.995 215.031C213.995 215.318 213.965 215.553 213.905 215.734C213.859 215.9 213.738 215.983 213.542 215.983ZM206.104 215.983V214.101H209.959L208.87 214.963V204.622H210.979V215.983H206.104ZM206.104 215.983C205.907 215.983 205.786 215.9 205.741 215.734C205.681 215.553 205.65 215.318 205.65 215.031C205.65 214.744 205.681 214.517 205.741 214.351C205.786 214.184 205.907 214.101 206.104 214.101V215.983ZM207.011 202.786V200.586H209.142V202.786H207.011ZM210.118 202.786V200.586H212.249V202.786H210.118ZM226.289 215.983V214.101H228.715V215.983H226.289ZM213.545 215.983V214.101H224.883L224.157 214.736V210.949C224.157 210.148 224.051 209.49 223.84 208.976C223.643 208.447 223.341 208.062 222.933 207.82C222.525 207.563 222.018 207.434 221.413 207.434H216.447L214.996 205.28L216.039 203.307C216.205 203.005 216.379 202.687 216.561 202.355C216.757 202.007 216.991 201.614 217.264 201.175C217.551 200.722 217.914 200.178 218.352 199.543L220.121 200.563C219.698 201.213 219.35 201.75 219.078 202.173C218.821 202.597 218.602 202.967 218.42 203.284C218.239 203.587 218.065 203.889 217.899 204.192L216.833 206.232L216.379 205.552H221.413C222.366 205.552 223.16 205.718 223.794 206.051C224.429 206.368 224.921 206.792 225.268 207.321C225.631 207.85 225.888 208.44 226.039 209.09C226.206 209.725 226.289 210.344 226.289 210.949V215.983H213.545ZM213.545 215.983C213.348 215.983 213.227 215.9 213.182 215.734C213.121 215.553 213.091 215.318 213.091 215.031C213.091 214.744 213.121 214.517 213.182 214.351C213.227 214.184 213.348 214.101 213.545 214.101V215.983ZM228.715 215.983V214.101C228.912 214.101 229.033 214.184 229.078 214.351C229.139 214.517 229.169 214.744 229.169 215.031C229.169 215.318 229.139 215.553 229.078 215.734C229.033 215.9 228.912 215.983 228.715 215.983ZM228.714 215.983V214.101H232.229L231.141 214.963V204.622H233.272V215.983H228.714ZM228.714 215.983C228.518 215.983 228.397 215.9 228.351 215.734C228.291 215.553 228.261 215.318 228.261 215.031C228.261 214.744 228.291 214.517 228.351 214.351C228.397 214.184 228.518 214.101 228.714 214.101V215.983ZM231.141 220.269V218.07H233.272V220.269H231.141ZM247.333 221.607C246.426 221.607 245.579 221.479 244.793 221.222C244.022 220.965 243.342 220.602 242.752 220.133C242.178 219.68 241.724 219.135 241.391 218.501C241.074 217.866 240.915 217.178 240.915 216.437C240.915 216.135 240.938 215.742 240.983 215.258C241.044 214.759 241.112 214.207 241.187 213.602C241.278 212.983 241.376 212.348 241.482 211.697L243.568 211.97C243.402 212.967 243.266 213.874 243.16 214.691C243.07 215.492 243.024 216.059 243.024 216.392C243.024 217.042 243.206 217.616 243.568 218.115C243.931 218.614 244.438 219.007 245.088 219.294C245.738 219.581 246.486 219.725 247.333 219.725H253.75C254.854 219.725 255.685 219.423 256.245 218.818C256.819 218.228 257.106 217.359 257.106 216.21V215.416H259.215V216.21C259.215 217.268 258.996 218.198 258.558 218.999C258.134 219.816 257.515 220.451 256.698 220.904C255.897 221.373 254.914 221.607 253.75 221.607H247.333ZM255.882 215.983C255.323 215.983 254.763 215.923 254.204 215.802C253.644 215.681 253.1 215.447 252.571 215.099L253.773 213.534C253.985 213.67 254.189 213.784 254.385 213.874C254.582 213.965 254.801 214.026 255.043 214.056C255.285 214.086 255.564 214.101 255.882 214.101H260.372V215.983H255.882ZM260.372 215.983V214.101C260.553 214.101 260.674 214.184 260.735 214.351C260.795 214.517 260.825 214.744 260.825 215.031C260.825 215.318 260.795 215.553 260.735 215.734C260.674 215.9 260.553 215.983 260.372 215.983ZM247.446 225.916V223.716H249.578V225.916H247.446ZM250.553 225.916V223.716H252.684V225.916H250.553ZM260.382 215.983V214.101H271.584L270.496 215.054V205.779L271.38 206.527H267.797C266.981 206.527 266.346 206.625 265.892 206.822C265.439 207.019 265.121 207.389 264.94 207.933C264.774 208.477 264.69 209.271 264.69 210.314C264.69 211.357 264.774 212.151 264.94 212.695C265.121 213.24 265.439 213.61 265.892 213.806C266.346 214.003 266.981 214.101 267.797 214.101V215.575C266.482 215.575 265.446 215.409 264.69 215.076C263.934 214.744 263.39 214.192 263.058 213.421C262.74 212.65 262.581 211.614 262.581 210.314C262.581 209.029 262.74 207.971 263.058 207.139C263.39 206.293 263.934 205.665 264.69 205.257C265.446 204.834 266.482 204.622 267.797 204.622H272.605V215.983H260.382ZM260.382 215.983C260.185 215.983 260.064 215.9 260.019 215.734C259.958 215.553 259.928 215.318 259.928 215.031C259.928 214.744 259.958 214.517 260.019 214.351C260.064 214.184 260.185 214.101 260.382 214.101V215.983ZM267.071 202.581V200.382H269.203V202.581H267.071ZM292.017 215.983V214.101H294.443V215.983H292.017ZM280.724 223.512C280.572 222.665 280.436 221.857 280.315 221.086C280.21 220.315 280.157 219.649 280.157 219.09C280.157 218.062 280.338 217.17 280.701 216.414C281.079 215.673 281.615 215.107 282.311 214.714C283.006 214.305 283.83 214.101 284.783 214.101C285.04 214.101 285.395 214.101 285.848 214.101C286.302 214.101 286.824 214.101 287.413 214.101C288.018 214.101 288.645 214.101 289.295 214.101C289.961 214.101 290.611 214.101 291.246 214.101L289.908 215.303V210.405C289.908 209.422 289.794 208.651 289.567 208.092C289.356 207.533 288.97 207.132 288.411 206.89C287.867 206.648 287.118 206.527 286.166 206.527C285.546 206.527 284.926 206.573 284.306 206.663C283.687 206.739 283.203 206.852 282.855 207.003L284.148 205.734C284.057 206.096 283.966 206.557 283.876 207.117C283.8 207.661 283.732 208.243 283.671 208.863C283.626 209.483 283.603 210.095 283.603 210.7C283.603 211.32 283.626 211.932 283.671 212.537C283.732 213.141 283.792 213.67 283.853 214.124C283.928 214.577 283.989 214.887 284.034 215.054L282.039 215.621C281.978 215.424 281.903 215.084 281.812 214.6C281.721 214.116 281.638 213.542 281.563 212.877C281.502 212.196 281.472 211.471 281.472 210.7C281.472 209.959 281.51 209.241 281.585 208.545C281.661 207.835 281.744 207.192 281.835 206.618C281.941 206.043 282.039 205.582 282.129 205.235C282.477 205.099 283.014 204.963 283.74 204.826C284.48 204.69 285.297 204.622 286.189 204.622C287.005 204.622 287.731 204.698 288.366 204.849C289.001 205 289.545 205.227 289.998 205.529C290.467 205.832 290.852 206.21 291.155 206.663C291.457 207.117 291.676 207.661 291.812 208.296C291.949 208.916 292.017 209.626 292.017 210.428V215.983C291.382 215.983 290.694 215.983 289.953 215.983C289.227 215.983 288.517 215.983 287.821 215.983C287.126 215.983 286.506 215.983 285.962 215.983C285.433 215.983 285.04 215.983 284.783 215.983C284.541 215.983 284.276 216.014 283.989 216.074C283.702 216.15 283.422 216.286 283.15 216.482C282.893 216.694 282.681 217.004 282.515 217.412C282.349 217.835 282.266 218.395 282.266 219.09C282.266 219.665 282.318 220.315 282.424 221.04C282.53 221.781 282.651 222.605 282.787 223.512H280.724ZM294.443 215.983V214.101C294.639 214.101 294.76 214.184 294.806 214.351C294.866 214.517 294.896 214.744 294.896 215.031C294.896 215.318 294.866 215.553 294.806 215.734C294.76 215.9 294.639 215.983 294.443 215.983ZM307.185 215.983V214.101H309.612V215.983H307.185ZM294.441 215.983V214.101H305.78L305.054 214.736V210.949C305.054 210.148 304.948 209.49 304.736 208.976C304.54 208.447 304.238 208.062 303.829 207.82C303.421 207.563 302.915 207.434 302.31 207.434H297.344L295.892 205.28L296.936 203.307C297.102 203.005 297.276 202.687 297.457 202.355C297.654 202.007 297.888 201.614 298.16 201.175C298.447 200.722 298.81 200.178 299.249 199.543L301.017 200.563C300.594 201.213 300.246 201.75 299.974 202.173C299.717 202.597 299.498 202.967 299.317 203.284C299.135 203.587 298.961 203.889 298.795 204.192L297.729 206.232L297.276 205.552H302.31C303.262 205.552 304.056 205.718 304.691 206.051C305.326 206.368 305.817 206.792 306.165 207.321C306.528 207.85 306.785 208.44 306.936 209.09C307.102 209.725 307.185 210.344 307.185 210.949V215.983H294.441ZM294.441 215.983C294.245 215.983 294.124 215.9 294.078 215.734C294.018 215.553 293.988 215.318 293.988 215.031C293.988 214.744 294.018 214.517 294.078 214.351C294.124 214.184 294.245 214.101 294.441 214.101V215.983ZM309.612 215.983V214.101C309.808 214.101 309.929 214.184 309.975 214.351C310.035 214.517 310.065 214.744 310.065 215.031C310.065 215.318 310.035 215.553 309.975 215.734C309.929 215.9 309.808 215.983 309.612 215.983ZM309.611 215.983V214.101H313.126L312.037 214.963V204.622H314.169V215.983H309.611ZM309.611 215.983C309.414 215.983 309.293 215.9 309.248 215.734C309.187 215.553 309.157 215.318 309.157 215.031C309.157 214.744 309.187 214.517 309.248 214.351C309.293 214.184 309.414 214.101 309.611 214.101V215.983ZM312.037 220.269V218.07H314.169V220.269H312.037ZM322.067 199.169V198.307H326.693V199.169H322.067ZM322.067 197.105V196.244H326.693V197.105H322.067ZM325.145 215.983V214.101H327.866V215.983H325.145ZM323.036 215.983V199.792H325.145V215.983H323.036ZM327.866 215.983V214.101C328.048 214.101 328.169 214.184 328.229 214.351C328.29 214.517 328.32 214.744 328.32 215.031C328.32 215.318 328.29 215.553 328.229 215.734C328.169 215.9 328.048 215.983 327.866 215.983ZM332.416 215.983V214.101H334.843V215.983H332.416ZM327.858 215.983V214.101H331.373L330.285 214.963V204.622H332.416V215.983H327.858ZM327.858 215.983C327.662 215.983 327.541 215.9 327.496 215.734C327.435 215.553 327.405 215.318 327.405 215.031C327.405 214.744 327.435 214.517 327.496 214.351C327.541 214.184 327.662 214.101 327.858 214.101V215.983ZM334.843 215.983V214.101C335.039 214.101 335.16 214.184 335.206 214.351C335.266 214.517 335.296 214.744 335.296 215.031C335.296 215.318 335.266 215.553 335.206 215.734C335.16 215.9 335.039 215.983 334.843 215.983ZM330.285 220.269V218.07H332.416V220.269H330.285ZM334.834 215.983V214.101H344.766L344.086 214.668V209.43C344.086 208.477 343.784 207.759 343.179 207.276C342.59 206.792 341.667 206.55 340.413 206.55C340.035 206.55 339.49 206.58 338.78 206.641C338.084 206.701 337.344 206.792 336.558 206.913L336.331 205.189C336.951 205.038 337.623 204.91 338.349 204.804C339.075 204.683 339.778 204.622 340.458 204.622C341.637 204.622 342.65 204.811 343.497 205.189C344.358 205.567 345.023 206.119 345.492 206.845C345.961 207.555 346.195 208.417 346.195 209.43V215.983H334.834ZM334.834 215.983C334.638 215.983 334.517 215.9 334.471 215.734C334.411 215.553 334.381 215.318 334.381 215.031C334.381 214.744 334.411 214.517 334.471 214.351C334.517 214.184 334.638 214.101 334.834 214.101V215.983ZM351.831 215.983V214.101H354.734V215.983H351.831ZM347.931 221.176C347.734 221.176 347.53 221.161 347.319 221.131C347.092 221.116 346.865 221.101 346.638 221.086L346.82 219.203C347.047 219.219 347.258 219.234 347.455 219.249C347.636 219.264 347.787 219.272 347.908 219.272C348.589 219.272 349.133 219.015 349.541 218.501C349.964 217.987 350.176 217.268 350.176 216.346V204.622H352.308V216.346C352.308 217.299 352.119 218.138 351.741 218.863C351.363 219.589 350.849 220.156 350.199 220.564C349.549 220.972 348.793 221.176 347.931 221.176ZM354.734 215.983V214.101C354.93 214.101 355.051 214.184 355.097 214.351C355.157 214.517 355.187 214.744 355.187 215.031C355.187 215.318 355.157 215.553 355.097 215.734C355.051 215.9 354.93 215.983 354.734 215.983ZM354.743 215.983V214.101H366.965L365.627 215.099V210.405C365.627 209.407 365.514 208.629 365.287 208.069C365.076 207.51 364.698 207.109 364.153 206.867C363.609 206.625 362.868 206.505 361.931 206.505C361.296 206.505 360.669 206.55 360.049 206.641C359.429 206.731 358.945 206.852 358.598 207.003L359.89 205.734C359.8 206.081 359.709 206.527 359.618 207.071C359.527 207.616 359.452 208.205 359.391 208.84C359.331 209.46 359.301 210.08 359.301 210.7C359.301 211.32 359.331 211.932 359.391 212.537C359.452 213.141 359.52 213.67 359.595 214.124C359.671 214.577 359.732 214.887 359.777 215.054L357.759 215.621C357.698 215.424 357.623 215.084 357.532 214.6C357.456 214.116 357.381 213.534 357.305 212.854C357.245 212.174 357.214 211.456 357.214 210.7C357.214 209.959 357.245 209.241 357.305 208.545C357.381 207.835 357.464 207.192 357.555 206.618C357.66 206.043 357.759 205.582 357.849 205.235C358.197 205.099 358.734 204.963 359.459 204.826C360.2 204.69 361.024 204.622 361.931 204.622C363.216 204.622 364.29 204.811 365.151 205.189C366.028 205.567 366.678 206.179 367.101 207.026C367.54 207.858 367.759 208.984 367.759 210.405V215.983H354.743ZM354.743 215.983C354.546 215.983 354.425 215.9 354.38 215.734C354.319 215.553 354.289 215.318 354.289 215.031C354.289 214.744 354.319 214.517 354.38 214.351C354.425 214.184 354.546 214.101 354.743 214.101V215.983Z" fill="#272932"/>
<path d="M173.507 247.213V245.366H174.973V247.213H173.507ZM189.861 247.213V245.997H191.43V247.213H189.861ZM181.154 247.213C179.668 247.213 178.549 246.945 177.797 246.407C177.044 245.87 176.668 245.049 176.668 243.944C176.668 243.71 176.683 243.461 176.712 243.197C176.751 242.923 176.79 242.659 176.829 242.405C176.878 242.151 176.922 241.931 176.961 241.745C177 241.56 177.03 241.428 177.049 241.35L178.383 241.599C178.354 241.755 178.31 241.965 178.251 242.229C178.202 242.493 178.153 242.776 178.105 243.079C178.056 243.382 178.031 243.671 178.031 243.944C178.031 244.433 178.134 244.829 178.339 245.132C178.554 245.435 178.891 245.655 179.351 245.791C179.81 245.928 180.421 245.997 181.183 245.997H189.202L188.483 246.612V240.617L189.055 241.1H186.739C186.211 241.1 185.801 241.164 185.508 241.291C185.224 241.418 185.024 241.657 184.907 242.009C184.799 242.361 184.745 242.874 184.745 243.549C184.745 244.223 184.799 244.736 184.907 245.088C185.024 245.44 185.224 245.679 185.508 245.806C185.801 245.933 186.211 245.997 186.739 245.997V246.95C185.899 246.95 185.229 246.842 184.731 246.627C184.242 246.412 183.89 246.055 183.675 245.557C183.47 245.058 183.367 244.389 183.367 243.549C183.367 242.718 183.47 242.034 183.675 241.496C183.89 240.949 184.242 240.543 184.731 240.279C185.229 240.006 185.899 239.869 186.739 239.869H189.861V247.213H181.154ZM191.43 247.213V245.997C191.547 245.997 191.625 246.05 191.665 246.158C191.704 246.265 191.723 246.412 191.723 246.598C191.723 246.783 191.704 246.935 191.665 247.052C191.625 247.16 191.547 247.213 191.43 247.213ZM186.27 238.55V237.128H187.648V238.55H186.27ZM191.423 247.213V245.997H193.916L193.212 246.554V239.869H194.575V247.213H191.423ZM191.423 247.213C191.296 247.213 191.218 247.16 191.189 247.052C191.15 246.935 191.13 246.783 191.13 246.598C191.13 246.412 191.15 246.265 191.189 246.158C191.218 246.05 191.296 245.997 191.423 245.997V247.213ZM192.01 238.682V237.26H193.388V238.682H192.01ZM194.018 238.682V237.26H195.396V238.682H194.018ZM198.474 247.213V245.997H200.233V247.213H198.474ZM197.11 247.213V236.747H198.474V247.213H197.11ZM200.233 247.213V245.997C200.35 245.997 200.428 246.05 200.467 246.158C200.507 246.265 200.526 246.412 200.526 246.598C200.526 246.783 200.507 246.935 200.467 247.052C200.428 247.16 200.35 247.213 200.233 247.213ZM200.228 247.213V245.997H208.188L207.088 247.023V243.607C207.088 242.982 207.015 242.488 206.868 242.127C206.722 241.755 206.473 241.491 206.121 241.335C205.779 241.179 205.305 241.1 204.699 241.1C204.269 241.1 203.853 241.13 203.453 241.188C203.062 241.237 202.749 241.31 202.515 241.408L203.35 240.587C203.291 240.822 203.233 241.115 203.174 241.467C203.125 241.819 203.081 242.2 203.042 242.61C203.013 243.011 202.998 243.412 202.998 243.812C202.998 244.213 203.013 244.609 203.042 245C203.081 245.381 203.125 245.718 203.174 246.011C203.223 246.304 203.262 246.505 203.291 246.612L201.987 246.979C201.948 246.852 201.899 246.632 201.84 246.319C201.782 245.997 201.728 245.62 201.679 245.19C201.64 244.76 201.62 244.301 201.62 243.812C201.62 243.079 201.669 242.39 201.767 241.745C201.865 241.091 201.957 240.597 202.045 240.265C202.26 240.177 202.607 240.089 203.086 240.001C203.565 239.913 204.098 239.869 204.684 239.869C205.935 239.869 206.873 240.152 207.499 240.719C208.124 241.276 208.437 242.244 208.437 243.622V247.213H200.228ZM204.669 250.908C204.093 250.908 203.565 250.878 203.086 250.82C202.607 250.761 202.26 250.702 202.045 250.644C201.957 250.419 201.865 250.092 201.767 249.662C201.669 249.231 201.62 248.767 201.62 248.269C201.62 247.79 201.664 247.355 201.752 246.964C201.85 246.573 201.928 246.309 201.987 246.173L203.233 246.642C203.204 246.72 203.169 246.857 203.13 247.052C203.091 247.238 203.057 247.443 203.028 247.668C203.008 247.902 202.998 248.112 202.998 248.298C202.998 248.503 203.013 248.723 203.042 248.958C203.072 249.192 203.111 249.422 203.16 249.647C203.208 249.872 203.262 250.067 203.321 250.233L202.427 249.456C202.651 249.525 202.974 249.578 203.394 249.618C203.824 249.666 204.259 249.691 204.699 249.691C205.334 249.691 205.823 249.647 206.165 249.559C206.507 249.471 206.746 249.329 206.883 249.134C207.02 248.948 207.088 248.699 207.088 248.386V245.997H208.437V248.401C208.437 249.319 208.124 249.964 207.499 250.336C206.873 250.717 205.93 250.908 204.669 250.908ZM208.437 247.213V245.997H210.006V247.213H208.437ZM210.006 247.213V245.997C210.133 245.997 210.211 246.05 210.24 246.158C210.279 246.265 210.299 246.412 210.299 246.598C210.299 246.783 210.279 246.935 210.24 247.052C210.211 247.16 210.133 247.213 210.006 247.213ZM200.228 247.213C200.101 247.213 200.022 247.16 199.993 247.052C199.954 246.935 199.934 246.783 199.934 246.598C199.934 246.412 199.954 246.265 199.993 246.158C200.022 246.05 200.101 245.997 200.228 245.997V247.213ZM211.75 247.213V236.747H213.113V247.213H211.75ZM210.005 247.213V245.997H211.75V247.213H210.005ZM210.005 247.213C209.878 247.213 209.8 247.16 209.771 247.052C209.732 246.935 209.712 246.783 209.712 246.598C209.712 246.412 209.732 246.265 209.771 246.158C209.8 246.05 209.878 245.997 210.005 245.997V247.213ZM215.592 247.213V236.747H216.956V247.213H215.592ZM229.797 247.213V245.997H231.366V247.213H229.797ZM222.497 252.08C222.399 251.533 222.311 251.01 222.233 250.512C222.165 250.013 222.13 249.583 222.13 249.222C222.13 248.557 222.248 247.981 222.482 247.492C222.727 247.013 223.073 246.647 223.523 246.392C223.973 246.129 224.505 245.997 225.121 245.997C225.287 245.997 225.517 245.997 225.81 245.997C226.103 245.997 226.44 245.997 226.821 245.997C227.212 245.997 227.618 245.997 228.038 245.997C228.468 245.997 228.888 245.997 229.299 245.997L228.434 246.774V243.607C228.434 242.972 228.361 242.473 228.214 242.112C228.077 241.75 227.828 241.491 227.466 241.335C227.115 241.179 226.631 241.1 226.015 241.1C225.614 241.1 225.214 241.13 224.813 241.188C224.412 241.237 224.1 241.31 223.875 241.408L224.71 240.587C224.652 240.822 224.593 241.12 224.535 241.482C224.486 241.833 224.442 242.21 224.403 242.61C224.373 243.011 224.359 243.407 224.359 243.798C224.359 244.198 224.373 244.594 224.403 244.985C224.442 245.376 224.481 245.718 224.52 246.011C224.569 246.304 224.608 246.505 224.637 246.612L223.347 246.979C223.308 246.852 223.259 246.632 223.201 246.319C223.142 246.006 223.088 245.635 223.039 245.205C223 244.765 222.981 244.296 222.981 243.798C222.981 243.319 223.005 242.855 223.054 242.405C223.103 241.946 223.157 241.53 223.215 241.159C223.284 240.788 223.347 240.49 223.406 240.265C223.631 240.177 223.977 240.089 224.447 240.001C224.925 239.913 225.453 239.869 226.03 239.869C226.558 239.869 227.027 239.918 227.437 240.016C227.848 240.113 228.199 240.26 228.493 240.455C228.796 240.651 229.045 240.895 229.24 241.188C229.436 241.482 229.577 241.833 229.665 242.244C229.753 242.645 229.797 243.104 229.797 243.622V247.213C229.387 247.213 228.942 247.213 228.463 247.213C227.994 247.213 227.535 247.213 227.085 247.213C226.636 247.213 226.235 247.213 225.883 247.213C225.541 247.213 225.287 247.213 225.121 247.213C224.965 247.213 224.794 247.233 224.608 247.272C224.422 247.321 224.241 247.409 224.065 247.536C223.899 247.673 223.762 247.873 223.655 248.137C223.547 248.411 223.494 248.772 223.494 249.222C223.494 249.593 223.528 250.013 223.596 250.482C223.665 250.961 223.743 251.494 223.831 252.08H222.497ZM231.366 247.213V245.997C231.493 245.997 231.571 246.05 231.6 246.158C231.64 246.265 231.659 246.412 231.659 246.598C231.659 246.783 231.64 246.935 231.6 247.052C231.571 247.16 231.493 247.213 231.366 247.213ZM231.365 247.213V245.997H238.607L237.903 246.612V240.617L238.475 241.1H236.158C235.631 241.1 235.22 241.164 234.927 241.291C234.634 241.418 234.429 241.657 234.311 242.009C234.204 242.361 234.15 242.874 234.15 243.549C234.15 244.223 234.204 244.736 234.311 245.088C234.429 245.44 234.634 245.679 234.927 245.806C235.22 245.933 235.631 245.997 236.158 245.997V246.95C235.308 246.95 234.639 246.842 234.15 246.627C233.661 246.412 233.31 246.055 233.095 245.557C232.889 245.058 232.787 244.389 232.787 243.549C232.787 242.718 232.889 242.034 233.095 241.496C233.31 240.949 233.661 240.543 234.15 240.279C234.639 240.006 235.308 239.869 236.158 239.869H239.266V247.213H231.365ZM231.365 247.213C231.238 247.213 231.159 247.16 231.13 247.052C231.091 246.935 231.072 246.783 231.072 246.598C231.072 246.412 231.091 246.265 231.13 246.158C231.159 246.05 231.238 245.997 231.365 245.997V247.213ZM234.766 238.682V237.26H236.144V238.682H234.766ZM236.774 238.682V237.26H238.152V238.682H236.774ZM240.604 250.57C240.477 250.57 240.345 250.561 240.209 250.541C240.062 250.531 239.915 250.522 239.769 250.512L239.886 249.295C240.033 249.305 240.169 249.315 240.296 249.324C240.414 249.334 240.511 249.339 240.59 249.339C241.029 249.339 241.381 249.173 241.645 248.841C241.919 248.508 242.056 248.044 242.056 247.448V239.869H243.434V247.448C243.434 248.064 243.311 248.606 243.067 249.075C242.823 249.544 242.491 249.911 242.07 250.175C241.65 250.438 241.161 250.57 240.604 250.57ZM252.45 250.849C251.658 250.849 250.94 250.702 250.295 250.409C249.66 250.126 249.156 249.72 248.785 249.192C248.423 248.674 248.243 248.083 248.243 247.419C248.243 247.213 248.257 246.945 248.287 246.612C248.326 246.28 248.37 245.909 248.419 245.498C248.477 245.088 248.536 244.672 248.594 244.252C248.663 243.832 248.726 243.426 248.785 243.035L250.148 243.241C250.041 243.915 249.943 244.536 249.855 245.102C249.777 245.659 249.713 246.138 249.665 246.539C249.625 246.93 249.606 247.223 249.606 247.419C249.606 247.849 249.723 248.23 249.958 248.562C250.192 248.894 250.525 249.153 250.955 249.339C251.385 249.534 251.883 249.632 252.45 249.632C253.017 249.632 253.496 249.539 253.886 249.354C254.287 249.178 254.59 248.933 254.795 248.621C255.001 248.308 255.103 247.937 255.103 247.507V236.747H256.481V247.507C256.481 248.2 256.3 248.797 255.939 249.295C255.577 249.793 255.093 250.175 254.488 250.438C253.882 250.712 253.202 250.849 252.45 250.849ZM260.29 247.213V245.997H262.049V247.213H260.29ZM258.926 247.213V236.747H260.29V247.213H258.926ZM262.049 247.213V245.997C262.166 245.997 262.244 246.05 262.284 246.158C262.323 246.265 262.342 246.412 262.342 246.598C262.342 246.783 262.323 246.935 262.284 247.052C262.244 247.16 262.166 247.213 262.049 247.213ZM262.044 247.213V245.997H268.465L268.025 246.363V242.977C268.025 242.361 267.829 241.897 267.438 241.584C267.057 241.271 266.461 241.115 265.65 241.115C265.406 241.115 265.054 241.135 264.594 241.174C264.145 241.213 263.666 241.271 263.158 241.35L263.011 240.235C263.412 240.138 263.847 240.055 264.316 239.986C264.785 239.908 265.239 239.869 265.679 239.869C266.442 239.869 267.096 239.991 267.644 240.235C268.201 240.48 268.631 240.837 268.934 241.306C269.237 241.765 269.388 242.322 269.388 242.977V247.213H262.044ZM262.044 247.213C261.917 247.213 261.838 247.16 261.809 247.052C261.77 246.935 261.75 246.783 261.75 246.598C261.75 246.412 261.77 246.265 261.809 246.158C261.838 246.05 261.917 245.997 262.044 245.997V247.213ZM264.99 238.828V237.406H266.368V238.828H264.99ZM270.847 247.213V245.997H276.271L275.231 246.92V243.915C275.231 243.202 275.147 242.64 274.981 242.229C274.825 241.819 274.566 241.53 274.204 241.364C273.843 241.188 273.354 241.1 272.738 241.1H271.551V239.869H272.738C273.55 239.869 274.243 240.001 274.82 240.265C275.397 240.519 275.836 240.944 276.139 241.54C276.442 242.127 276.594 242.918 276.594 243.915V247.213H270.847ZM278.783 247.213V236.747H280.146V247.213H278.783ZM295.406 247.213V245.997H296.975V247.213H295.406ZM289.807 247.213C288.321 247.213 287.202 246.945 286.45 246.407C285.697 245.87 285.321 245.049 285.321 243.944C285.321 243.71 285.335 243.461 285.365 243.197C285.404 242.923 285.443 242.659 285.482 242.405C285.531 242.151 285.575 241.931 285.614 241.745C285.653 241.56 285.682 241.428 285.702 241.35L287.036 241.599C287.007 241.755 286.963 241.965 286.904 242.229C286.855 242.493 286.806 242.776 286.757 243.079C286.709 243.382 286.684 243.671 286.684 243.944C286.684 244.433 286.787 244.829 286.992 245.132C287.207 245.435 287.544 245.655 288.003 245.791C288.463 245.928 289.074 245.997 289.836 245.997H294.732L294.028 246.554V236.747H295.406V247.213H289.807ZM296.975 247.213V245.997C297.102 245.997 297.18 246.05 297.21 246.158C297.249 246.265 297.268 246.412 297.268 246.598C297.268 246.783 297.249 246.935 297.21 247.052C297.18 247.16 297.102 247.213 296.975 247.213ZM289.631 242.009C289.464 241.804 289.337 241.609 289.249 241.423C289.162 241.227 289.118 241.022 289.118 240.807C289.118 240.514 289.191 240.25 289.337 240.016C289.494 239.781 289.694 239.595 289.938 239.459C290.193 239.322 290.461 239.253 290.745 239.253C290.911 239.253 291.077 239.278 291.243 239.327C291.409 239.375 291.556 239.439 291.683 239.517L291.272 240.235C291.194 240.187 291.116 240.157 291.038 240.148C290.96 240.128 290.882 240.118 290.803 240.118C290.569 240.118 290.388 240.182 290.261 240.309C290.134 240.436 290.07 240.602 290.07 240.807C290.07 240.934 290.095 241.056 290.144 241.174C290.193 241.281 290.271 241.403 290.378 241.54L289.631 242.009ZM288.824 242.039V241.188H291.888V242.039H288.824ZM300.126 247.213V245.997H301.783V247.213H300.126ZM301.783 247.213V245.997C301.91 245.997 301.988 246.05 302.017 246.158C302.056 246.265 302.076 246.412 302.076 246.598C302.076 246.783 302.056 246.935 302.017 247.052C301.988 247.16 301.91 247.213 301.783 247.213ZM296.974 247.213V245.997H299.467L298.763 246.554V239.869H300.126V247.213H296.974ZM296.974 247.213C296.847 247.213 296.769 247.16 296.74 247.052C296.701 246.935 296.681 246.783 296.681 246.598C296.681 246.412 296.701 246.265 296.74 246.158C296.769 246.05 296.847 245.997 296.974 245.997V247.213ZM297.561 249.969V248.547H298.939V249.969H297.561ZM299.569 249.969V248.547H300.947V249.969H299.569ZM304.892 247.213V245.997H306.476V247.213H304.892ZM303.529 247.213V236.747H304.892V247.213H303.529ZM301.785 247.213V245.997H303.529V247.213H301.785ZM301.785 247.213C301.658 247.213 301.579 247.16 301.55 247.052C301.511 246.935 301.491 246.783 301.491 246.598C301.491 246.412 301.511 246.265 301.55 246.158C301.579 246.05 301.658 245.997 301.785 245.997V247.213ZM306.476 247.213V245.997C306.593 245.997 306.671 246.05 306.71 246.158C306.749 246.265 306.769 246.412 306.769 246.598C306.769 246.783 306.749 246.935 306.71 247.052C306.671 247.16 306.593 247.213 306.476 247.213ZM309.544 247.111C309.026 246.661 308.63 246.153 308.357 245.586C308.083 245.019 307.946 244.418 307.946 243.783C307.946 243.216 308.049 242.693 308.254 242.214C308.459 241.736 308.733 241.32 309.075 240.968C309.427 240.617 309.842 240.348 310.321 240.162C310.8 239.967 311.308 239.869 311.846 239.869C312.129 239.869 312.432 239.898 312.754 239.957C313.087 240.016 313.404 240.099 313.707 240.206L313.253 241.364C313.018 241.276 312.784 241.213 312.549 241.174C312.315 241.125 312.09 241.1 311.875 241.1C311.376 241.1 310.932 241.218 310.541 241.452C310.16 241.677 309.862 241.99 309.647 242.39C309.432 242.791 309.324 243.25 309.324 243.768C309.324 244.755 309.705 245.572 310.468 246.217L309.544 247.111ZM306.48 247.213V245.997H313.869V247.213H306.48ZM306.48 247.213C306.353 247.213 306.275 247.16 306.246 247.052C306.207 246.935 306.187 246.783 306.187 246.598C306.187 246.412 306.207 246.265 306.246 246.158C306.275 246.05 306.353 245.997 306.48 245.997V247.213ZM328.977 247.213V245.997H330.546V247.213H328.977ZM323.377 247.213C321.892 247.213 320.773 246.945 320.02 246.407C319.268 245.87 318.892 245.049 318.892 243.944C318.892 243.71 318.906 243.461 318.935 243.197C318.975 242.923 319.014 242.659 319.053 242.405C319.102 242.151 319.146 241.931 319.185 241.745C319.224 241.56 319.253 241.428 319.273 241.35L320.607 241.599C320.577 241.755 320.533 241.965 320.475 242.229C320.426 242.493 320.377 242.776 320.328 243.079C320.279 243.382 320.255 243.671 320.255 243.944C320.255 244.433 320.357 244.829 320.563 245.132C320.778 245.435 321.115 245.655 321.574 245.791C322.034 245.928 322.644 245.997 323.407 245.997H327.599V239.869H328.977V247.213H323.377ZM330.546 247.213V245.997C330.673 245.997 330.751 246.05 330.78 246.158C330.819 246.265 330.839 246.412 330.839 246.598C330.839 246.783 330.819 246.935 330.78 247.052C330.751 247.16 330.673 247.213 330.546 247.213ZM323.289 249.984V248.562H324.667V249.984H323.289ZM337.89 247.213V245.997H339.473V247.213H337.89ZM330.545 247.213V245.997H336.966L336.526 246.363V242.977C336.526 242.361 336.331 241.897 335.94 241.584C335.559 241.271 334.963 241.115 334.151 241.115C333.907 241.115 333.555 241.135 333.096 241.174C332.646 241.213 332.168 241.271 331.659 241.35L331.513 240.235C331.913 240.138 332.348 240.055 332.817 239.986C333.287 239.908 333.741 239.869 334.181 239.869C334.943 239.869 335.598 239.991 336.145 240.235C336.702 240.48 337.132 240.837 337.435 241.306C337.738 241.765 337.89 242.322 337.89 242.977V247.213H330.545ZM330.545 247.213C330.418 247.213 330.34 247.16 330.311 247.052C330.272 246.935 330.252 246.783 330.252 246.598C330.252 246.412 330.272 246.265 330.311 246.158C330.34 246.05 330.418 245.997 330.545 245.997V247.213ZM339.473 247.213V245.997C339.59 245.997 339.668 246.05 339.707 246.158C339.746 246.265 339.766 246.412 339.766 246.598C339.766 246.783 339.746 246.935 339.707 247.052C339.668 247.16 339.59 247.213 339.473 247.213ZM333.58 249.984V248.562H334.958V249.984H333.58ZM339.478 247.213V245.997H341.97L341.267 246.554V239.869H342.63V247.213H339.478ZM339.478 247.213C339.351 247.213 339.273 247.16 339.244 247.052C339.205 246.935 339.185 246.783 339.185 246.598C339.185 246.412 339.205 246.265 339.244 246.158C339.273 246.05 339.351 245.997 339.478 245.997V247.213ZM340.065 249.969V248.547H341.443V249.969H340.065ZM342.073 249.969V248.547H343.451V249.969H342.073ZM347.918 247.213V245.366H349.384V247.213H347.918ZM351.21 247.213V245.366H352.676V247.213H351.21ZM354.957 247.213V236.747H356.321V247.213H354.957ZM354.913 235.72C354.747 235.515 354.62 235.32 354.532 235.134C354.444 234.939 354.4 234.733 354.4 234.518C354.4 234.225 354.474 233.961 354.62 233.727C354.777 233.492 354.977 233.306 355.221 233.17C355.475 233.033 355.744 232.964 356.028 232.964C356.194 232.964 356.36 232.989 356.526 233.038C356.692 233.087 356.839 233.15 356.966 233.228L356.555 233.947C356.477 233.898 356.399 233.868 356.321 233.859C356.243 233.839 356.164 233.829 356.086 233.829C355.852 233.829 355.671 233.893 355.544 234.02C355.417 234.147 355.353 234.313 355.353 234.518C355.353 234.645 355.378 234.767 355.427 234.885C355.475 234.992 355.554 235.114 355.661 235.251L354.913 235.72ZM354.107 235.75V234.899H357.171V235.75H354.107ZM364.035 247.213V245.997H365.619V247.213H364.035ZM358.289 247.213V245.997H363.713L362.672 246.92V243.915C362.672 243.202 362.589 242.64 362.423 242.229C362.266 241.819 362.007 241.53 361.646 241.364C361.284 241.188 360.796 241.1 360.18 241.1H358.993V239.869H360.18C360.991 239.869 361.685 240.001 362.262 240.265C362.838 240.519 363.278 240.944 363.581 241.54C363.884 242.127 364.035 242.918 364.035 243.915V247.213H358.289ZM365.619 247.213V245.997C365.736 245.997 365.814 246.05 365.853 246.158C365.892 246.265 365.912 246.412 365.912 246.598C365.912 246.783 365.892 246.935 365.853 247.052C365.814 247.16 365.736 247.213 365.619 247.213ZM368.566 247.213V245.997H370.134V247.213H368.566ZM365.619 247.213V245.997H367.891L367.188 246.554V239.869H368.566V247.213H365.619ZM365.619 247.213C365.492 247.213 365.414 247.16 365.385 247.052C365.346 246.935 365.326 246.783 365.326 246.598C365.326 246.412 365.346 246.265 365.385 246.158C365.414 246.05 365.492 245.997 365.619 245.997V247.213ZM370.134 247.213V245.997C370.261 245.997 370.34 246.05 370.369 246.158C370.408 246.265 370.427 246.412 370.427 246.598C370.427 246.783 370.408 246.935 370.369 247.052C370.34 247.16 370.261 247.213 370.134 247.213ZM367.188 249.984V248.562H368.566V249.984H367.188ZM373.236 247.213V245.997H374.82V247.213H373.236ZM371.873 247.213V236.747H373.236V247.213H371.873ZM370.129 247.213V245.997H371.873V247.213H370.129ZM370.129 247.213C370.002 247.213 369.923 247.16 369.894 247.052C369.855 246.935 369.835 246.783 369.835 246.598C369.835 246.412 369.855 246.265 369.894 246.158C369.923 246.05 370.002 245.997 370.129 245.997V247.213ZM374.82 247.213V245.997C374.937 245.997 375.015 246.05 375.054 246.158C375.093 246.265 375.113 246.412 375.113 246.598C375.113 246.783 375.093 246.935 375.054 247.052C375.015 247.16 374.937 247.213 374.82 247.213ZM376.569 247.213V236.747H377.932V247.213H376.569ZM374.824 247.213V245.997H376.569V247.213H374.824ZM374.824 247.213C374.697 247.213 374.619 247.16 374.59 247.052C374.551 246.935 374.531 246.783 374.531 246.598C374.531 246.412 374.551 246.265 374.59 246.158C374.619 246.05 374.697 245.997 374.824 245.997V247.213Z" fill="#272932" fill-opacity="0.75"/>
<rect x="39.6152" y="325.105" width="344.274" height="46.3842" rx="15.4614" fill="white"/>
<rect x="40.1306" y="325.62" width="343.243" height="45.3535" rx="14.946" stroke="black" stroke-opacity="0.16" stroke-width="1.03076"/>
<path d="M55.3161 338.744C54.9024 339.158 54.7245 339.679 54.6414 340.297C54.5613 340.893 54.5613 341.65 54.5613 342.59L54.5613 342.628V352.936L54.5613 352.973C54.5613 353.913 54.5613 354.67 54.6414 355.266C54.7245 355.885 54.9024 356.406 55.3161 356.819C55.7297 357.233 56.2505 357.411 56.869 357.494C57.4648 357.574 58.2223 357.574 59.1621 357.574H59.1997H61.2613H61.2989C62.2387 357.574 62.9962 357.574 63.592 357.494C64.2105 357.411 64.7313 357.233 65.1449 356.819C65.5585 356.406 65.7364 355.885 65.8196 355.266C65.8997 354.67 65.8997 353.913 65.8997 352.973V352.936V342.628V342.59C65.8997 341.65 65.8997 340.893 65.8196 340.297C65.7364 339.679 65.5585 339.158 65.1449 338.744C64.7313 338.331 64.2105 338.153 63.592 338.07C62.9962 337.989 62.2387 337.989 61.299 337.99L61.2613 337.99H59.1997L59.162 337.99C58.2223 337.989 57.4648 337.989 56.869 338.07C56.2505 338.153 55.7297 338.331 55.3161 338.744Z" stroke="#0D1721" stroke-opacity="0.6" stroke-width="1.03076"/>
<path d="M55.0767 351.905H65.3843" stroke="#0D1721" stroke-opacity="0.6" stroke-width="1.03076"/>
<path d="M78.1789 353.089V350.274H75.4526V349.131H78.1789V346.346H79.3221V349.131H82.0631V350.274H79.3221V353.089H78.1789ZM86.469 353.528C86.1759 353.528 85.8632 353.514 85.5309 353.484C85.1987 353.455 84.8762 353.421 84.5635 353.382C84.2606 353.333 83.9968 353.289 83.772 353.25L83.904 352.224C84.0994 352.243 84.3388 352.268 84.6222 352.297C84.9153 352.327 85.2231 352.351 85.5456 352.37C85.8681 352.39 86.1759 352.4 86.469 352.4C87.3094 352.4 87.9396 352.141 88.3598 351.623C88.78 351.095 88.995 350.294 89.0047 349.219C88.7702 349.297 88.5113 349.38 88.2279 349.468C87.9445 349.556 87.6611 349.63 87.3778 349.688C87.0944 349.737 86.8354 349.761 86.6009 349.761C85.5749 349.761 84.7883 349.522 84.2411 349.043C83.7036 348.555 83.4349 347.797 83.4349 346.771C83.4349 346.107 83.5717 345.535 83.8453 345.056C84.1189 344.578 84.5098 344.211 85.0179 343.957C85.526 343.693 86.1221 343.561 86.8061 343.561C87.6269 343.561 88.2963 343.767 88.8142 344.177C89.3321 344.578 89.7132 345.154 89.9575 345.907C90.2018 346.649 90.3239 347.538 90.3239 348.574C90.3239 349.512 90.236 350.299 90.0601 350.934C89.8842 351.569 89.6301 352.077 89.2979 352.458C88.9754 352.84 88.5748 353.113 88.096 353.279C87.6172 353.445 87.0748 353.528 86.469 353.528ZM86.7182 348.633C86.9527 348.633 87.2116 348.604 87.495 348.545C87.7784 348.486 88.0569 348.418 88.3305 348.34C88.6041 348.262 88.8337 348.188 89.0194 348.12C89.0194 347.446 88.9461 346.854 88.7995 346.346C88.653 345.828 88.4184 345.423 88.096 345.13C87.7735 344.837 87.3436 344.69 86.8061 344.69C86.1612 344.69 85.6531 344.881 85.2818 345.262C84.9104 345.633 84.7248 346.136 84.7248 346.771C84.7248 347.416 84.8958 347.89 85.2378 348.193C85.5798 348.486 86.0733 348.633 86.7182 348.633ZM95.2282 353.528C94.0067 353.528 93.1175 353.084 92.5605 352.195C92.0036 351.305 91.7251 350.079 91.7251 348.516C91.7251 347.626 91.813 346.869 91.9889 346.244C92.1746 345.609 92.4335 345.096 92.7657 344.705C93.098 344.314 93.4986 344.026 93.9676 343.84C94.4367 343.654 94.9595 343.561 95.536 343.561C95.8389 343.561 96.1565 343.576 96.4887 343.605C96.8307 343.635 97.1532 343.674 97.4561 343.723C97.7688 343.762 98.0277 343.801 98.233 343.84L98.1157 344.851C97.93 344.832 97.6906 344.812 97.3975 344.793C97.1043 344.763 96.7965 344.739 96.4741 344.719C96.1614 344.7 95.8536 344.69 95.5506 344.69C94.7396 344.69 94.1191 344.964 93.6892 345.511C93.269 346.058 93.054 346.84 93.0442 347.856C93.1322 347.827 93.2592 347.788 93.4253 347.739C93.6012 347.68 93.7966 347.617 94.0116 347.548C94.2364 347.48 94.466 347.426 94.7005 347.387C94.9448 347.338 95.1744 347.314 95.3894 347.314C96.4545 347.314 97.2607 347.558 97.8079 348.047C98.3551 348.535 98.6287 349.297 98.6287 350.333C98.6287 351.017 98.4919 351.599 98.2183 352.077C97.9545 352.556 97.5685 352.918 97.0604 353.162C96.562 353.406 95.9513 353.528 95.2282 353.528ZM95.2282 352.414C95.9024 352.414 96.4203 352.234 96.7819 351.872C97.1532 351.511 97.3389 350.998 97.3389 350.333C97.3389 349.688 97.1532 349.209 96.7819 348.897C96.4203 348.584 95.922 348.428 95.2868 348.428C95.0328 348.428 94.7591 348.457 94.466 348.516C94.1826 348.574 93.9139 348.643 93.6598 348.721C93.4058 348.799 93.1957 348.877 93.0296 348.955C93.0393 349.61 93.1126 350.201 93.2494 350.729C93.396 351.247 93.6305 351.657 93.953 351.96C94.2755 352.263 94.7005 352.414 95.2282 352.414ZM103.416 353.528C102.194 353.528 101.305 353.084 100.748 352.195C100.191 351.305 99.9126 350.079 99.9126 348.516C99.9126 347.626 100.001 346.869 100.176 346.244C100.362 345.609 100.621 345.096 100.953 344.705C101.286 344.314 101.686 344.026 102.155 343.84C102.624 343.654 103.147 343.561 103.724 343.561C104.026 343.561 104.344 343.576 104.676 343.605C105.018 343.635 105.341 343.674 105.644 343.723C105.956 343.762 106.215 343.801 106.42 343.84L106.303 344.851C106.118 344.832 105.878 344.812 105.585 344.793C105.292 344.763 104.984 344.739 104.662 344.719C104.349 344.7 104.041 344.69 103.738 344.69C102.927 344.69 102.307 344.964 101.877 345.511C101.457 346.058 101.242 346.84 101.232 347.856C101.32 347.827 101.447 347.788 101.613 347.739C101.789 347.68 101.984 347.617 102.199 347.548C102.424 347.48 102.654 347.426 102.888 347.387C103.132 347.338 103.362 347.314 103.577 347.314C104.642 347.314 105.448 347.558 105.995 348.047C106.543 348.535 106.816 349.297 106.816 350.333C106.816 351.017 106.679 351.599 106.406 352.077C106.142 352.556 105.756 352.918 105.248 353.162C104.75 353.406 104.139 353.528 103.416 353.528ZM103.416 352.414C104.09 352.414 104.608 352.234 104.969 351.872C105.341 351.511 105.526 350.998 105.526 350.333C105.526 349.688 105.341 349.209 104.969 348.897C104.608 348.584 104.11 348.428 103.474 348.428C103.22 348.428 102.947 348.457 102.654 348.516C102.37 348.574 102.101 348.643 101.847 348.721C101.593 348.799 101.383 348.877 101.217 348.955C101.227 349.61 101.3 350.201 101.437 350.729C101.584 351.247 101.818 351.657 102.141 351.96C102.463 352.263 102.888 352.414 103.416 352.414Z" fill="#272932" fill-opacity="0.75"/>
<path d="M144.734 353.528C144.168 353.528 143.664 353.45 143.225 353.294C142.785 353.138 142.409 352.874 142.096 352.502C141.793 352.131 141.563 351.633 141.407 351.007C141.251 350.382 141.173 349.605 141.173 348.677C141.173 347.7 141.246 346.879 141.392 346.214C141.549 345.55 141.778 345.022 142.081 344.631C142.394 344.24 142.77 343.962 143.21 343.796C143.65 343.63 144.153 343.547 144.72 343.547C145.306 343.547 145.819 343.63 146.259 343.796C146.698 343.962 147.065 344.24 147.358 344.631C147.661 345.022 147.891 345.55 148.047 346.214C148.203 346.869 148.281 347.69 148.281 348.677C148.281 349.908 148.14 350.875 147.856 351.579C147.573 352.283 147.167 352.786 146.64 353.089C146.122 353.382 145.487 353.528 144.734 353.528ZM144.734 352.4C145.096 352.4 145.413 352.346 145.687 352.239C145.97 352.121 146.205 351.926 146.391 351.652C146.576 351.369 146.713 350.988 146.801 350.509C146.899 350.02 146.948 349.41 146.948 348.677C146.948 347.885 146.904 347.235 146.816 346.727C146.728 346.209 146.591 345.799 146.405 345.496C146.229 345.193 146 344.983 145.716 344.866C145.443 344.739 145.115 344.675 144.734 344.675C144.353 344.675 144.021 344.739 143.738 344.866C143.464 344.983 143.234 345.193 143.049 345.496C142.863 345.789 142.721 346.195 142.624 346.713C142.536 347.231 142.492 347.89 142.492 348.691C142.492 349.424 142.541 350.035 142.638 350.524C142.736 351.002 142.883 351.379 143.078 351.652C143.273 351.926 143.508 352.121 143.782 352.239C144.055 352.346 144.373 352.4 144.734 352.4ZM154.534 353.528C153.967 353.528 153.464 353.45 153.024 353.294C152.585 353.138 152.209 352.874 151.896 352.502C151.593 352.131 151.363 351.633 151.207 351.007C151.051 350.382 150.972 349.605 150.972 348.677C150.972 347.7 151.046 346.879 151.192 346.214C151.349 345.55 151.578 345.022 151.881 344.631C152.194 344.24 152.57 343.962 153.01 343.796C153.45 343.63 153.953 343.547 154.52 343.547C155.106 343.547 155.619 343.63 156.059 343.796C156.498 343.962 156.865 344.24 157.158 344.631C157.461 345.022 157.69 345.55 157.847 346.214C158.003 346.869 158.081 347.69 158.081 348.677C158.081 349.908 157.94 350.875 157.656 351.579C157.373 352.283 156.967 352.786 156.44 353.089C155.922 353.382 155.287 353.528 154.534 353.528ZM154.534 352.4C154.896 352.4 155.213 352.346 155.487 352.239C155.77 352.121 156.005 351.926 156.19 351.652C156.376 351.369 156.513 350.988 156.601 350.509C156.699 350.02 156.747 349.41 156.747 348.677C156.747 347.885 156.704 347.235 156.616 346.727C156.528 346.209 156.391 345.799 156.205 345.496C156.029 345.193 155.8 344.983 155.516 344.866C155.243 344.739 154.915 344.675 154.534 344.675C154.153 344.675 153.821 344.739 153.538 344.866C153.264 344.983 153.034 345.193 152.849 345.496C152.663 345.789 152.521 346.195 152.424 346.713C152.336 347.231 152.292 347.89 152.292 348.691C152.292 349.424 152.34 350.035 152.438 350.524C152.536 351.002 152.682 351.379 152.878 351.652C153.073 351.926 153.308 352.121 153.581 352.239C153.855 352.346 154.173 352.4 154.534 352.4ZM169.167 353.528C168.6 353.528 168.097 353.45 167.657 353.294C167.218 353.138 166.841 352.874 166.529 352.502C166.226 352.131 165.996 351.633 165.84 351.007C165.683 350.382 165.605 349.605 165.605 348.677C165.605 347.7 165.679 346.879 165.825 346.214C165.981 345.55 166.211 345.022 166.514 344.631C166.827 344.24 167.203 343.962 167.643 343.796C168.082 343.63 168.586 343.547 169.152 343.547C169.739 343.547 170.252 343.63 170.691 343.796C171.131 343.962 171.498 344.24 171.791 344.631C172.094 345.022 172.323 345.55 172.48 346.214C172.636 346.869 172.714 347.69 172.714 348.677C172.714 349.908 172.572 350.875 172.289 351.579C172.006 352.283 171.6 352.786 171.072 353.089C170.555 353.382 169.919 353.528 169.167 353.528ZM169.167 352.4C169.529 352.4 169.846 352.346 170.12 352.239C170.403 352.121 170.638 351.926 170.823 351.652C171.009 351.369 171.146 350.988 171.234 350.509C171.331 350.02 171.38 349.41 171.38 348.677C171.38 347.885 171.336 347.235 171.248 346.727C171.16 346.209 171.024 345.799 170.838 345.496C170.662 345.193 170.432 344.983 170.149 344.866C169.875 344.739 169.548 344.675 169.167 344.675C168.786 344.675 168.454 344.739 168.17 344.866C167.897 344.983 167.667 345.193 167.481 345.496C167.296 345.789 167.154 346.195 167.056 346.713C166.968 347.231 166.924 347.89 166.924 348.691C166.924 349.424 166.973 350.035 167.071 350.524C167.169 351.002 167.315 351.379 167.511 351.652C167.706 351.926 167.941 352.121 168.214 352.239C168.488 352.346 168.805 352.4 169.167 352.4ZM178.967 353.528C178.4 353.528 177.897 353.45 177.457 353.294C177.017 353.138 176.641 352.874 176.329 352.502C176.026 352.131 175.796 351.633 175.64 351.007C175.483 350.382 175.405 349.605 175.405 348.677C175.405 347.7 175.478 346.879 175.625 346.214C175.781 345.55 176.011 345.022 176.314 344.631C176.627 344.24 177.003 343.962 177.442 343.796C177.882 343.63 178.385 343.547 178.952 343.547C179.538 343.547 180.052 343.63 180.491 343.796C180.931 343.962 181.297 344.24 181.591 344.631C181.893 345.022 182.123 345.55 182.279 346.214C182.436 346.869 182.514 347.69 182.514 348.677C182.514 349.908 182.372 350.875 182.089 351.579C181.806 352.283 181.4 352.786 180.872 353.089C180.354 353.382 179.719 353.528 178.967 353.528ZM178.967 352.4C179.328 352.4 179.646 352.346 179.92 352.239C180.203 352.121 180.437 351.926 180.623 351.652C180.809 351.369 180.946 350.988 181.034 350.509C181.131 350.02 181.18 349.41 181.18 348.677C181.18 347.885 181.136 347.235 181.048 346.727C180.96 346.209 180.823 345.799 180.638 345.496C180.462 345.193 180.232 344.983 179.949 344.866C179.675 344.739 179.348 344.675 178.967 344.675C178.586 344.675 178.254 344.739 177.97 344.866C177.697 344.983 177.467 345.193 177.281 345.496C177.096 345.789 176.954 346.195 176.856 346.713C176.768 347.231 176.724 347.89 176.724 348.691C176.724 349.424 176.773 350.035 176.871 350.524C176.969 351.002 177.115 351.379 177.311 351.652C177.506 351.926 177.741 352.121 178.014 352.239C178.288 352.346 178.605 352.4 178.967 352.4ZM188.767 353.528C188.2 353.528 187.697 353.45 187.257 353.294C186.817 353.138 186.441 352.874 186.128 352.502C185.825 352.131 185.596 351.633 185.439 351.007C185.283 350.382 185.205 349.605 185.205 348.677C185.205 347.7 185.278 346.879 185.425 346.214C185.581 345.55 185.811 345.022 186.114 344.631C186.426 344.24 186.803 343.962 187.242 343.796C187.682 343.63 188.185 343.547 188.752 343.547C189.338 343.547 189.851 343.63 190.291 343.796C190.731 343.962 191.097 344.24 191.39 344.631C191.693 345.022 191.923 345.55 192.079 346.214C192.236 346.869 192.314 347.69 192.314 348.677C192.314 349.908 192.172 350.875 191.889 351.579C191.605 352.283 191.2 352.786 190.672 353.089C190.154 353.382 189.519 353.528 188.767 353.528ZM188.767 352.4C189.128 352.4 189.446 352.346 189.719 352.239C190.003 352.121 190.237 351.926 190.423 351.652C190.609 351.369 190.745 350.988 190.833 350.509C190.931 350.02 190.98 349.41 190.98 348.677C190.98 347.885 190.936 347.235 190.848 346.727C190.76 346.209 190.623 345.799 190.438 345.496C190.262 345.193 190.032 344.983 189.749 344.866C189.475 344.739 189.148 344.675 188.767 344.675C188.386 344.675 188.053 344.739 187.77 344.866C187.496 344.983 187.267 345.193 187.081 345.496C186.895 345.789 186.754 346.195 186.656 346.713C186.568 347.231 186.524 347.89 186.524 348.691C186.524 349.424 186.573 350.035 186.671 350.524C186.768 351.002 186.915 351.379 187.11 351.652C187.306 351.926 187.54 352.121 187.814 352.239C188.088 352.346 188.405 352.4 188.767 352.4ZM203.399 353.528C202.833 353.528 202.33 353.45 201.89 353.294C201.45 353.138 201.074 352.874 200.761 352.502C200.458 352.131 200.229 351.633 200.072 351.007C199.916 350.382 199.838 349.605 199.838 348.677C199.838 347.7 199.911 346.879 200.058 346.214C200.214 345.55 200.444 345.022 200.747 344.631C201.059 344.24 201.435 343.962 201.875 343.796C202.315 343.63 202.818 343.547 203.385 343.547C203.971 343.547 204.484 343.63 204.924 343.796C205.364 343.962 205.73 344.24 206.023 344.631C206.326 345.022 206.556 345.55 206.712 346.214C206.868 346.869 206.947 347.69 206.947 348.677C206.947 349.908 206.805 350.875 206.522 351.579C206.238 352.283 205.833 352.786 205.305 353.089C204.787 353.382 204.152 353.528 203.399 353.528ZM203.399 352.4C203.761 352.4 204.079 352.346 204.352 352.239C204.636 352.121 204.87 351.926 205.056 351.652C205.241 351.369 205.378 350.988 205.466 350.509C205.564 350.02 205.613 349.41 205.613 348.677C205.613 347.885 205.569 347.235 205.481 346.727C205.393 346.209 205.256 345.799 205.07 345.496C204.895 345.193 204.665 344.983 204.382 344.866C204.108 344.739 203.781 344.675 203.399 344.675C203.018 344.675 202.686 344.739 202.403 344.866C202.129 344.983 201.9 345.193 201.714 345.496C201.528 345.789 201.387 346.195 201.289 346.713C201.201 347.231 201.157 347.89 201.157 348.691C201.157 349.424 201.206 350.035 201.303 350.524C201.401 351.002 201.548 351.379 201.743 351.652C201.939 351.926 202.173 352.121 202.447 352.239C202.72 352.346 203.038 352.4 203.399 352.4ZM213.199 353.528C212.633 353.528 212.129 353.45 211.69 353.294C211.25 353.138 210.874 352.874 210.561 352.502C210.258 352.131 210.028 351.633 209.872 351.007C209.716 350.382 209.638 349.605 209.638 348.677C209.638 347.7 209.711 346.879 209.857 346.214C210.014 345.55 210.243 345.022 210.546 344.631C210.859 344.24 211.235 343.962 211.675 343.796C212.115 343.63 212.618 343.547 213.185 343.547C213.771 343.547 214.284 343.63 214.724 343.796C215.163 343.962 215.53 344.24 215.823 344.631C216.126 345.022 216.356 345.55 216.512 346.214C216.668 346.869 216.746 347.69 216.746 348.677C216.746 349.908 216.605 350.875 216.321 351.579C216.038 352.283 215.632 352.786 215.105 353.089C214.587 353.382 213.952 353.528 213.199 353.528ZM213.199 352.4C213.561 352.4 213.878 352.346 214.152 352.239C214.435 352.121 214.67 351.926 214.856 351.652C215.041 351.369 215.178 350.988 215.266 350.509C215.364 350.02 215.413 349.41 215.413 348.677C215.413 347.885 215.369 347.235 215.281 346.727C215.193 346.209 215.056 345.799 214.87 345.496C214.694 345.193 214.465 344.983 214.181 344.866C213.908 344.739 213.58 344.675 213.199 344.675C212.818 344.675 212.486 344.739 212.203 344.866C211.929 344.983 211.699 345.193 211.514 345.496C211.328 345.789 211.186 346.195 211.089 346.713C211.001 347.231 210.957 347.89 210.957 348.691C210.957 349.424 211.006 350.035 211.103 350.524C211.201 351.002 211.348 351.379 211.543 351.652C211.738 351.926 211.973 352.121 212.247 352.239C212.52 352.346 212.838 352.4 213.199 352.4ZM222.999 353.528C222.432 353.528 221.929 353.45 221.489 353.294C221.05 353.138 220.674 352.874 220.361 352.502C220.058 352.131 219.828 351.633 219.672 351.007C219.516 350.382 219.437 349.605 219.437 348.677C219.437 347.7 219.511 346.879 219.657 346.214C219.814 345.55 220.043 345.022 220.346 344.631C220.659 344.24 221.035 343.962 221.475 343.796C221.915 343.63 222.418 343.547 222.985 343.547C223.571 343.547 224.084 343.63 224.524 343.796C224.963 343.962 225.33 344.24 225.623 344.631C225.926 345.022 226.155 345.55 226.312 346.214C226.468 346.869 226.546 347.69 226.546 348.677C226.546 349.908 226.405 350.875 226.121 351.579C225.838 352.283 225.432 352.786 224.905 353.089C224.387 353.382 223.752 353.528 222.999 353.528ZM222.999 352.4C223.361 352.4 223.678 352.346 223.952 352.239C224.235 352.121 224.47 351.926 224.655 351.652C224.841 351.369 224.978 350.988 225.066 350.509C225.164 350.02 225.212 349.41 225.212 348.677C225.212 347.885 225.168 347.235 225.081 346.727C224.993 346.209 224.856 345.799 224.67 345.496C224.494 345.193 224.265 344.983 223.981 344.866C223.708 344.739 223.38 344.675 222.999 344.675C222.618 344.675 222.286 344.739 222.002 344.866C221.729 344.983 221.499 345.193 221.314 345.496C221.128 345.789 220.986 346.195 220.889 346.713C220.801 347.231 220.757 347.89 220.757 348.691C220.757 349.424 220.805 350.035 220.903 350.524C221.001 351.002 221.147 351.379 221.343 351.652C221.538 351.926 221.773 352.121 222.046 352.239C222.32 352.346 222.638 352.4 222.999 352.4Z" fill="#272932" fill-opacity="0.75"/>
<path d="M120.015 332.32V363.243" stroke="#A5A5A5" stroke-opacity="0.3" stroke-width="1.03076"/>
<rect x="39.6152" y="403.443" width="345.305" height="46.3842" rx="10.3076" fill="#500A7A"/>
<rect x="40.1306" y="403.958" width="344.274" height="45.3535" rx="9.79222" stroke="black" stroke-opacity="0.08" stroke-width="1.03076"/>
<path d="M167.669 436.748C166.779 436.748 165.971 436.583 165.245 436.253C164.53 435.934 163.964 435.478 163.546 434.884C163.139 434.302 162.936 433.636 162.936 432.889C162.936 432.658 162.953 432.356 162.985 431.982C163.029 431.608 163.079 431.19 163.134 430.728C163.2 430.267 163.266 429.799 163.332 429.327C163.409 428.854 163.48 428.397 163.546 427.958L165.08 428.189C164.959 428.947 164.849 429.645 164.75 430.283C164.662 430.91 164.591 431.449 164.536 431.899C164.492 432.339 164.47 432.669 164.47 432.889C164.47 433.373 164.602 433.801 164.866 434.175C165.129 434.549 165.503 434.84 165.987 435.049C166.471 435.269 167.032 435.379 167.669 435.379C168.307 435.379 168.846 435.275 169.285 435.066C169.736 434.868 170.077 434.593 170.308 434.241C170.539 433.889 170.654 433.472 170.654 432.988V420.883H172.205V432.988C172.205 433.768 172.001 434.439 171.594 435C171.188 435.561 170.643 435.989 169.962 436.286C169.28 436.594 168.516 436.748 167.669 436.748ZM181.355 432.658V431.289H183.119V432.658H181.355ZM177.297 436.435C176.902 436.435 176.484 436.402 176.044 436.336C175.615 436.281 175.142 436.198 174.626 436.088L174.857 434.851C175.439 434.917 175.923 434.967 176.308 435C176.693 435.033 177.023 435.049 177.297 435.049C178.177 435.049 178.815 434.884 179.211 434.555C179.617 434.225 179.821 433.746 179.821 433.12V425.368L180.447 425.781H177.858C177.275 425.781 176.819 425.852 176.489 425.995C176.16 426.127 175.929 426.396 175.797 426.803C175.665 427.199 175.599 427.782 175.599 428.551C175.599 429.31 175.665 429.887 175.797 430.283C175.929 430.668 176.154 430.932 176.473 431.075C176.803 431.218 177.264 431.289 177.858 431.289H179.821V432.658H177.858C176.902 432.658 176.149 432.515 175.599 432.229C175.049 431.932 174.653 431.482 174.411 430.877C174.18 430.261 174.065 429.486 174.065 428.551C174.065 427.606 174.18 426.825 174.411 426.21C174.653 425.594 175.049 425.138 175.599 424.841C176.149 424.544 176.902 424.395 177.858 424.395H181.355V433.103C181.355 433.807 181.19 434.406 180.86 434.901C180.53 435.407 180.063 435.786 179.458 436.039C178.853 436.303 178.133 436.435 177.297 436.435ZM183.119 432.658V431.289C183.262 431.289 183.35 431.35 183.383 431.471C183.427 431.591 183.449 431.756 183.449 431.965C183.449 432.174 183.427 432.345 183.383 432.477C183.35 432.597 183.262 432.658 183.119 432.658ZM183.117 432.658V431.289H190.341L189.846 431.701V427.892C189.846 427.199 189.626 426.677 189.186 426.325C188.757 425.973 188.087 425.797 187.174 425.797C186.899 425.797 186.503 425.819 185.987 425.863C185.481 425.907 184.942 425.973 184.37 426.061L184.205 424.808C184.656 424.698 185.146 424.604 185.673 424.527C186.201 424.439 186.712 424.395 187.207 424.395C188.065 424.395 188.801 424.533 189.417 424.808C190.044 425.083 190.527 425.484 190.868 426.012C191.209 426.528 191.38 427.155 191.38 427.892V432.658H183.117ZM183.117 432.658C182.974 432.658 182.886 432.597 182.853 432.477C182.809 432.345 182.787 432.174 182.787 431.965C182.787 431.756 182.809 431.591 182.853 431.471C182.886 431.35 182.974 431.289 183.117 431.289V432.658ZM186.432 423.224V421.625H187.982V423.224H186.432ZM199.486 432.658V431.289H201.267V432.658H199.486ZM193.021 432.658V431.289H199.123L197.952 432.328V428.947C197.952 428.145 197.859 427.512 197.672 427.051C197.496 426.589 197.205 426.264 196.798 426.078C196.391 425.88 195.841 425.781 195.149 425.781H193.813V424.395H195.149C196.061 424.395 196.842 424.544 197.491 424.841C198.139 425.127 198.634 425.605 198.975 426.275C199.316 426.935 199.486 427.826 199.486 428.947V432.658H193.021ZM201.267 432.658V431.289C201.399 431.289 201.487 431.35 201.531 431.471C201.575 431.591 201.597 431.756 201.597 431.965C201.597 432.174 201.575 432.345 201.531 432.477C201.487 432.597 201.399 432.658 201.267 432.658ZM203.231 432.658V420.883H204.764V432.658H203.231ZM201.268 432.658V431.289H203.231V432.658H201.268ZM201.268 432.658C201.125 432.658 201.037 432.597 201.004 432.477C200.96 432.345 200.938 432.174 200.938 431.965C200.938 431.756 200.96 431.591 201.004 431.471C201.037 431.35 201.125 431.289 201.268 431.289V432.658ZM207.553 432.658V420.883H209.087V432.658H207.553ZM224.177 432.658V431.289H225.942V432.658H224.177ZM219.642 436.748C218.752 436.748 217.943 436.583 217.218 436.253C216.503 435.934 215.937 435.478 215.519 434.884C215.112 434.302 214.909 433.636 214.909 432.889C214.909 432.658 214.925 432.356 214.958 431.982C215.002 431.608 215.052 431.19 215.107 430.728C215.173 430.267 215.239 429.799 215.305 429.327C215.382 428.854 215.453 428.397 215.519 427.958L217.053 428.189C216.932 428.947 216.822 429.645 216.723 430.283C216.635 430.91 216.564 431.449 216.509 431.899C216.465 432.339 216.443 432.669 216.443 432.889C216.443 433.373 216.575 433.801 216.838 434.175C217.102 434.549 217.476 434.84 217.96 435.049C218.444 435.269 219.004 435.379 219.642 435.379C220.28 435.379 220.819 435.275 221.258 435.066C221.709 434.868 222.05 434.593 222.281 434.241C222.512 433.889 222.627 433.472 222.627 432.988V420.883H224.177V432.988C224.177 433.768 223.974 434.439 223.567 435C223.16 435.561 222.616 435.989 221.935 436.286C221.253 436.594 220.489 436.748 219.642 436.748ZM225.942 432.658V431.289C226.085 431.289 226.173 431.35 226.206 431.471C226.25 431.591 226.272 431.756 226.272 431.965C226.272 432.174 226.25 432.345 226.206 432.477C226.173 432.597 226.085 432.658 225.942 432.658ZM229.257 432.658V431.289H231.021V432.658H229.257ZM225.942 432.658V431.289H228.498L227.707 431.916V424.395H229.257V432.658H225.942ZM225.942 432.658C225.799 432.658 225.711 432.597 225.678 432.477C225.634 432.345 225.612 432.174 225.612 431.965C225.612 431.756 225.634 431.591 225.678 431.471C225.711 431.35 225.799 431.289 225.942 431.289V432.658ZM231.021 432.658V431.289C231.164 431.289 231.252 431.35 231.285 431.471C231.329 431.591 231.351 431.756 231.351 431.965C231.351 432.174 231.329 432.345 231.285 432.477C231.252 432.597 231.164 432.658 231.021 432.658ZM227.707 435.775V434.175H229.257V435.775H227.707ZM239.278 432.658V431.289H241.059V432.658H239.278ZM231.015 432.658V431.289H238.239L237.744 431.701V427.892C237.744 427.199 237.524 426.677 237.084 426.325C236.655 425.973 235.985 425.797 235.072 425.797C234.797 425.797 234.402 425.819 233.885 425.863C233.379 425.907 232.84 425.973 232.269 426.061L232.104 424.808C232.554 424.698 233.044 424.604 233.571 424.527C234.099 424.439 234.61 424.395 235.105 424.395C235.963 424.395 236.699 424.533 237.315 424.808C237.942 425.083 238.426 425.484 238.766 426.012C239.107 426.528 239.278 427.155 239.278 427.892V432.658H231.015ZM231.015 432.658C230.872 432.658 230.784 432.597 230.751 432.477C230.707 432.345 230.685 432.174 230.685 431.965C230.685 431.756 230.707 431.591 230.751 431.471C230.784 431.35 230.872 431.289 231.015 431.289V432.658ZM241.059 432.658V431.289C241.191 431.289 241.279 431.35 241.323 431.471C241.367 431.591 241.389 431.756 241.389 431.965C241.389 432.174 241.367 432.345 241.323 432.477C241.279 432.597 241.191 432.658 241.059 432.658ZM234.429 435.775V434.175H235.979V435.775H234.429ZM253.863 432.658V431.289H255.628V432.658H253.863ZM250.02 432.658C249.624 432.658 249.234 432.586 248.849 432.444C248.476 432.29 248.118 432.053 247.777 431.734L248.75 430.712C248.992 430.91 249.212 431.058 249.41 431.157C249.608 431.245 249.811 431.289 250.02 431.289H253.005L252.329 431.949V428.09C252.329 427.892 252.307 427.617 252.263 427.265C252.23 426.902 252.175 426.495 252.098 426.045C252.032 425.583 251.95 425.116 251.851 424.643L253.352 424.395C253.429 424.791 253.506 425.225 253.583 425.698C253.66 426.171 253.726 426.622 253.781 427.051C253.835 427.479 253.863 427.826 253.863 428.09V432.658H250.02ZM241.065 432.658V431.289H243.473L243.094 431.668V426.061H244.627V432.658H241.065ZM244.627 432.658V431.289H246.343C246.716 431.289 246.997 431.234 247.184 431.124C247.371 431.014 247.502 430.794 247.579 430.465C247.656 430.135 247.695 429.651 247.695 429.013V425.236H249.245V429.013C249.245 429.904 249.141 430.618 248.932 431.157C248.734 431.696 248.426 432.081 248.008 432.312C247.59 432.543 247.035 432.658 246.343 432.658H244.627ZM241.065 432.658C240.922 432.658 240.834 432.597 240.801 432.477C240.757 432.345 240.735 432.174 240.735 431.965C240.735 431.756 240.757 431.591 240.801 431.471C240.834 431.35 240.922 431.289 241.065 431.289V432.658ZM255.628 432.658V431.289C255.771 431.289 255.859 431.35 255.892 431.471C255.935 431.591 255.957 431.756 255.957 431.965C255.957 432.174 255.935 432.345 255.892 432.477C255.859 432.597 255.771 432.658 255.628 432.658ZM255.625 432.658V431.289H258.428L257.637 431.916V424.395H259.17V432.658H255.625ZM255.625 432.658C255.482 432.658 255.394 432.597 255.361 432.477C255.317 432.345 255.295 432.174 255.295 431.965C255.295 431.756 255.317 431.591 255.361 431.471C255.394 431.35 255.482 431.289 255.625 431.289V432.658ZM256.284 423.06V421.46H257.834V423.06H256.284ZM258.544 423.06V421.46H260.094V423.06H258.544Z" fill="white"/>
<path d="M197.875 480.708C197.298 480.708 196.761 480.625 196.262 480.459C195.774 480.293 195.344 480.063 194.972 479.77C194.601 479.487 194.308 479.14 194.093 478.73C193.888 478.329 193.785 477.884 193.785 477.396C193.785 477.2 193.8 476.946 193.829 476.634C193.868 476.311 193.912 475.95 193.961 475.549C194.02 475.148 194.083 474.738 194.152 474.318L195.383 474.494C195.285 475.138 195.202 475.725 195.134 476.252C195.075 476.78 195.046 477.156 195.046 477.381C195.046 477.811 195.163 478.192 195.397 478.524C195.642 478.857 195.974 479.116 196.394 479.301C196.824 479.487 197.318 479.58 197.875 479.58H202.023C202.756 479.58 203.308 479.379 203.679 478.979C204.06 478.578 204.251 477.997 204.251 477.234V476.736H205.482V477.249C205.482 477.923 205.345 478.519 205.071 479.037C204.808 479.565 204.417 479.975 203.899 480.269C203.391 480.562 202.765 480.708 202.023 480.708H197.875ZM203.415 477.073C203.073 477.073 202.726 477.039 202.374 476.971C202.032 476.892 201.69 476.746 201.348 476.531L202.067 475.593C202.203 475.681 202.335 475.754 202.462 475.813C202.589 475.862 202.726 475.896 202.873 475.915C203.029 475.935 203.21 475.945 203.415 475.945H206.259V477.073H203.415ZM206.259 477.073V475.945C206.386 475.945 206.464 475.993 206.493 476.091C206.532 476.189 206.552 476.326 206.552 476.502C206.552 476.668 206.532 476.805 206.493 476.912C206.464 477.019 206.386 477.073 206.259 477.073ZM198.006 483.435V482.071H199.267V483.435H198.006ZM200.015 483.435V482.071H201.275V483.435H200.015ZM215.766 477.073V475.945H217.334V477.073H215.766ZM206.253 477.073V475.945H216.044L214.901 476.956V473.57C214.901 472.964 214.818 472.466 214.652 472.075C214.486 471.674 214.237 471.376 213.904 471.181C213.582 470.976 213.171 470.873 212.673 470.873C212.243 470.873 211.842 470.946 211.471 471.093C211.11 471.24 210.772 471.43 210.46 471.665C210.147 471.899 209.854 472.158 209.58 472.441C209.317 472.715 209.072 472.994 208.847 473.277C208.623 473.56 208.418 473.819 208.232 474.054L207.851 472.955C208.163 472.554 208.476 472.163 208.789 471.782C209.111 471.401 209.458 471.059 209.83 470.756C210.201 470.453 210.621 470.209 211.09 470.023C211.559 469.837 212.097 469.745 212.702 469.745C213.396 469.745 213.963 469.862 214.403 470.096C214.852 470.321 215.204 470.629 215.458 471.02C215.712 471.401 215.888 471.816 215.986 472.266C216.093 472.705 216.147 473.14 216.147 473.57V477.073H206.253ZM207.221 475.945V466.579H208.481V475.945H207.221ZM206.253 477.073C206.126 477.073 206.048 477.019 206.019 476.912C205.98 476.805 205.96 476.668 205.96 476.502C205.96 476.326 205.98 476.189 206.019 476.091C206.048 475.993 206.126 475.945 206.253 475.945V477.073ZM217.334 477.073V475.945C217.461 475.945 217.539 475.993 217.569 476.091C217.608 476.189 217.627 476.326 217.627 476.502C217.627 476.668 217.608 476.805 217.569 476.912C217.539 477.019 217.461 477.073 217.334 477.073ZM224.631 477.073V475.945H226.214V477.073H224.631ZM217.332 477.073V475.945H223.767L223.386 476.282V472.779C223.386 472.143 223.185 471.67 222.785 471.357C222.394 471.044 221.798 470.888 220.996 470.888C220.742 470.888 220.381 470.912 219.912 470.961C219.453 471 218.964 471.054 218.446 471.122L218.299 470.111C218.7 470.013 219.135 469.93 219.604 469.862C220.083 469.784 220.547 469.745 220.996 469.745C221.739 469.745 222.384 469.862 222.931 470.096C223.478 470.331 223.899 470.673 224.192 471.122C224.485 471.572 224.631 472.124 224.631 472.779V477.073H217.332ZM217.332 477.073C217.205 477.073 217.127 477.019 217.098 476.912C217.058 476.805 217.039 476.668 217.039 476.502C217.039 476.326 217.058 476.189 217.098 476.091C217.127 475.993 217.205 475.945 217.332 475.945V477.073ZM226.214 477.073V475.945C226.341 475.945 226.42 475.993 226.449 476.091C226.488 476.189 226.508 476.326 226.508 476.502C226.508 476.668 226.488 476.805 226.449 476.912C226.42 477.019 226.341 477.073 226.214 477.073ZM220.366 468.719V467.355H221.627V468.719H220.366ZM226.221 477.073V475.945H228.522L227.907 476.443V469.745H229.167V477.073H226.221ZM226.221 477.073C226.094 477.073 226.016 477.019 225.986 476.912C225.947 476.805 225.928 476.668 225.928 476.502C225.928 476.326 225.947 476.189 225.986 476.091C226.016 475.993 226.094 475.945 226.221 475.945V477.073ZM226.807 468.484V467.121H228.068V468.484H226.807ZM228.815 468.484V467.121H230.076V468.484H228.815Z" fill="#500A7A"/>
<path d="M193.199 478.905H230.34V479.638H193.199V478.905Z" fill="#500A7A"/>
<path d="M367.787 157.374L370.505 158.953V155.773L367.787 154.193V157.374ZM370.632 152.41L367.897 154.001L370.632 155.591L373.368 154.001L370.632 152.41ZM370.76 155.773V158.953L373.478 157.374V154.193L370.76 155.773Z" fill="#FFCD00"/>
<mask id="mask0_2_22" style="mask-type:luminance" maskUnits="userSpaceOnUse" x="364" y="149" width="8" height="11">
<path d="M364.37 149.281H371.656V159.853H364.37V149.281Z" fill="white"/>
</mask>
<g mask="url(#mask0_2_22)">
<path d="M371.314 150.829L369.226 149.281L369.269 149.904C366.543 150.037 364.371 152.306 364.371 155.086C364.371 156.957 365.356 158.597 366.83 159.508C365.724 158.653 365.011 157.308 365.011 155.795C365.011 153.415 366.773 151.451 369.055 151.154L368.679 151.915L371.314 150.829Z" fill="#FFCD00"/>
</g>
<mask id="mask1_2_22" style="mask-type:luminance" maskUnits="userSpaceOnUse" x="369" y="151" width="8" height="12">
<path d="M369.797 151.69H376.889V162.083H369.797V151.69Z" fill="white"/>
</mask>
<g mask="url(#mask1_2_22)">
<path d="M369.949 160.535L372.038 162.083L371.995 161.459C374.721 161.326 376.892 159.058 376.892 156.277C376.892 154.406 375.908 152.767 374.433 151.854C375.54 152.709 376.253 154.055 376.253 155.569C376.253 157.947 374.491 159.913 372.209 160.21L372.584 159.449L369.949 160.535Z" fill="#FFCD00"/>
</g>
<path d="M300.757 167.6V158.6H307.237C313.129 158.6 315.561 155.229 315.561 151.066V151.037C315.561 147.198 313.333 143.826 307.237 143.826H297.035V167.6H300.757ZM300.757 147.314H306.826C309.904 147.314 311.721 148.517 311.721 151.301V151.33C311.721 154.115 309.875 155.229 306.826 155.229H300.757V147.314Z" fill="#500A76"/>
<path d="M336.638 143.826H332.213L322.069 155.522V143.826H318.347V167.6H322.069V155.903L331.918 167.6H336.697L326.32 155.551L336.638 143.826Z" fill="#500A76"/>
<path d="M349.128 167.599V147.313H356.838V143.826H337.636V147.313H345.375V167.599H349.128Z" fill="#500A76"/>
<path d="M371.081 167.952C378.322 167.952 383.452 162.616 383.452 155.698V155.669C383.452 148.722 378.351 143.445 371.081 143.445C363.782 143.445 358.682 148.722 358.682 155.669V155.698C358.682 162.616 363.782 167.952 371.081 167.952ZM371.081 164.434C366.362 164.434 362.522 161.005 362.522 155.698V155.669C362.522 150.333 366.362 146.934 371.081 146.934C375.772 146.934 379.612 150.333 379.612 155.669V155.698C379.612 161.005 375.772 164.434 371.081 164.434Z" fill="#500A76"/>
<rect x="143.691" y="754.578" width="138.122" height="5.1538" rx="2.5769" fill="#09101D"/>
<path opacity="0.35" d="M355.084 48.779C355.084 47.5824 356.054 46.6123 357.25 46.6123H373.917C375.114 46.6123 376.084 47.5824 376.084 48.779V54.779C376.084 55.9756 375.114 56.9456 373.917 56.9456H357.25C356.054 56.9456 355.084 55.9756 355.084 54.779V48.779Z" stroke="#0D1721"/>
<path opacity="0.4" d="M377.584 49.7791V53.7791C378.388 53.4403 378.912 52.6522 378.912 51.7791C378.912 50.9059 378.388 50.1178 377.584 49.7791Z" fill="#0D1721"/>
<path d="M356.584 49.4456C356.584 48.7093 357.181 48.1123 357.917 48.1123H373.25C373.987 48.1123 374.584 48.7093 374.584 49.4456V54.1123C374.584 54.8487 373.987 55.4456 373.25 55.4456H357.917C357.181 55.4456 356.584 54.8487 356.584 54.1123V49.4456Z" fill="#0D1721"/>
<path fill-rule="evenodd" clip-rule="evenodd" d="M341.914 48.3869C344.13 48.387 346.261 49.2385 347.867 50.7653C347.988 50.8832 348.181 50.8817 348.3 50.7619L349.456 49.5953C349.517 49.5346 349.55 49.4523 349.55 49.3667C349.549 49.2811 349.515 49.1993 349.454 49.1393C345.239 45.0997 338.589 45.0997 334.374 49.1393C334.313 49.1992 334.278 49.2811 334.277 49.3667C334.277 49.4522 334.31 49.5345 334.371 49.5953L335.527 50.7619C335.646 50.8818 335.84 50.8833 335.96 50.7653C337.567 49.2384 339.698 48.3869 341.914 48.3869ZM341.914 52.1826C343.132 52.1825 344.306 52.6351 345.208 53.4523C345.33 53.5683 345.522 53.5657 345.641 53.4466L346.796 52.2799C346.857 52.2188 346.891 52.1357 346.89 52.0495C346.889 51.9632 346.853 51.8809 346.791 51.8209C344.043 49.2646 339.787 49.2646 337.039 51.8209C336.977 51.8809 336.942 51.9632 336.941 52.0495C336.94 52.1358 336.974 52.2188 337.035 52.2799L338.189 53.4466C338.308 53.5657 338.5 53.5683 338.622 53.4523C339.524 52.6356 340.697 52.1831 341.914 52.1826ZM344.227 54.7364C344.229 54.8229 344.195 54.9063 344.133 54.9669L342.136 56.9826C342.077 57.0419 341.997 57.0752 341.914 57.0752C341.831 57.0752 341.751 57.0419 341.692 56.9826L339.695 54.9669C339.633 54.9063 339.599 54.8229 339.601 54.7364C339.603 54.6499 339.64 54.5679 339.704 54.5099C340.98 53.4311 342.848 53.4311 344.124 54.5099C344.188 54.568 344.225 54.6499 344.227 54.7364Z" fill="#0D1721"/>
<path fill-rule="evenodd" clip-rule="evenodd" d="M328.25 46.4456H327.25C326.698 46.4456 326.25 46.8933 326.25 47.4456V56.1122C326.25 56.6645 326.698 57.1122 327.25 57.1122H328.25C328.803 57.1122 329.25 56.6645 329.25 56.1122V47.4456C329.25 46.8933 328.803 46.4456 328.25 46.4456ZM322.584 48.7789H323.584C324.136 48.7789 324.584 49.2266 324.584 49.7789V56.1122C324.584 56.6645 324.136 57.1122 323.584 57.1122H322.584C322.031 57.1122 321.584 56.6645 321.584 56.1122V49.7789C321.584 49.2266 322.031 48.7789 322.584 48.7789ZM318.917 51.1122H317.917C317.365 51.1122 316.917 51.5599 316.917 52.1122V56.1122C316.917 56.6645 317.365 57.1122 317.917 57.1122H318.917C319.469 57.1122 319.917 56.6645 319.917 56.1122V52.1122C319.917 51.5599 319.469 51.1122 318.917 51.1122ZM314.25 53.1122H313.25C312.698 53.1122 312.25 53.5599 312.25 54.1122V56.1122C312.25 56.6645 312.698 57.1122 313.25 57.1122H314.25C314.803 57.1122 315.25 56.6645 315.25 56.1122V54.1122C315.25 53.5599 314.803 53.1122 314.25 53.1122Z" fill="#0D1721"/>
<path d="M47.5172 56.8716C50.2052 56.8716 51.8018 54.7695 51.8018 51.21C51.8018 49.8696 51.5455 48.7417 51.0548 47.8701C50.3443 46.5151 49.1212 45.7827 47.5758 45.7827C45.276 45.7827 43.65 47.3281 43.65 49.4961C43.65 51.5322 45.1148 53.0117 47.129 53.0117C48.3668 53.0117 49.3702 52.4331 49.8683 51.4297H49.8902C49.8902 51.4297 49.9195 51.4297 49.9268 51.4297C49.9415 51.4297 49.9928 51.4297 49.9928 51.4297C49.9928 53.8467 49.0772 55.2896 47.5318 55.2896C46.6236 55.2896 45.9205 54.7915 45.6788 53.9932H43.7965C44.1114 55.729 45.5836 56.8716 47.5172 56.8716ZM47.5831 51.5103C46.3673 51.5103 45.503 50.646 45.503 49.4375C45.503 48.2583 46.4112 47.3574 47.5904 47.3574C48.7696 47.3574 49.6778 48.2729 49.6778 49.4668C49.6778 50.646 48.7916 51.5103 47.5831 51.5103Z" fill="#0D1721"/>
<path d="M54.893 56.769C55.5888 56.769 56.0648 56.271 56.0648 55.6118C56.0648 54.9453 55.5888 54.4546 54.893 54.4546C54.2045 54.4546 53.7211 54.9453 53.7211 55.6118C53.7211 56.271 54.2045 56.769 54.893 56.769ZM54.893 51.2759C55.5888 51.2759 56.0648 50.7852 56.0648 50.126C56.0648 49.4595 55.5888 48.9688 54.893 48.9688C54.2045 48.9688 53.7211 49.4595 53.7211 50.126C53.7211 50.7852 54.2045 51.2759 54.893 51.2759Z" fill="#0D1721"/>
<path d="M62.9206 56.6152H64.7297V54.645H66.1579V53.0483H64.7297V46.0464H62.0637C60.196 48.8589 58.7092 51.21 57.757 52.9604V54.645H62.9206V56.6152ZM59.5075 52.9824C60.738 50.8145 61.8366 49.0786 62.8474 47.5845H62.9499V53.0923H59.5075V52.9824Z" fill="#0D1721"/>
<path d="M70.1865 56.6152H72.0762V46.0464H70.1938L67.4326 47.98V49.7964L70.062 47.9507H70.1865V56.6152Z" fill="#0D1721"/>
</g>
<g filter="url(#filter0_d_2_22)">
<path d="M172.732 8.63892L174.492 11.5099C174.861 12.1116 175.516 12.4784 176.222 12.4784H247.576C248.281 12.4784 248.936 12.1116 249.305 11.5099L251.065 8.63892" stroke="#E8AA42" stroke-width="2.1461"/>
<path d="M1.04459 260.805C1.04459 260.244 1.4987 259.79 2.05887 259.79H3.72721V313.321H2.05887C1.4987 313.321 1.04459 312.867 1.04459 312.307V260.805Z" fill="#E8AA42"/>
<path d="M1.04459 192.152C1.04459 191.592 1.4987 191.138 2.05887 191.138H3.72721V244.669H2.05887C1.4987 244.669 1.04459 244.215 1.04459 243.654V192.152Z" fill="#E8AA42"/>
<path d="M1.04471 140.195C1.04471 139.635 1.49882 139.181 2.05899 139.181H3.72733V166.057H2.05899C1.49882 166.057 1.04471 165.603 1.04471 165.043V140.195Z" fill="#E8AA42"/>
<path d="M420.724 228.64H422.392C422.952 228.64 423.407 229.094 423.407 229.654V313.516C423.407 314.077 422.952 314.531 422.392 314.531H420.724V228.64Z" fill="#E8AA42"/>
<g filter="url(#filter1_f_2_22)">
<path d="M175.384 6.50221L173.863 5.29248L249.765 5.4437L248.413 6.351L175.384 6.50221Z" fill="#0F1E3A"/>
<path d="M175.384 6.50221L173.863 5.29248L249.765 5.4437L248.413 6.351L175.384 6.50221Z" stroke="black" stroke-opacity="0.5" stroke-width="0.338095"/>
</g>
<g filter="url(#filter2_d_2_22)">
<rect x="8.68125" y="7.21875" width="406.435" height="768.562" rx="64.9364" stroke="#E8AA42" stroke-width="5.36524" shape-rendering="crispEdges"/>
</g>
<g filter="url(#filter3_f_2_22)">
<rect x="420.606" y="229.408" width="2.1461" height="84.468" rx="1.07305" fill="#E8AA42"/>
</g>
<g filter="url(#filter4_f_2_22)">
<rect x="2.11777" y="139.181" width="1.07305" height="26.8762" rx="0.536524" fill="#E8AA42"/>
</g>
<g filter="url(#filter5_f_2_22)">
<rect x="1.72073" y="191.743" width="1.01429" height="52.321" rx="0.507143" fill="#E8AA42"/>
</g>
<g filter="url(#filter6_f_2_22)">
<rect x="1.72073" y="260.395" width="1.01429" height="52.321" rx="0.507143" fill="#E8AA42"/>
</g>
</g>
<circle cx="249.025" cy="47.9743" r="6.71857" fill="#E8AA42" stroke="#FACC80" stroke-width="0.959796"/>
<circle cx="249.025" cy="45.095" r="2.39949" fill="#FACC80"/>
<rect x="171.542" y="41.8489" width="59.0176" height="11.8035" rx="5.90176" fill="#E8AA42"/>
<defs>
<filter id="filter0_d_2_22" x="1.04459" y="4.53613" width="450.424" height="799.96" filterUnits="userSpaceOnUse" color-interpolation-filters="sRGB">
<feFlood flood-opacity="0" result="BackgroundImageFix"/>
<feColorMatrix in="SourceAlpha" type="matrix" values="0 0 0 0 0 0 0 0 0 0 0 0 0 0 0 0 0 0 127 0" result="hardAlpha"/>
<feOffset dx="18.5952" dy="16.5667"/>
<feGaussianBlur stdDeviation="4.73333"/>
<feComposite in2="hardAlpha" operator="out"/>
<feColorMatrix type="matrix" values="0 0 0 0 0 0 0 0 0 0 0 0 0 0 0 0 0 0 0.25 0"/>
<feBlend mode="normal" in2="BackgroundImageFix" result="effect1_dropShadow_2_22"/>
<feBlend mode="normal" in="SourceGraphic" in2="effect1_dropShadow_2_22" result="shape"/>
</filter>
<filter id="filter1_f_2_22" x="172.025" y="3.77018" width="79.6463" height="4.25359" filterUnits="userSpaceOnUse" color-interpolation-filters="sRGB">
<feFlood flood-opacity="0" result="BackgroundImageFix"/>
<feBlend mode="normal" in="SourceGraphic" in2="BackgroundImageFix" result="shape"/>
<feGaussianBlur stdDeviation="0.67619" result="effect1_foregroundBlur_2_22"/>
</filter>
<filter id="filter2_d_2_22" x="4.64625" y="4.53613" width="414.505" height="776.632" filterUnits="userSpaceOnUse" color-interpolation-filters="sRGB">
<feFlood flood-opacity="0" result="BackgroundImageFix"/>
<feColorMatrix in="SourceAlpha" type="matrix" values="0 0 0 0 0 0 0 0 0 0 0 0 0 0 0 0 0 0 127 0" result="hardAlpha"/>
<feOffset dy="1.35238"/>
<feGaussianBlur stdDeviation="0.67619"/>
<feComposite in2="hardAlpha" operator="out"/>
<feColorMatrix type="matrix" values="0 0 0 0 0 0 0 0 0 0 0 0 0 0 0 0 0 0 0.25 0"/>
<feBlend mode="normal" in2="BackgroundImageFix" result="effect1_dropShadow_2_22"/>
<feBlend mode="normal" in="SourceGraphic" in2="effect1_dropShadow_2_22" result="shape"/>
</filter>
<filter id="filter3_f_2_22" x="419.592" y="228.394" width="4.17467" height="86.4966" filterUnits="userSpaceOnUse" color-interpolation-filters="sRGB">
<feFlood flood-opacity="0" result="BackgroundImageFix"/>
<feBlend mode="normal" in="SourceGraphic" in2="BackgroundImageFix" result="shape"/>
<feGaussianBlur stdDeviation="0.507143" result="effect1_foregroundBlur_2_22"/>
</filter>
<filter id="filter4_f_2_22" x="1.10348" y="138.166" width="3.10163" height="28.9048" filterUnits="userSpaceOnUse" color-interpolation-filters="sRGB">
<feFlood flood-opacity="0" result="BackgroundImageFix"/>
<feBlend mode="normal" in="SourceGraphic" in2="BackgroundImageFix" result="shape"/>
<feGaussianBlur stdDeviation="0.507143" result="effect1_foregroundBlur_2_22"/>
</filter>
<filter id="filter5_f_2_22" x="0.706448" y="190.728" width="3.04285" height="54.3496" filterUnits="userSpaceOnUse" color-interpolation-filters="sRGB">
<feFlood flood-opacity="0" result="BackgroundImageFix"/>
<feBlend mode="normal" in="SourceGraphic" in2="BackgroundImageFix" result="shape"/>
<feGaussianBlur stdDeviation="0.507143" result="effect1_foregroundBlur_2_22"/>
</filter>
<filter id="filter6_f_2_22" x="0.706448" y="259.381" width="3.04285" height="54.3496" filterUnits="userSpaceOnUse" color-interpolation-filters="sRGB">
<feFlood flood-opacity="0" result="BackgroundImageFix"/>
<feBlend mode="normal" in="SourceGraphic" in2="BackgroundImageFix" result="shape"/>
<feGaussianBlur stdDeviation="0.507143" result="effect1_foregroundBlur_2_22"/>
</filter>
<clipPath id="clip0_2_22">
<rect x="19" y="20" width="387" height="748" rx="59.1035" fill="white"/>
</clipPath>
</defs>
</svg>
