<svg width="36" height="37" viewBox="0 0 36 37" fill="none" xmlns="http://www.w3.org/2000/svg">
<path d="M26.5774 6.42189L25.6736 5.51813C25.0981 4.94262 24.165 4.94262 23.5895 5.51813L19.7789 9.32876C19.2034 9.90427 19.2034 10.8374 19.7789 11.4129L22.4203 14.0543C22.8608 14.4948 22.97 15.1677 22.6914 15.7248C21.081 18.9456 18.4695 21.5571 15.2487 23.1675C14.6916 23.4461 14.0187 23.3369 13.5782 22.8964L10.9368 20.255C10.3613 19.6795 9.42819 19.6795 8.85268 20.255L5.04205 24.0656C4.46654 24.6411 4.46654 25.5742 5.04205 26.1497L5.94582 27.0535C9.05729 30.1649 13.9832 30.515 17.5034 27.8748L19.2842 26.5392C21.8536 24.6122 24.1361 22.3297 26.0632 19.7603L27.3988 17.9795C30.0389 14.4592 29.6889 9.53336 26.5774 6.42189Z" fill="#0D1721" fill-opacity="0.5"/>
</svg>
