<svg width="135" height="39" viewBox="0 0 135 39" fill="none" xmlns="http://www.w3.org/2000/svg">
<path d="M110.523 21.7588L114.769 24.227V19.2589L110.523 16.7906V21.7588ZM114.968 14.0054L110.695 16.4895L114.968 18.9735L119.241 16.4895L114.968 14.0054ZM115.167 19.2589V24.227L119.413 21.7588V16.7906L115.167 19.2589Z" fill="#0D1721"/>
<mask id="mask0_39_6141" style="mask-type:luminance" maskUnits="userSpaceOnUse" x="105" y="9" width="12" height="17">
<path d="M105.183 9.1167H116.567V25.6335H105.183V9.1167Z" fill="white"/>
</mask>
<g mask="url(#mask0_39_6141)">
<path d="M116.033 11.5351L112.769 9.1167L112.837 10.0904C108.578 10.2987 105.186 13.8426 105.186 18.1858C105.186 21.1091 106.723 23.6702 109.026 25.0946C107.299 23.7585 106.184 21.6571 106.184 19.2931C106.184 15.5749 108.938 12.5066 112.502 12.0424L111.916 13.2312L116.033 11.5351Z" fill="#0D1721"/>
</g>
<mask id="mask1_39_6141" style="mask-type:luminance" maskUnits="userSpaceOnUse" x="113" y="12" width="12" height="18">
<path d="M113.668 12.8804H124.748V29.1164H113.668V12.8804Z" fill="white"/>
</mask>
<g mask="url(#mask1_39_6141)">
<path d="M113.904 26.6979L117.167 29.1164L117.099 28.1426C121.358 27.9343 124.75 24.3905 124.75 20.0473C124.75 17.1239 123.213 14.5628 120.908 13.1362C122.638 14.4722 123.752 16.5759 123.752 18.94C123.752 22.6559 120.998 25.7265 117.434 26.1907L118.02 25.0019L113.904 26.6979Z" fill="#0D1721"/>
</g>
<path d="M5.81513 37.7347V23.6748H15.9372C25.1421 23.6748 28.9418 18.41 28.9418 11.9066V11.8613C28.9418 5.86278 25.4614 0.595703 15.9372 0.595703H6.10352e-05V37.7347H5.81513ZM5.81513 6.04394H15.2963C20.1037 6.04394 22.9433 7.92342 22.9433 12.2734V12.3187C22.9433 16.6687 20.0584 18.41 15.2963 18.41H5.81513V6.04394Z" fill="#0D1721"/>
<path d="M61.8672 0.595703H54.9539L39.1073 18.8674V0.595703H33.2923V37.7347H39.1073V19.463L54.4942 37.7347H61.96L45.7489 18.9127L61.8672 0.595703Z" fill="#0D1721"/>
<path d="M81.3756 37.7347V6.04394H93.4202V0.595703H63.4232V6.04394H75.513V37.7347H81.3756Z" fill="#0D1721"/>
<path d="M115.675 38.2848C126.986 38.2848 135 29.9494 135 19.1413V19.096C135 8.24255 127.032 0 115.675 0C104.272 0 96.3055 8.24255 96.3055 19.096V19.1413C96.3055 29.9494 104.272 38.2848 115.675 38.2848ZM115.675 32.789C108.302 32.789 102.304 27.4314 102.304 19.1413V19.096C102.304 10.7606 108.302 5.4505 115.675 5.4505C123.003 5.4505 129.002 10.7606 129.002 19.096V19.1413C129.002 27.4314 123.003 32.789 115.675 32.789Z" fill="#0D1721"/>
</svg>
