<svg width="146" height="39" viewBox="0 0 146 39" fill="none" xmlns="http://www.w3.org/2000/svg">
<path d="M119.392 21.7564L123.979 24.2243V19.2567L119.392 16.7888V21.7564ZM124.194 14.0039L119.578 16.4877L124.194 18.9715L128.81 16.4877L124.194 14.0039ZM124.409 19.2567V24.2243L128.996 21.7564V16.7888L124.409 19.2567Z" fill="#E8AA42"/>
<mask id="mask0_80_4502" style="mask-type:luminance" maskUnits="userSpaceOnUse" x="113" y="9" width="13" height="17">
<path d="M113.624 9.11548H125.921V25.6302H113.624V9.11548Z" fill="white"/>
</mask>
<g mask="url(#mask0_80_4502)">
<path d="M125.344 11.5336L121.819 9.11548L121.892 10.0891C117.291 10.2974 113.627 13.8408 113.627 18.1834C113.627 21.1064 115.288 23.6672 117.775 25.0913C115.909 23.7555 114.705 21.6543 114.705 19.2906C114.705 15.5728 117.68 12.5049 121.53 12.0408L120.897 13.2294L125.344 11.5336Z" fill="#E8AA42"/>
</g>
<mask id="mask1_80_4502" style="mask-type:luminance" maskUnits="userSpaceOnUse" x="122" y="12" width="13" height="18">
<path d="M122.79 12.8787H134.759V29.1126H122.79V12.8787Z" fill="white"/>
</mask>
<g mask="url(#mask1_80_4502)">
<path d="M123.044 26.6945L126.569 29.1126L126.496 28.139C131.097 27.9307 134.761 24.3874 134.761 20.0447C134.761 17.1217 133.1 14.5609 130.61 13.1345C132.479 14.4704 133.682 16.5738 133.682 18.9375C133.682 22.653 130.708 25.7232 126.858 26.1874L127.491 24.9987L123.044 26.6945Z" fill="#E8AA42"/>
</g>
<path d="M6.28171 37.73V23.6719H17.216C27.1596 23.6719 31.2642 18.4078 31.2642 11.9051V11.8599C31.2642 5.86212 27.5045 0.595703 17.216 0.595703H0V37.73H6.28171ZM6.28171 6.04325H16.5237C21.7169 6.04325 24.7844 7.92249 24.7844 12.2719V12.3172C24.7844 16.6666 21.668 18.4078 16.5237 18.4078H6.28171V6.04325Z" fill="#500A7A"/>
<path d="M66.8318 0.595703H59.3637L42.2456 18.8651V0.595703H35.9639V37.73H42.2456V19.4606L58.8672 37.73H66.9321L49.4201 18.9104L66.8318 0.595703Z" fill="#500A7A"/>
<path d="M87.9058 37.73V6.04325H100.917V0.595703H68.5127V6.04325H81.5727V37.73H87.9058Z" fill="#500A7A"/>
<path d="M124.958 38.28C137.177 38.28 145.833 29.9457 145.833 19.1389V19.0936C145.833 8.24151 137.225 0 124.958 0C112.639 0 104.034 8.24151 104.034 19.0936V19.1389C104.034 29.9457 112.639 38.28 124.958 38.28ZM124.958 32.7849C116.993 32.7849 110.514 27.4279 110.514 19.1389V19.0936C110.514 10.7592 116.993 5.44981 124.958 5.44981C132.874 5.44981 139.354 10.7592 139.354 19.0936V19.1389C139.354 27.4279 132.874 32.7849 124.958 32.7849Z" fill="#500A7A"/>
</svg>
