<svg width="55" height="55" viewBox="0 0 55 55" fill="none" xmlns="http://www.w3.org/2000/svg">
<rect width="55" height="55" rx="15" fill="#0D1721" fill-opacity="0.05"/>
<path d="M27.3133 41.7406C25.5779 41.7406 24.42 40.921 23.3861 40.1992C22.6511 39.6785 21.9627 39.1842 21.1504 39.0471C20.7637 38.9805 20.3718 38.9483 19.9794 38.9508C19.2911 38.9508 18.7442 39.0544 18.3548 39.1331C18.1069 39.1769 17.8998 39.2177 17.7365 39.2177C17.5673 39.2177 17.3529 39.171 17.2698 38.8852C17.1969 38.6519 17.1517 38.4302 17.1065 38.2158C16.9898 37.6763 16.8921 37.3452 16.6894 37.3117C14.5179 36.9806 13.2186 36.4804 12.9648 35.8883C12.9444 35.8242 12.9196 35.7571 12.9196 35.706C12.905 35.5252 13.0363 35.375 13.2186 35.3415C14.9408 35.0571 16.4881 34.1398 17.7948 32.6319C18.8098 31.4608 19.3042 30.3292 19.3494 30.2067C19.3494 30.1921 19.3625 30.1921 19.3625 30.1921C19.6104 29.6802 19.6615 29.2442 19.5113 28.8869C19.2313 28.216 18.3081 27.9302 17.6781 27.7348C17.5163 27.691 17.3792 27.6385 17.2625 27.5992C16.7229 27.3848 15.8246 26.9283 15.9427 26.2983C16.0273 25.8433 16.6311 25.5181 17.1254 25.5181C17.2625 25.5181 17.3792 25.5385 17.4754 25.591C18.0296 25.8433 18.5298 25.9731 18.9586 25.9731C19.4923 25.9731 19.7461 25.7719 19.8102 25.7077C19.7966 25.4193 19.7796 25.131 19.7592 24.8429C19.6279 22.8523 19.4792 20.3819 20.1092 18.9658C22.0021 14.7265 26.0198 14.3867 27.2098 14.3867L27.729 14.375H27.8019C28.9904 14.375 33.0081 14.706 34.9011 18.9527C35.5383 20.3688 35.3823 22.8465 35.2511 24.8298L35.2379 24.9275C35.2263 25.1929 35.2058 25.4467 35.1942 25.7077C35.2583 25.7587 35.4917 25.9542 35.9729 25.96C36.39 25.9483 36.845 25.8112 37.3642 25.5765C37.5079 25.5144 37.6626 25.4816 37.8192 25.4802C38.0015 25.4802 38.1838 25.524 38.3398 25.5765H38.3529C38.789 25.7398 39.0748 26.0446 39.0748 26.364C39.0879 26.6629 38.8531 27.1179 37.7419 27.5671C37.6252 27.6108 37.4881 27.6648 37.3263 27.7027C36.7079 27.8923 35.7848 28.1912 35.4917 28.8548C35.3298 29.2048 35.394 29.654 35.6419 30.1615C35.6419 30.1731 35.655 30.1731 35.655 30.1731C35.7265 30.3554 37.6048 34.621 41.7858 35.3167C41.8713 35.3311 41.9487 35.3759 42.0036 35.443C42.0586 35.51 42.0874 35.5946 42.0848 35.6813C42.0858 35.7468 42.0703 35.8115 42.0396 35.8694C41.7858 36.4673 40.4981 36.9544 38.3136 37.2927C38.1123 37.3248 38.0146 37.6573 37.8979 38.1969C37.8516 38.4218 37.7976 38.645 37.7361 38.8663C37.6704 39.0806 37.5333 39.1973 37.2986 39.1973H37.2679C37.06 39.1932 36.853 39.1693 36.6496 39.1258C36.1151 39.0119 35.57 38.9552 35.0236 38.9567C34.6317 38.9576 34.2405 38.9902 33.854 39.0544C33.0475 39.1856 32.3519 39.6858 31.6169 40.2065C30.5698 40.921 29.4061 41.7406 27.6838 41.7406H27.3133Z" fill="#0D1721" fill-opacity="0.3"/>
</svg>
