<svg width="21" height="28" viewBox="0 0 21 28" fill="none" xmlns="http://www.w3.org/2000/svg">
<path fill-rule="evenodd" clip-rule="evenodd" d="M11.1395 27.3879C13.3756 25.2691 20.7083 17.7679 20.7083 10.5177C20.7083 4.87975 16.1379 0.309326 10.5 0.309326C4.86205 0.309326 0.291626 4.87975 0.291626 10.5177C0.291626 17.7679 7.62434 25.2691 9.86038 27.3879C10.2232 27.7317 10.7768 27.7317 11.1395 27.3879ZM10.5 14.8927C12.9162 14.8927 14.875 12.9339 14.875 10.5177C14.875 8.10141 12.9162 6.14266 10.5 6.14266C8.08371 6.14266 6.12496 8.10141 6.12496 10.5177C6.12496 12.9339 8.08371 14.8927 10.5 14.8927Z" fill="#0D1721" fill-opacity="0.5"/>
</svg>
