<svg width="55" height="55" viewBox="0 0 55 55" fill="none" xmlns="http://www.w3.org/2000/svg">
<rect width="55" height="55" rx="15" fill="#0D1721" fill-opacity="0.05"/>
<path d="M34.2083 18.4875C33.2115 17.3494 32.6621 15.8879 32.6625 14.375H28.1563V32.4583C28.1215 33.4369 27.7084 34.3638 27.0038 35.0439C26.2993 35.7239 25.3584 36.104 24.3792 36.1042C22.3083 36.1042 20.5875 34.4125 20.5875 32.3125C20.5875 29.8042 23.0083 27.9229 25.5021 28.6958V24.0875C20.4708 23.4167 16.0667 27.325 16.0667 32.3125C16.0667 37.1688 20.0917 40.625 24.3646 40.625C28.9438 40.625 32.6625 36.9063 32.6625 32.3125V23.1396C34.4898 24.4519 36.6837 25.1559 38.9333 25.1521V20.6458C38.9333 20.6458 36.1917 20.7771 34.2083 18.4875Z" fill="#0D1721" fill-opacity="0.3"/>
</svg>
