<svg width="55" height="55" viewBox="0 0 55 55" fill="none" xmlns="http://www.w3.org/2000/svg">
<rect width="55" height="55" rx="15" fill="#0D1721" fill-opacity="0.05"/>
<path d="M22.0794 39.5504C33.0854 39.5504 39.1069 30.4227 39.1069 22.5214C39.1069 22.2647 39.1069 22.0081 39.0952 21.7514C40.2678 20.9017 41.2797 19.8498 42.0833 18.6452C40.9891 19.1287 39.8293 19.4476 38.6417 19.5916C39.893 18.8425 40.8299 17.6646 41.2783 16.2768C40.1022 16.9746 38.8146 17.4645 37.4721 17.725C36.9132 17.1279 36.2377 16.6519 35.4874 16.3266C34.7371 16.0012 33.928 15.8334 33.1102 15.8335C31.5225 15.8347 30.0001 16.4659 28.8774 17.5886C27.7547 18.7113 27.1234 20.2337 27.1223 21.8214C27.1223 22.2881 27.1806 22.7431 27.2739 23.1864C24.8938 23.0669 22.5654 22.4481 20.4399 21.3703C18.3144 20.2925 16.4393 18.7797 14.9364 16.9302C14.1727 18.2493 13.9395 19.8097 14.2843 21.2944C14.6291 22.7792 15.526 24.0772 16.7929 24.9247C15.8436 24.8919 14.9154 24.6361 14.0833 24.1781V24.2597C14.0846 25.6412 14.5627 26.9799 15.4369 28.0497C16.3111 29.1194 17.5277 29.8546 18.8812 30.131C18.3683 30.2725 17.8384 30.3431 17.3062 30.341C16.9198 30.341 16.5464 30.306 16.1833 30.236C16.5649 31.4257 17.3092 32.4662 18.3119 33.2115C19.3146 33.9569 20.5254 34.3697 21.7746 34.3922C19.655 36.0585 17.0361 36.9626 14.34 36.9589C13.8617 36.9589 13.3833 36.9356 12.9167 36.8772C15.6535 38.6237 18.8327 39.5512 22.0794 39.5504Z" fill="#0D1721" fill-opacity="0.3"/>
</svg>
