<svg width="55" height="55" viewBox="0 0 55 55" fill="none" xmlns="http://www.w3.org/2000/svg">
<rect width="55" height="55" rx="15" fill="#0D1721" fill-opacity="0.05"/>
<path d="M27.5014 12.9165C35.5558 12.9165 42.0848 19.4455 42.0848 27.4998C42.0848 35.5542 35.5558 42.0832 27.5014 42.0832C24.9242 42.0873 22.3924 41.4053 20.166 40.1071L12.9239 42.0832L14.8956 34.8382C13.5964 32.6111 12.9138 30.0782 12.9181 27.4998C12.9181 19.4455 19.4471 12.9165 27.5014 12.9165ZM22.5314 20.6457L22.2398 20.6573C22.051 20.6688 21.8664 20.7184 21.6973 20.8032C21.5391 20.8928 21.3947 21.0047 21.2685 21.1357C21.0935 21.3005 20.9944 21.4434 20.8879 21.5819C20.3485 22.2832 20.0581 23.1443 20.0625 24.029C20.0654 24.7436 20.2521 25.4392 20.5437 26.0896C21.1402 27.405 22.1217 28.7978 23.4167 30.0884C23.7287 30.399 24.035 30.7111 24.3646 31.0013C25.9737 32.418 27.8912 33.4397 29.9646 33.985L30.7929 34.1119C31.0627 34.1265 31.3325 34.1061 31.6037 34.093C32.0285 34.071 32.4432 33.956 32.8185 33.7561C33.0095 33.6577 33.1959 33.5507 33.3771 33.4353C33.3771 33.4353 33.4398 33.3944 33.5594 33.304C33.7562 33.1582 33.8773 33.0546 34.0406 32.884C34.1617 32.7586 34.2667 32.6113 34.3469 32.4436C34.4606 32.2059 34.5744 31.7523 34.621 31.3746C34.656 31.0859 34.6458 30.9284 34.6414 30.8307C34.6356 30.6746 34.5058 30.5128 34.3644 30.4442L33.5156 30.0636C33.5156 30.0636 32.2469 29.5109 31.471 29.158C31.3898 29.1225 31.3029 29.1022 31.2144 29.0982C31.1146 29.0879 31.0138 29.0991 30.9187 29.1311C30.8236 29.163 30.7365 29.215 30.6631 29.2834C30.6558 29.2805 30.5581 29.3636 29.5037 30.6411C29.4432 30.7224 29.3599 30.7839 29.2643 30.8176C29.1687 30.8514 29.0652 30.8559 28.9671 30.8307C28.8721 30.8052 28.779 30.773 28.6885 30.7344C28.5077 30.6586 28.445 30.6294 28.321 30.5769C27.484 30.2117 26.7091 29.7182 26.0242 29.1142C25.8404 28.9538 25.6698 28.7788 25.4948 28.6096C24.921 28.0602 24.421 27.4386 24.0073 26.7605L23.9212 26.6219C23.8594 26.5288 23.8095 26.4284 23.7725 26.323C23.7171 26.1086 23.8614 25.9365 23.8614 25.9365C23.8614 25.9365 24.2158 25.5486 24.3806 25.3386C24.541 25.1344 24.6767 24.9361 24.7642 24.7946C24.9362 24.5175 24.9902 24.2332 24.8998 24.013C24.4914 23.0155 24.0685 22.0223 23.6339 21.0365C23.5479 20.8411 23.2927 20.7011 23.0608 20.6734C22.9821 20.6646 22.9033 20.6559 22.8246 20.65C22.6287 20.6403 22.4325 20.6423 22.2369 20.6559L22.53 20.6442L22.5314 20.6457Z" fill="#0D1721" fill-opacity="0.3"/>
</svg>
